because-we-connect.ufo
<glyph name="exclam" format="1">
  <advance width="175"/>
  <unicode hex="0021"/>
  <outline>
    <contour>
      <point x="38" y="54" type="curve" smooth="yes"/>
      <point x="57" y="54"/>
      <point x="74" y="55"/>
      <point x="98" y="55" type="curve"/>
      <point x="98" y="62"/>
      <point x="100" y="66"/>
      <point x="100" y="71" type="curve"/>
      <point x="105" y="186"/>
      <point x="111" y="301"/>
      <point x="115" y="417" type="curve"/>
      <point x="124" y="537"/>
      <point x="137" y="658"/>
      <point x="147" y="778" type="curve"/>
      <point x="148" y="782"/>
      <point x="148" y="786"/>
      <point x="148" y="790" type="curve" smooth="yes"/>
      <point x="148" y="803" type="line"/>
      <point x="116" y="803"/>
      <point x="85" y="803"/>
      <point x="55" y="803" type="curve"/>
      <point x="54" y="762"/>
      <point x="49" y="723"/>
      <point x="47" y="681" type="curve" smooth="yes"/>
      <point x="40" y="550"/>
      <point x="32" y="417"/>
      <point x="25" y="285" type="curve" smooth="yes"/>
      <point x="21" y="214"/>
      <point x="15" y="143"/>
      <point x="15" y="73" type="curve" smooth="yes"/>
      <point x="15" y="57"/>
      <point x="19" y="54"/>
    </contour>
    <contour>
      <point x="66" y="-102" type="curve" smooth="yes"/>
      <point x="95" y="-102"/>
      <point x="105" y="-70"/>
      <point x="105" y="-59" type="curve" smooth="yes"/>
      <point x="105" y="-52" type="line" smooth="yes"/>
      <point x="105" y="-22"/>
      <point x="79" y="-5"/>
      <point x="42" y="-5" type="curve" smooth="yes"/>
      <point x="21" y="-5"/>
      <point x="10" y="-19"/>
      <point x="10" y="-44" type="curve" smooth="yes"/>
      <point x="10" y="-72"/>
      <point x="31" y="-102"/>
    </contour>
  </outline>
</glyph>
<glyph name="quotedbl" format="1">
  <advance width="260"/>
  <unicode hex="0022"/>
  <outline>
    <contour>
      <point x="171" y="562" type="curve" smooth="yes"/>
      <point x="210" y="562"/>
      <point x="226" y="562"/>
      <point x="226" y="586" type="curve"/>
      <point x="224" y="625"/>
      <point x="220" y="664"/>
      <point x="220" y="703" type="curve" smooth="yes"/>
      <point x="220" y="734"/>
      <point x="228" y="806"/>
      <point x="206" y="806" type="curve" smooth="yes"/>
      <point x="203" y="806"/>
      <point x="201" y="805"/>
      <point x="198" y="805" type="curve"/>
      <point x="169" y="799"/>
      <point x="161" y="791"/>
      <point x="161" y="779" type="curve" smooth="yes"/>
      <point x="161" y="739"/>
      <point x="163" y="699"/>
      <point x="163" y="661" type="curve" smooth="yes"/>
      <point x="163" y="631"/>
      <point x="161" y="601"/>
      <point x="160" y="572" type="curve" smooth="yes"/>
      <point x="160" y="566"/>
      <point x="163" y="562"/>
    </contour>
    <contour>
      <point x="49" y="568" type="curve" smooth="yes"/>
      <point x="55" y="568"/>
      <point x="61" y="569"/>
      <point x="67" y="570" type="curve" smooth="yes"/>
      <point x="78" y="572" type="line" smooth="yes"/>
      <point x="91" y="574"/>
      <point x="94" y="579"/>
      <point x="95" y="591" type="curve" smooth="yes"/>
      <point x="101" y="653"/>
      <point x="101" y="711"/>
      <point x="101" y="770" type="curve" smooth="yes"/>
      <point x="101" y="782"/>
      <point x="103" y="797"/>
      <point x="87" y="797" type="curve" smooth="yes"/>
      <point x="78" y="797"/>
      <point x="65" y="793"/>
      <point x="56" y="792" type="curve"/>
      <point x="41" y="784"/>
      <point x="33" y="789"/>
      <point x="33" y="773" type="curve" smooth="yes"/>
      <point x="33" y="765"/>
      <point x="37" y="755"/>
      <point x="37" y="747" type="curve" smooth="yes"/>
      <point x="37" y="691"/>
      <point x="34" y="639"/>
      <point x="33" y="583" type="curve"/>
      <point x="34" y="576" type="line"/>
      <point x="34" y="570"/>
      <point x="41" y="568"/>
    </contour>
  </outline>
</glyph>
<glyph name="numbersign" format="1">
  <advance width="755"/>
  <unicode hex="0023"/>
  <outline>
    <contour>
      <point x="489" y="21" type="curve" smooth="yes"/>
      <point x="537" y="21"/>
      <point x="566" y="42"/>
      <point x="566" y="56" type="curve" smooth="yes"/>
      <point x="566" y="59"/>
      <point x="565" y="61"/>
      <point x="565" y="65" type="curve"/>
      <point x="557" y="128"/>
      <point x="547" y="184"/>
      <point x="542" y="254" type="curve"/>
      <point x="669" y="262" type="line"/>
      <point x="707" y="262"/>
      <point x="712" y="296"/>
      <point x="716" y="323" type="curve"/>
      <point x="716" y="341"/>
      <point x="711" y="346"/>
      <point x="693" y="346" type="curve" smooth="yes"/>
      <point x="646" y="346"/>
      <point x="600" y="337"/>
      <point x="552" y="337" type="curve" smooth="yes"/>
      <point x="544" y="337"/>
      <point x="536" y="338"/>
      <point x="527" y="338" type="curve"/>
      <point x="519" y="397"/>
      <point x="513" y="452"/>
      <point x="507" y="510" type="curve"/>
      <point x="539" y="515"/>
      <point x="678" y="524"/>
      <point x="678" y="545" type="curve" smooth="yes"/>
      <point x="678" y="551"/>
      <point x="676" y="558"/>
      <point x="674" y="569" type="curve"/>
      <point x="661" y="600"/>
      <point x="665" y="607"/>
      <point x="635" y="607" type="curve"/>
      <point x="591" y="600"/>
      <point x="543" y="597"/>
      <point x="499" y="594" type="curve"/>
      <point x="484" y="643"/>
      <point x="491" y="760"/>
      <point x="455" y="760" type="curve" smooth="yes"/>
      <point x="421" y="760"/>
      <point x="397" y="743"/>
      <point x="397" y="719" type="curve" smooth="yes"/>
      <point x="397" y="680"/>
      <point x="403" y="636"/>
      <point x="410" y="585" type="curve"/>
      <point x="366" y="580"/>
      <point x="327" y="575"/>
      <point x="285" y="571" type="curve"/>
      <point x="281" y="588"/>
      <point x="281" y="601"/>
      <point x="279" y="615" type="curve" smooth="yes"/>
      <point x="274" y="656"/>
      <point x="284" y="730"/>
      <point x="230" y="730" type="curve" smooth="yes"/>
      <point x="203" y="730"/>
      <point x="186" y="713"/>
      <point x="186" y="683" type="curve" smooth="yes"/>
      <point x="186" y="644"/>
      <point x="196" y="604"/>
      <point x="199" y="562" type="curve"/>
      <point x="164" y="558"/>
      <point x="7" y="545"/>
      <point x="7" y="504" type="curve" smooth="yes"/>
      <point x="7" y="481"/>
      <point x="31" y="455"/>
      <point x="56" y="455" type="curve" smooth="yes"/>
      <point x="103" y="455"/>
      <point x="158" y="479"/>
      <point x="206" y="479" type="curve"/>
      <point x="211" y="431"/>
      <point x="218" y="384"/>
      <point x="218" y="336" type="curve" smooth="yes"/>
      <point x="218" y="319" type="line"/>
      <point x="173" y="312"/>
      <point x="131" y="305"/>
      <point x="91" y="302" type="curve" smooth="yes"/>
      <point x="70" y="300"/>
      <point x="59" y="287"/>
      <point x="59" y="261" type="curve" smooth="yes"/>
      <point x="59" y="238"/>
      <point x="75" y="224"/>
      <point x="103" y="224" type="curve" smooth="yes"/>
      <point x="142" y="224"/>
      <point x="182" y="231"/>
      <point x="225" y="233" type="curve"/>
      <point x="229" y="174"/>
      <point x="235" y="121"/>
      <point x="239" y="62" type="curve"/>
      <point x="239" y="47"/>
      <point x="240" y="26"/>
      <point x="257" y="26" type="curve" smooth="yes"/>
      <point x="259" y="26"/>
      <point x="261" y="26"/>
      <point x="263" y="27" type="curve"/>
      <point x="296" y="38"/>
      <point x="329" y="37"/>
      <point x="329" y="59" type="curve" smooth="yes"/>
      <point x="329" y="62"/>
      <point x="328" y="66"/>
      <point x="328" y="70" type="curve"/>
      <point x="320" y="126"/>
      <point x="315" y="181"/>
      <point x="315" y="237" type="curve"/>
      <point x="360" y="240"/>
      <point x="404" y="244"/>
      <point x="448" y="247" type="curve"/>
      <point x="460" y="198"/>
      <point x="463" y="145"/>
      <point x="469" y="95" type="curve" smooth="yes"/>
      <point x="472" y="67"/>
      <point x="470" y="21"/>
    </contour>
    <contour>
      <point x="304" y="330" type="curve"/>
      <point x="299" y="383"/>
      <point x="292" y="437"/>
      <point x="287" y="493" type="curve"/>
      <point x="332" y="498"/>
      <point x="375" y="503"/>
      <point x="421" y="504" type="curve"/>
      <point x="427" y="447"/>
      <point x="434" y="395"/>
      <point x="442" y="338" type="curve"/>
      <point x="395" y="336"/>
      <point x="351" y="333"/>
    </contour>
  </outline>
</glyph>
<glyph name="dollar" format="1">
  <advance width="416"/>
  <unicode hex="0024"/>
  <outline>
    <contour>
      <point x="188" y="-68" type="curve" smooth="yes"/>
      <point x="200" y="-68"/>
      <point x="220" y="-61"/>
      <point x="242" y="-58" type="curve"/>
      <point x="242" y="-19"/>
      <point x="244" y="18"/>
      <point x="245" y="55" type="curve"/>
      <point x="317" y="55"/>
      <point x="397" y="93"/>
      <point x="397" y="184" type="curve" smooth="yes"/>
      <point x="397" y="198"/>
      <point x="391" y="211"/>
      <point x="391" y="220" type="curve"/>
      <point x="387" y="231" type="line" smooth="yes"/>
      <point x="360" y="301"/>
      <point x="310" y="357"/>
      <point x="253" y="409" type="curve"/>
      <point x="256" y="479"/>
      <point x="260" y="550"/>
      <point x="264" y="620" type="curve"/>
      <point x="270" y="616" type="line"/>
      <point x="299" y="593"/>
      <point x="329" y="545"/>
      <point x="335" y="545" type="curve" smooth="yes"/>
      <point x="348" y="545"/>
      <point x="384" y="579"/>
      <point x="384" y="584" type="curve" smooth="yes"/>
      <point x="384" y="587"/>
      <point x="382" y="590"/>
      <point x="379" y="594" type="curve"/>
      <point x="379" y="595" type="line"/>
      <point x="378" y="598"/>
      <point x="373" y="602"/>
      <point x="370" y="606" type="curve"/>
      <point x="344" y="645"/>
      <point x="308" y="678"/>
      <point x="268" y="698" type="curve"/>
      <point x="269" y="727"/>
      <point x="272" y="758"/>
      <point x="272" y="787" type="curve" smooth="yes"/>
      <point x="272" y="796"/>
      <point x="263" y="799"/>
      <point x="200" y="799" type="curve"/>
      <point x="200" y="790"/>
      <point x="199" y="781"/>
      <point x="199" y="775" type="curve"/>
      <point x="196" y="720" type="line"/>
      <point x="193" y="720"/>
      <point x="184" y="722"/>
      <point x="179" y="722" type="curve"/>
      <point x="91" y="717"/>
      <point x="26" y="659"/>
      <point x="26" y="577" type="curve" smooth="yes"/>
      <point x="26" y="509"/>
      <point x="90" y="431"/>
      <point x="163" y="390" type="curve"/>
      <point x="179" y="376" type="line"/>
      <point x="182" y="373"/>
      <point x="184" y="370"/>
      <point x="187" y="368" type="curve"/>
      <point x="183" y="196" type="line"/>
      <point x="182" y="186"/>
      <point x="182" y="176"/>
      <point x="182" y="166" type="curve"/>
      <point x="130" y="217"/>
      <point x="99" y="295"/>
      <point x="75" y="295" type="curve" smooth="yes"/>
      <point x="70" y="295"/>
      <point x="64" y="293"/>
      <point x="55" y="289" type="curve"/>
      <point x="37" y="282" type="line" smooth="yes"/>
      <point x="23" y="276"/>
      <point x="16" y="271"/>
      <point x="16" y="264" type="curve" smooth="yes"/>
      <point x="16" y="259"/>
      <point x="18" y="254"/>
      <point x="23" y="246" type="curve"/>
      <point x="40" y="216"/>
      <point x="31" y="217"/>
      <point x="52" y="185" type="curve" smooth="yes"/>
      <point x="83" y="138"/>
      <point x="137" y="84"/>
      <point x="179" y="69" type="curve"/>
      <point x="178" y="29"/>
      <point x="178" y="-10"/>
      <point x="178" y="-50" type="curve" smooth="yes"/>
      <point x="178" y="-64"/>
      <point x="180" y="-68"/>
    </contour>
    <contour>
      <point x="247" y="140" type="line"/>
      <point x="248" y="189"/>
      <point x="250" y="238"/>
      <point x="250" y="288" type="curve"/>
      <point x="267" y="261"/>
      <point x="281" y="232"/>
      <point x="293" y="203" type="curve"/>
      <point x="295" y="196"/>
      <point x="296" y="188"/>
      <point x="296" y="181" type="curve" smooth="yes"/>
      <point x="296" y="152"/>
      <point x="287" y="140"/>
      <point x="263" y="140" type="curve" smooth="yes"/>
    </contour>
    <contour>
      <point x="190" y="469" type="line"/>
      <point x="176" y="483"/>
      <point x="161" y="497"/>
      <point x="147" y="512" type="curve" smooth="yes"/>
      <point x="129" y="531"/>
      <point x="124" y="552"/>
      <point x="124" y="574" type="curve" smooth="yes"/>
      <point x="124" y="614"/>
      <point x="149" y="646"/>
      <point x="196" y="646" type="curve"/>
    </contour>
  </outline>
</glyph>
<glyph name="percent" format="1">
  <advance width="542"/>
  <unicode hex="0025"/>
  <outline>
    <contour>
      <point x="141" y="8" type="curve" smooth="yes"/>
      <point x="155" y="8"/>
      <point x="158" y="13"/>
      <point x="165" y="35" type="curve" smooth="yes"/>
      <point x="191" y="118"/>
      <point x="214" y="203"/>
      <point x="249" y="282" type="curve" smooth="yes"/>
      <point x="259" y="305"/>
      <point x="269" y="330"/>
      <point x="277" y="354" type="curve" smooth="yes"/>
      <point x="302" y="435"/>
      <point x="334" y="512"/>
      <point x="366" y="589" type="curve" smooth="yes"/>
      <point x="373" y="606"/>
      <point x="382" y="628"/>
      <point x="382" y="643" type="curve" smooth="yes"/>
      <point x="382" y="659"/>
      <point x="372" y="669"/>
      <point x="352" y="670" type="curve"/>
      <point x="347" y="670" type="line" smooth="yes"/>
      <point x="329" y="670"/>
      <point x="313" y="636"/>
      <point x="304" y="614" type="curve" smooth="yes"/>
      <point x="227" y="430"/>
      <point x="156" y="237"/>
      <point x="87" y="46" type="curve" smooth="yes"/>
      <point x="85" y="40"/>
      <point x="84" y="35"/>
      <point x="84" y="31" type="curve" smooth="yes"/>
      <point x="84" y="8"/>
      <point x="120" y="8"/>
    </contour>
    <contour>
      <point x="386" y="33" type="curve" smooth="yes"/>
      <point x="426" y="33"/>
      <point x="466" y="61"/>
      <point x="466" y="122" type="curve" smooth="yes"/>
      <point x="466" y="172"/>
      <point x="414" y="218"/>
      <point x="364" y="218" type="curve" smooth="yes"/>
      <point x="318" y="218"/>
      <point x="316" y="149"/>
      <point x="306" y="104" type="curve"/>
      <point x="308" y="54"/>
      <point x="332" y="33"/>
    </contour>
    <contour>
      <point x="389" y="78" type="curve" smooth="yes"/>
      <point x="363" y="78"/>
      <point x="358" y="93"/>
      <point x="358" y="126" type="curve" smooth="yes"/>
      <point x="358" y="152"/>
      <point x="366" y="166"/>
      <point x="382" y="166" type="curve" smooth="yes"/>
      <point x="406" y="166"/>
      <point x="422" y="142"/>
      <point x="422" y="120" type="curve" smooth="yes"/>
      <point x="422" y="101"/>
      <point x="411" y="78"/>
    </contour>
    <contour>
      <point x="106" y="478" type="curve" smooth="yes"/>
      <point x="146" y="478"/>
      <point x="207" y="525"/>
      <point x="207" y="581" type="curve" smooth="yes"/>
      <point x="207" y="624"/>
      <point x="157" y="679"/>
      <point x="115" y="683" type="curve"/>
      <point x="80" y="683"/>
      <point x="24" y="635"/>
      <point x="24" y="577" type="curve" smooth="yes"/>
      <point x="24" y="523"/>
      <point x="61" y="478"/>
    </contour>
    <contour>
      <point x="110" y="531" type="curve"/>
      <point x="88" y="536"/>
      <point x="76" y="542"/>
      <point x="76" y="561" type="curve" smooth="yes"/>
      <point x="76" y="604"/>
      <point x="104" y="622"/>
      <point x="117" y="622" type="curve" smooth="yes"/>
      <point x="131" y="622"/>
      <point x="164" y="611"/>
      <point x="164" y="581" type="curve"/>
      <point x="162" y="554"/>
      <point x="136" y="531"/>
    </contour>
  </outline>
</glyph>
<glyph name="ampersand" format="1">
  <advance width="565"/>
  <unicode hex="0026"/>
  <outline>
    <contour>
      <point x="465" y="-70" type="curve" smooth="yes"/>
      <point x="469" y="-70"/>
      <point x="472" y="-69"/>
      <point x="475" y="-67" type="curve"/>
      <point x="493" y="-59"/>
      <point x="550" y="-37"/>
      <point x="550" y="-23" type="curve" smooth="yes"/>
      <point x="550" y="-19"/>
      <point x="545" y="-17"/>
      <point x="538" y="-10" type="curve" smooth="yes"/>
      <point x="491" y="40"/>
      <point x="455" y="79"/>
      <point x="428" y="110" type="curve"/>
      <point x="455" y="155"/>
      <point x="479" y="207"/>
      <point x="482" y="245" type="curve"/>
      <point x="482" y="254" type="line" smooth="yes"/>
      <point x="482" y="260"/>
      <point x="481" y="267"/>
      <point x="478" y="270" type="curve"/>
      <point x="458" y="287"/>
      <point x="419" y="295"/>
      <point x="411" y="295" type="curve" smooth="yes"/>
      <point x="405" y="295"/>
      <point x="399" y="293"/>
      <point x="399" y="285" type="curve"/>
      <point x="392" y="264"/>
      <point x="378" y="229"/>
      <point x="360" y="194" type="curve"/>
      <point x="327" y="239"/>
      <point x="311" y="270"/>
      <point x="273" y="332" type="curve" smooth="yes"/>
      <point x="269" y="339"/>
      <point x="258" y="361"/>
      <point x="245" y="389" type="curve"/>
      <point x="253" y="396" type="line" smooth="yes"/>
      <point x="320" y="453"/>
      <point x="385" y="519"/>
      <point x="385" y="603" type="curve" smooth="yes"/>
      <point x="385" y="654"/>
      <point x="364" y="679"/>
      <point x="346" y="707" type="curve" smooth="yes"/>
      <point x="326" y="738"/>
      <point x="291" y="756"/>
      <point x="257" y="756" type="curve" smooth="yes"/>
      <point x="197" y="756"/>
      <point x="90" y="705"/>
      <point x="90" y="569" type="curve" smooth="yes"/>
      <point x="90" y="563"/>
      <point x="90" y="556"/>
      <point x="91" y="549" type="curve"/>
      <point x="93" y="528"/>
      <point x="117" y="456"/>
      <point x="137" y="407" type="curve"/>
      <point x="62" y="332"/>
      <point x="17" y="270"/>
      <point x="17" y="157" type="curve" smooth="yes"/>
      <point x="17" y="35"/>
      <point x="112" y="-28"/>
      <point x="223" y="-28" type="curve" smooth="yes"/>
      <point x="276" y="-28"/>
      <point x="324" y="-9"/>
      <point x="369" y="34" type="curve"/>
      <point x="396" y="-3"/>
      <point x="420" y="-38"/>
      <point x="433" y="-59" type="curve"/>
      <point x="437" y="-64"/>
      <point x="453" y="-70"/>
    </contour>
    <contour>
      <point x="208" y="46" type="curve" smooth="yes"/>
      <point x="159" y="46"/>
      <point x="122" y="98"/>
      <point x="122" y="175" type="curve" smooth="yes"/>
      <point x="122" y="237"/>
      <point x="139" y="279"/>
      <point x="179" y="326" type="curve"/>
      <point x="194" y="302"/>
      <point x="205" y="284"/>
      <point x="232" y="235" type="curve"/>
      <point x="242" y="215"/>
      <point x="275" y="168"/>
      <point x="311" y="116" type="curve"/>
      <point x="281" y="76"/>
      <point x="245" y="46"/>
    </contour>
    <contour>
      <point x="208" y="475" type="curve"/>
      <point x="193" y="512"/>
      <point x="182" y="545"/>
      <point x="181" y="562" type="curve"/>
      <point x="181" y="567"/>
      <point x="180" y="571"/>
      <point x="180" y="576" type="curve" smooth="yes"/>
      <point x="180" y="611"/>
      <point x="199" y="681"/>
      <point x="243" y="681" type="curve" smooth="yes"/>
      <point x="280" y="681"/>
      <point x="296" y="622"/>
      <point x="296" y="593" type="curve" smooth="yes"/>
      <point x="296" y="567"/>
      <point x="279" y="546"/>
      <point x="260" y="527" type="curve" smooth="yes"/>
      <point x="242" y="508"/>
      <point x="224" y="491"/>
    </contour>
  </outline>
</glyph>
<glyph name="quotesingle" format="1">
  <advance width="127"/>
  <unicode hex="0027"/>
  <outline>
    <contour>
      <point x="67" y="570" type="curve"/>
      <point x="78" y="572" type="line" smooth="yes"/>
      <point x="91" y="574"/>
      <point x="94" y="579"/>
      <point x="95" y="591" type="curve" smooth="yes"/>
      <point x="100" y="640"/>
      <point x="99" y="686"/>
      <point x="100" y="732" type="curve" smooth="yes"/>
      <point x="100" y="749"/>
      <point x="103" y="771"/>
      <point x="100" y="789" type="curve" smooth="yes"/>
      <point x="98" y="803"/>
      <point x="72" y="794"/>
      <point x="56" y="792" type="curve"/>
      <point x="54" y="791"/>
      <point x="52" y="791"/>
      <point x="50" y="791" type="curve"/>
      <point x="37" y="788"/>
      <point x="32" y="781"/>
      <point x="34" y="768" type="curve"/>
      <point x="35" y="763"/>
      <point x="36" y="758"/>
      <point x="36" y="753" type="curve"/>
      <point x="37" y="751"/>
      <point x="37" y="749"/>
      <point x="37" y="747" type="curve" smooth="yes"/>
      <point x="37" y="691"/>
      <point x="34" y="639"/>
      <point x="33" y="583" type="curve"/>
      <point x="34" y="576" type="line"/>
      <point x="35" y="566"/>
      <point x="53" y="568"/>
    </contour>
  </outline>
</glyph>
<glyph name="parenleft" format="1">
  <advance width="268"/>
  <unicode hex="0028"/>
  <outline>
    <contour>
      <point x="213" y="-191" type="curve" smooth="yes"/>
      <point x="230" y="-191"/>
      <point x="249" y="-134"/>
      <point x="249" y="-108" type="curve" smooth="yes"/>
      <point x="249" y="-95"/>
      <point x="247" y="-81"/>
      <point x="238" y="-73" type="curve" smooth="yes"/>
      <point x="212" y="-51"/>
      <point x="196" y="-24"/>
      <point x="185" y="2" type="curve" smooth="yes"/>
      <point x="148" y="91"/>
      <point x="125" y="183"/>
      <point x="125" y="279" type="curve" smooth="yes"/>
      <point x="125" y="415"/>
      <point x="138" y="514"/>
      <point x="179" y="629" type="curve" smooth="yes"/>
      <point x="193" y="668"/>
      <point x="234" y="723"/>
      <point x="234" y="744" type="curve" smooth="yes"/>
      <point x="234" y="758"/>
      <point x="187" y="787"/>
      <point x="156" y="787" type="curve" smooth="yes"/>
      <point x="120" y="787"/>
      <point x="64" y="637"/>
      <point x="46" y="574" type="curve"/>
      <point x="23" y="504"/>
      <point x="22" y="434"/>
      <point x="18" y="364" type="curve" smooth="yes"/>
      <point x="17" y="350"/>
      <point x="17" y="337"/>
      <point x="17" y="323" type="curve" smooth="yes"/>
      <point x="17" y="249"/>
      <point x="26" y="177"/>
      <point x="46" y="105" type="curve"/>
      <point x="58" y="49"/>
      <point x="71" y="-6"/>
      <point x="96" y="-58" type="curve" smooth="yes"/>
      <point x="122" y="-112"/>
      <point x="171" y="-191"/>
    </contour>
  </outline>
</glyph>
<glyph name="parenright" format="1">
  <advance width="246"/>
  <unicode hex="0029"/>
  <outline>
    <contour>
      <point x="70" y="-187" type="curve" smooth="yes"/>
      <point x="85" y="-187"/>
      <point x="102" y="-182"/>
      <point x="111" y="-170" type="curve" smooth="yes"/>
      <point x="200" y="-58"/>
      <point x="226" y="75"/>
      <point x="226" y="213" type="curve" smooth="yes"/>
      <point x="226" y="288" type="line" smooth="yes"/>
      <point x="226" y="411"/>
      <point x="212" y="534"/>
      <point x="178" y="654" type="curve" smooth="yes"/>
      <point x="165" y="699"/>
      <point x="136" y="796"/>
      <point x="111" y="796" type="curve" smooth="yes"/>
      <point x="77" y="796"/>
      <point x="26" y="751"/>
      <point x="26" y="724" type="curve" smooth="yes"/>
      <point x="26" y="714"/>
      <point x="28" y="705"/>
      <point x="31" y="695" type="curve" smooth="yes"/>
      <point x="53" y="627"/>
      <point x="83" y="562"/>
      <point x="98" y="494" type="curve" smooth="yes"/>
      <point x="114" y="423"/>
      <point x="121" y="350"/>
      <point x="121" y="279" type="curve" smooth="yes"/>
      <point x="121" y="154"/>
      <point x="106" y="0"/>
      <point x="18" y="-109" type="curve" smooth="yes"/>
      <point x="13" y="-115"/>
      <point x="11" y="-124"/>
      <point x="11" y="-132" type="curve" smooth="yes"/>
      <point x="11" y="-157"/>
      <point x="41" y="-187"/>
    </contour>
  </outline>
</glyph>
<glyph name="asterisk" format="1">
  <advance width="505"/>
  <unicode hex="002A"/>
  <outline>
    <contour>
      <point x="152" y="360" type="curve" smooth="yes"/>
      <point x="172" y="360"/>
      <point x="185" y="371"/>
      <point x="185" y="391" type="curve"/>
      <point x="197" y="435"/>
      <point x="220" y="452"/>
      <point x="229" y="494" type="curve"/>
      <point x="229" y="494"/>
      <point x="242" y="494"/>
      <point x="242" y="504" type="curve"/>
      <point x="242" y="494"/>
      <point x="250" y="494"/>
      <point x="250" y="494" type="curve"/>
      <point x="280" y="454"/>
      <point x="322" y="387"/>
      <point x="344" y="387" type="curve" smooth="yes"/>
      <point x="351" y="387"/>
      <point x="359" y="391"/>
      <point x="374" y="399" type="curve"/>
      <point x="396" y="397"/>
      <point x="397" y="418"/>
      <point x="397" y="427" type="curve"/>
      <point x="385" y="427"/>
      <point x="385" y="437"/>
      <point x="385" y="437" type="curve"/>
      <point x="351" y="482"/>
      <point x="351" y="475"/>
      <point x="328" y="521" type="curve"/>
      <point x="316" y="521"/>
      <point x="316" y="529"/>
      <point x="306" y="540" type="curve"/>
      <point x="337" y="540"/>
      <point x="372" y="540"/>
      <point x="395" y="548" type="curve"/>
      <point x="398" y="548"/>
      <point x="469" y="542"/>
      <point x="469" y="565" type="curve" smooth="yes"/>
      <point x="469" y="593"/>
      <point x="447" y="608"/>
      <point x="413" y="608" type="curve"/>
      <point x="392" y="603"/>
      <point x="385" y="602"/>
      <point x="377" y="602" type="curve" smooth="yes"/>
      <point x="369" y="602"/>
      <point x="325" y="603"/>
      <point x="281" y="603" type="curve"/>
      <point x="306" y="637"/>
      <point x="312" y="621"/>
      <point x="321" y="666" type="curve"/>
      <point x="335" y="685"/>
      <point x="356" y="708"/>
      <point x="368" y="737" type="curve"/>
      <point x="368" y="746"/>
      <point x="368" y="763"/>
      <point x="356" y="763" type="curve" smooth="yes"/>
      <point x="346" y="763"/>
      <point x="321" y="773"/>
      <point x="300" y="773" type="curve"/>
      <point x="292" y="759"/>
      <point x="265" y="733"/>
      <point x="265" y="718" type="curve"/>
      <point x="243" y="675"/>
      <point x="250" y="691"/>
      <point x="229" y="656" type="curve"/>
      <point x="181" y="712"/>
      <point x="209" y="667"/>
      <point x="174" y="712" type="curve"/>
      <point x="160" y="736"/>
      <point x="138" y="752"/>
      <point x="123" y="752" type="curve" smooth="yes"/>
      <point x="121" y="752"/>
      <point x="80" y="729"/>
      <point x="80" y="720" type="curve" smooth="yes"/>
      <point x="80" y="713"/>
      <point x="98" y="695"/>
      <point x="100" y="693" type="curve"/>
      <point x="140" y="641"/>
      <point x="117" y="662"/>
      <point x="163" y="608" type="curve"/>
      <point x="163" y="603"/>
      <point x="173" y="603"/>
      <point x="173" y="594" type="curve"/>
      <point x="153" y="586"/>
      <point x="10" y="601"/>
      <point x="10" y="555" type="curve" smooth="yes"/>
      <point x="10" y="541"/>
      <point x="12" y="518"/>
      <point x="52" y="518" type="curve"/>
      <point x="96" y="529"/>
      <point x="106" y="521"/>
      <point x="139" y="529" type="curve"/>
      <point x="173" y="529" type="line"/>
      <point x="163" y="521"/>
      <point x="163" y="510"/>
      <point x="163" y="504" type="curve"/>
      <point x="139" y="475"/>
      <point x="141" y="465"/>
      <point x="118" y="429" type="curve"/>
      <point x="118" y="419"/>
      <point x="118" y="410"/>
      <point x="107" y="400" type="curve"/>
      <point x="107" y="382"/>
      <point x="108" y="360"/>
    </contour>
  </outline>
</glyph>
<glyph name="plus" format="1">
  <advance width="441"/>
  <unicode hex="002B"/>
  <outline>
    <contour>
      <point x="219" y="73" type="curve" smooth="yes"/>
      <point x="224" y="73"/>
      <point x="229" y="74"/>
      <point x="237" y="75" type="curve"/>
      <point x="288" y="84" type="line"/>
      <point x="288" y="88" type="line" smooth="yes"/>
      <point x="288" y="91"/>
      <point x="288" y="94"/>
      <point x="288" y="97" type="curve" smooth="yes"/>
      <point x="288" y="100" type="line"/>
      <point x="282" y="156"/>
      <point x="275" y="209"/>
      <point x="269" y="261" type="curve"/>
      <point x="321" y="265"/>
      <point x="371" y="269"/>
      <point x="406" y="273" type="curve" smooth="yes"/>
      <point x="422" y="275"/>
      <point x="427" y="279"/>
      <point x="427" y="293" type="curve" smooth="yes"/>
      <point x="427" y="354"/>
      <point x="412" y="369"/>
      <point x="394" y="369" type="curve" smooth="yes"/>
      <point x="376" y="369"/>
      <point x="320" y="359"/>
      <point x="258" y="353" type="curve"/>
      <point x="254" y="399"/>
      <point x="251" y="444"/>
      <point x="251" y="491" type="curve" smooth="yes"/>
      <point x="251" y="496" type="line" smooth="yes"/>
      <point x="251" y="502"/>
      <point x="250" y="508"/>
      <point x="248" y="516" type="curve"/>
      <point x="216" y="512"/>
      <point x="186" y="507"/>
      <point x="156" y="502" type="curve"/>
      <point x="158" y="482" type="line" smooth="yes"/>
      <point x="163" y="426"/>
      <point x="166" y="463"/>
      <point x="177" y="345" type="curve"/>
      <point x="90" y="335" type="line"/>
      <point x="54" y="328"/>
      <point x="18" y="345"/>
      <point x="18" y="292" type="curve" smooth="yes"/>
      <point x="18" y="269"/>
      <point x="31" y="243"/>
      <point x="50" y="243" type="curve" smooth="yes"/>
      <point x="53" y="243"/>
      <point x="57" y="244"/>
      <point x="60" y="244" type="curve" smooth="yes"/>
      <point x="73" y="244" type="line"/>
      <point x="71" y="245" type="line"/>
      <point x="186" y="255" type="line"/>
      <point x="190" y="201"/>
      <point x="196" y="149"/>
      <point x="202" y="97" type="curve" smooth="yes"/>
      <point x="204" y="79"/>
      <point x="207" y="73"/>
    </contour>
  </outline>
</glyph>
<glyph name="comma" format="1">
  <advance width="164"/>
  <unicode hex="002C"/>
  <outline>
    <contour>
      <point x="55" y="-166" type="curve" smooth="yes"/>
      <point x="62" y="-166"/>
      <point x="72" y="-164"/>
      <point x="78" y="-160" type="curve"/>
      <point x="139" y="-111"/>
      <point x="145" y="-70"/>
      <point x="153" y="6" type="curve"/>
      <point x="153" y="30"/>
      <point x="149" y="127"/>
      <point x="119" y="127" type="curve" smooth="yes"/>
      <point x="115" y="127"/>
      <point x="108" y="125"/>
      <point x="102" y="124" type="curve" smooth="yes"/>
      <point x="64" y="117"/>
      <point x="48" y="113"/>
      <point x="48" y="102" type="curve" smooth="yes"/>
      <point x="48" y="98"/>
      <point x="50" y="93"/>
      <point x="54" y="85" type="curve" smooth="yes"/>
      <point x="66" y="60"/>
      <point x="71" y="36"/>
      <point x="71" y="12" type="curve" smooth="yes"/>
      <point x="71" y="-25"/>
      <point x="58" y="-58"/>
      <point x="31" y="-92" type="curve" smooth="yes"/>
      <point x="22" y="-104"/>
      <point x="10" y="-116"/>
      <point x="10" y="-130" type="curve" smooth="yes"/>
      <point x="10" y="-145"/>
      <point x="27" y="-166"/>
    </contour>
  </outline>
</glyph>
<glyph name="hyphen" format="1">
  <advance width="375"/>
  <unicode hex="002D"/>
  <outline>
    <contour>
      <point x="54" y="244" type="curve" smooth="yes"/>
      <point x="60" y="245"/>
      <point x="66" y="244"/>
      <point x="73" y="244" type="curve"/>
      <point x="71" y="245" type="line"/>
      <point x="155" y="253"/>
      <point x="238" y="260"/>
      <point x="321" y="268" type="curve" smooth="yes"/>
      <point x="342" y="270"/>
      <point x="345" y="277"/>
      <point x="341" y="305" type="curve" smooth="yes"/>
      <point x="332" y="367"/>
      <point x="329" y="368"/>
      <point x="283" y="361" type="curve" smooth="yes"/>
      <point x="219" y="352"/>
      <point x="154" y="343"/>
      <point x="90" y="335" type="curve"/>
      <point x="75" y="332"/>
      <point x="58" y="334"/>
      <point x="43" y="331" type="curve"/>
      <point x="23" y="330"/>
      <point x="18" y="319"/>
      <point x="18" y="292" type="curve" smooth="yes"/>
      <point x="18" y="267"/>
      <point x="33" y="240"/>
    </contour>
  </outline>
</glyph>
<glyph name="period" format="1">
  <advance width="173"/>
  <unicode hex="002E"/>
  <outline>
    <contour>
      <point x="96" y="-39" type="curve" smooth="yes"/>
      <point x="127" y="-25"/>
      <point x="147" y="9"/>
      <point x="142" y="43" type="curve" smooth="yes"/>
      <point x="139" y="62"/>
      <point x="129" y="75"/>
      <point x="111" y="82" type="curve"/>
      <point x="93" y="88"/>
      <point x="77" y="86"/>
      <point x="63" y="73" type="curve" smooth="yes"/>
      <point x="44" y="56"/>
      <point x="33" y="34"/>
      <point x="30" y="9" type="curve" smooth="yes"/>
      <point x="26" y="-30"/>
      <point x="60" y="-55"/>
    </contour>
  </outline>
</glyph>
<glyph name="slash" format="1">
  <advance width="420"/>
  <unicode hex="002F"/>
  <outline>
    <contour>
      <point x="85" y="-118" type="curve" smooth="yes"/>
      <point x="104" y="-118"/>
      <point x="107" y="-111"/>
      <point x="116" y="-80" type="curve" smooth="yes"/>
      <point x="149" y="34"/>
      <point x="179" y="152"/>
      <point x="224" y="261" type="curve" smooth="yes"/>
      <point x="237" y="292"/>
      <point x="249" y="327"/>
      <point x="260" y="359" type="curve"/>
      <point x="292" y="472"/>
      <point x="333" y="578"/>
      <point x="374" y="685" type="curve" smooth="yes"/>
      <point x="383" y="709"/>
      <point x="395" y="737"/>
      <point x="395" y="758" type="curve" smooth="yes"/>
      <point x="395" y="782"/>
      <point x="381" y="795"/>
      <point x="357" y="797" type="curve"/>
      <point x="352" y="797" type="line" smooth="yes"/>
      <point x="339" y="797"/>
      <point x="328" y="790"/>
      <point x="321" y="774" type="curve" smooth="yes"/>
      <point x="202" y="508"/>
      <point x="111" y="216"/>
      <point x="16" y="-65" type="curve" smooth="yes"/>
      <point x="13" y="-73"/>
      <point x="12" y="-80"/>
      <point x="12" y="-86" type="curve" smooth="yes"/>
      <point x="12" y="-118"/>
      <point x="60" y="-118"/>
    </contour>
  </outline>
</glyph>
<glyph name="zero" format="1">
  <advance width="456"/>
  <unicode hex="0030"/>
  <outline>
    <contour>
      <point x="231" y="-27" type="curve" smooth="yes"/>
      <point x="274" y="-28"/>
      <point x="344" y="9"/>
      <point x="364" y="56" type="curve" smooth="yes"/>
      <point x="414" y="174"/>
      <point x="432" y="305"/>
      <point x="432" y="448" type="curve" smooth="yes"/>
      <point x="432" y="538"/>
      <point x="422" y="652"/>
      <point x="395" y="726" type="curve" smooth="yes"/>
      <point x="372" y="789"/>
      <point x="301" y="851"/>
      <point x="236" y="851" type="curve" smooth="yes"/>
      <point x="178" y="851"/>
      <point x="131" y="794"/>
      <point x="105" y="741" type="curve" smooth="yes"/>
      <point x="50" y="631"/>
      <point x="25" y="515"/>
      <point x="25" y="383" type="curve"/>
      <point x="23" y="364"/>
      <point x="22" y="343"/>
      <point x="22" y="320" type="curve" smooth="yes"/>
      <point x="22" y="194"/>
      <point x="53" y="30"/>
      <point x="167" y="-10" type="curve"/>
      <point x="188" y="-21"/>
      <point x="210" y="-27"/>
    </contour>
    <contour>
      <point x="223" y="57" type="curve" smooth="yes"/>
      <point x="208" y="57"/>
      <point x="193" y="63"/>
      <point x="182" y="74" type="curve" smooth="yes"/>
      <point x="121" y="134"/>
      <point x="110" y="224"/>
      <point x="110" y="312" type="curve" smooth="yes"/>
      <point x="110" y="388"/>
      <point x="121" y="470"/>
      <point x="127" y="557" type="curve"/>
      <point x="142" y="622"/>
      <point x="168" y="758"/>
      <point x="243" y="758" type="curve" smooth="yes"/>
      <point x="316" y="758"/>
      <point x="331" y="610"/>
      <point x="331" y="511" type="curve" smooth="yes"/>
      <point x="331" y="470"/>
      <point x="329" y="431"/>
      <point x="327" y="401" type="curve"/>
      <point x="316" y="305"/>
      <point x="330" y="208"/>
      <point x="291" y="115" type="curve" smooth="yes"/>
      <point x="279" y="86"/>
      <point x="250" y="57"/>
    </contour>
  </outline>
</glyph>
<glyph name="one" format="1">
  <advance width="353"/>
  <unicode hex="0031"/>
  <outline>
    <contour>
      <point x="239" y="30" type="curve" smooth="yes"/>
      <point x="284" y="30"/>
      <point x="296" y="30"/>
      <point x="296" y="70" type="curve" smooth="yes"/>
      <point x="296" y="74"/>
      <point x="295" y="78"/>
      <point x="295" y="82" type="curve" smooth="yes"/>
      <point x="289" y="283"/>
      <point x="286" y="482"/>
      <point x="281" y="682" type="curve" smooth="yes"/>
      <point x="280" y="717"/>
      <point x="280" y="752"/>
      <point x="278" y="786" type="curve" smooth="yes"/>
      <point x="276" y="811"/>
      <point x="272" y="819"/>
      <point x="253" y="819" type="curve" smooth="yes"/>
      <point x="219" y="819"/>
      <point x="185" y="812"/>
      <point x="151" y="810" type="curve" smooth="yes"/>
      <point x="123" y="808"/>
      <point x="110" y="773"/>
      <point x="97" y="749" type="curve" smooth="yes"/>
      <point x="78" y="716"/>
      <point x="31" y="651"/>
      <point x="31" y="630" type="curve" smooth="yes"/>
      <point x="31" y="617"/>
      <point x="88" y="588"/>
      <point x="104" y="588" type="curve" smooth="yes"/>
      <point x="115" y="588"/>
      <point x="140" y="619"/>
      <point x="162" y="644" type="curve"/>
      <point x="163" y="635"/>
      <point x="164" y="631"/>
      <point x="164" y="628" type="curve"/>
      <point x="175" y="435"/>
      <point x="182" y="243"/>
      <point x="193" y="49" type="curve" smooth="yes"/>
      <point x="194" y="28"/>
      <point x="198" y="30"/>
    </contour>
  </outline>
</glyph>
<glyph name="two" format="1">
  <advance width="505"/>
  <unicode hex="0032"/>
  <outline>
    <contour>
      <point x="106" y="-2" type="curve" smooth="yes"/>
      <point x="114" y="-2" type="line"/>
      <point x="199" y="8"/>
      <point x="287" y="11"/>
      <point x="372" y="16" type="curve" smooth="yes"/>
      <point x="410" y="18"/>
      <point x="473" y="12"/>
      <point x="473" y="53" type="curve" smooth="yes"/>
      <point x="473" y="99"/>
      <point x="480" y="126"/>
      <point x="432" y="126" type="curve"/>
      <point x="363" y="120"/>
      <point x="297" y="116"/>
      <point x="225" y="109" type="curve"/>
      <point x="227" y="115"/>
      <point x="227" y="118"/>
      <point x="228" y="119" type="curve"/>
      <point x="264" y="183"/>
      <point x="292" y="250"/>
      <point x="316" y="321" type="curve" smooth="yes"/>
      <point x="346" y="409"/>
      <point x="377" y="496"/>
      <point x="393" y="589" type="curve" smooth="yes"/>
      <point x="396" y="605"/>
      <point x="397" y="620"/>
      <point x="397" y="636" type="curve" smooth="yes"/>
      <point x="397" y="678"/>
      <point x="386" y="718"/>
      <point x="363" y="755" type="curve" smooth="yes"/>
      <point x="337" y="795"/>
      <point x="291" y="805"/>
      <point x="252" y="805" type="curve" smooth="yes"/>
      <point x="169" y="805"/>
      <point x="80" y="728"/>
      <point x="35" y="649" type="curve" smooth="yes"/>
      <point x="31" y="642"/>
      <point x="29" y="638"/>
      <point x="29" y="634" type="curve" smooth="yes"/>
      <point x="29" y="620"/>
      <point x="61" y="581"/>
      <point x="77" y="581" type="curve" smooth="yes"/>
      <point x="84" y="581"/>
      <point x="91" y="586"/>
      <point x="98" y="595" type="curve" smooth="yes"/>
      <point x="135" y="640"/>
      <point x="191" y="722"/>
      <point x="260" y="722" type="curve" smooth="yes"/>
      <point x="286" y="722"/>
      <point x="299" y="700"/>
      <point x="299" y="673" type="curve"/>
      <point x="300" y="574"/>
      <point x="285" y="476"/>
      <point x="246" y="392" type="curve" smooth="yes"/>
      <point x="205" y="303"/>
      <point x="177" y="211"/>
      <point x="129" y="126" type="curve" smooth="yes"/>
      <point x="111" y="94"/>
      <point x="104" y="60"/>
      <point x="88" y="26" type="curve" smooth="yes"/>
      <point x="86" y="22"/>
      <point x="84" y="17"/>
      <point x="84" y="14" type="curve" smooth="yes"/>
      <point x="84" y="5"/>
      <point x="93" y="-2"/>
    </contour>
  </outline>
</glyph>
<glyph name="three" format="1">
  <advance width="469"/>
  <unicode hex="0033"/>
  <outline>
    <contour>
      <point x="192" y="-17" type="curve" smooth="yes"/>
      <point x="235" y="-17"/>
      <point x="301" y="1"/>
      <point x="331" y="40" type="curve"/>
      <point x="385" y="100"/>
      <point x="424" y="140"/>
      <point x="424" y="272" type="curve" smooth="yes"/>
      <point x="424" y="310"/>
      <point x="413" y="440"/>
      <point x="342" y="456" type="curve"/>
      <point x="339" y="459" type="line"/>
      <point x="388" y="508"/>
      <point x="429" y="556"/>
      <point x="429" y="633" type="curve" smooth="yes"/>
      <point x="429" y="764"/>
      <point x="366" y="827"/>
      <point x="280" y="827" type="curve" smooth="yes"/>
      <point x="187" y="827"/>
      <point x="117" y="774"/>
      <point x="65" y="678" type="curve" smooth="yes"/>
      <point x="61" y="670"/>
      <point x="58" y="659"/>
      <point x="58" y="651" type="curve" smooth="yes"/>
      <point x="58" y="634"/>
      <point x="107" y="617"/>
      <point x="122" y="617" type="curve" smooth="yes"/>
      <point x="127" y="617"/>
      <point x="131" y="619"/>
      <point x="135" y="625" type="curve" smooth="yes"/>
      <point x="168" y="676"/>
      <point x="207" y="752"/>
      <point x="270" y="752" type="curve" smooth="yes"/>
      <point x="312" y="752"/>
      <point x="340" y="713"/>
      <point x="340" y="664" type="curve" smooth="yes"/>
      <point x="340" y="652"/>
      <point x="338" y="639"/>
      <point x="335" y="627" type="curve" smooth="yes"/>
      <point x="314" y="550"/>
      <point x="287" y="492"/>
      <point x="199" y="473" type="curve" smooth="yes"/>
      <point x="182" y="469"/>
      <point x="182" y="467"/>
      <point x="179" y="448" type="curve"/>
      <point x="176" y="434"/>
      <point x="170" y="416"/>
      <point x="170" y="407" type="curve" smooth="yes"/>
      <point x="170" y="401"/>
      <point x="176" y="394"/>
      <point x="182" y="394" type="curve" smooth="yes"/>
      <point x="185" y="394"/>
      <point x="188" y="395"/>
      <point x="191" y="397" type="curve"/>
      <point x="214" y="407"/>
      <point x="237" y="409"/>
      <point x="260" y="409" type="curve" smooth="yes"/>
      <point x="321" y="409"/>
      <point x="323" y="351"/>
      <point x="329" y="289" type="curve" smooth="yes"/>
      <point x="331" y="272"/>
      <point x="331" y="256"/>
      <point x="331" y="239" type="curve" smooth="yes"/>
      <point x="331" y="188"/>
      <point x="305" y="115"/>
      <point x="220" y="80" type="curve" smooth="yes"/>
      <point x="211" y="76"/>
      <point x="203" y="74"/>
      <point x="197" y="74" type="curve" smooth="yes"/>
      <point x="173" y="74"/>
      <point x="133" y="120"/>
      <point x="128" y="170" type="curve" smooth="yes"/>
      <point x="123" y="209"/>
      <point x="124" y="275"/>
      <point x="99" y="275" type="curve" smooth="yes"/>
      <point x="64" y="275"/>
      <point x="33" y="270"/>
      <point x="33" y="239" type="curve" smooth="yes"/>
      <point x="33" y="231"/>
      <point x="35" y="222"/>
      <point x="35" y="215" type="curve"/>
      <point x="40" y="106"/>
      <point x="95" y="-17"/>
    </contour>
  </outline>
</glyph>
<glyph name="four" format="1">
  <advance width="514"/>
  <unicode hex="0034"/>
  <outline>
    <contour>
      <point x="360" y="6" type="curve" smooth="yes"/>
      <point x="381" y="6"/>
      <point x="389" y="15"/>
      <point x="389" y="35" type="curve" smooth="yes"/>
      <point x="389" y="140"/>
      <point x="385" y="240"/>
      <point x="385" y="346" type="curve"/>
      <point x="411" y="355"/>
      <point x="444" y="357"/>
      <point x="473" y="361" type="curve" smooth="yes"/>
      <point x="497" y="364"/>
      <point x="494" y="403"/>
      <point x="494" y="425" type="curve" smooth="yes"/>
      <point x="494" y="438"/>
      <point x="490" y="443"/>
      <point x="480" y="443" type="curve" smooth="yes"/>
      <point x="455" y="443"/>
      <point x="431" y="438"/>
      <point x="407" y="438" type="curve" smooth="yes"/>
      <point x="377" y="438"/>
      <point x="382" y="448"/>
      <point x="382" y="467" type="curve" smooth="yes"/>
      <point x="382" y="524" type="line" smooth="yes"/>
      <point x="382" y="584"/>
      <point x="377" y="643"/>
      <point x="377" y="702" type="curve" smooth="yes"/>
      <point x="377" y="734"/>
      <point x="380" y="767"/>
      <point x="380" y="799" type="curve" smooth="yes"/>
      <point x="380" y="815"/>
      <point x="375" y="822"/>
      <point x="364" y="822" type="curve" smooth="yes"/>
      <point x="300" y="822"/>
      <point x="279" y="816"/>
      <point x="279" y="775" type="curve" smooth="yes"/>
      <point x="279" y="666"/>
      <point x="284" y="557"/>
      <point x="287" y="450" type="curve"/>
      <point x="287" y="444"/>
      <point x="286" y="439"/>
      <point x="285" y="432" type="curve"/>
      <point x="138" y="417" type="line"/>
      <point x="137" y="423"/>
      <point x="137" y="427"/>
      <point x="137" y="432" type="curve" smooth="yes"/>
      <point x="136" y="526"/>
      <point x="132" y="620"/>
      <point x="132" y="714" type="curve" smooth="yes"/>
      <point x="132" y="745"/>
      <point x="139" y="795"/>
      <point x="111" y="795" type="curve" smooth="yes"/>
      <point x="77" y="795"/>
      <point x="33" y="791"/>
      <point x="33" y="749" type="curve" smooth="yes"/>
      <point x="33" y="617"/>
      <point x="42" y="482"/>
      <point x="52" y="350" type="curve" smooth="yes"/>
      <point x="53" y="331"/>
      <point x="63" y="320"/>
      <point x="79" y="320" type="curve" smooth="yes"/>
      <point x="81" y="320"/>
      <point x="83" y="321"/>
      <point x="85" y="321" type="curve"/>
      <point x="153" y="329"/>
      <point x="218" y="337"/>
      <point x="283" y="341" type="curve"/>
      <point x="289" y="341"/>
      <point x="295" y="124"/>
      <point x="295" y="85" type="curve" smooth="yes"/>
      <point x="295" y="8"/>
      <point x="293" y="6"/>
    </contour>
  </outline>
</glyph>
<glyph name="five" format="1">
  <advance width="441"/>
  <unicode hex="0035"/>
  <outline>
    <contour>
      <point x="194" y="-19" type="curve" smooth="yes"/>
      <point x="282" y="-19"/>
      <point x="360" y="42"/>
      <point x="388" y="141" type="curve" smooth="yes"/>
      <point x="402" y="190"/>
      <point x="414" y="236"/>
      <point x="414" y="288" type="curve" smooth="yes"/>
      <point x="414" y="348"/>
      <point x="405" y="405"/>
      <point x="383" y="459" type="curve"/>
      <point x="349" y="527"/>
      <point x="287" y="559"/>
      <point x="235" y="559" type="curve" smooth="yes"/>
      <point x="204" y="559"/>
      <point x="183" y="547"/>
      <point x="147" y="535" type="curve"/>
      <point x="147" y="583"/>
      <point x="143" y="609"/>
      <point x="142" y="653" type="curve" smooth="yes"/>
      <point x="142" y="670" type="line" smooth="yes"/>
      <point x="142" y="673"/>
      <point x="142" y="676"/>
      <point x="142" y="680" type="curve" smooth="yes"/>
      <point x="142" y="699"/>
      <point x="162" y="701"/>
      <point x="175" y="701" type="curve"/>
      <point x="217" y="704"/>
      <point x="344" y="728"/>
      <point x="344" y="750" type="curve" smooth="yes"/>
      <point x="344" y="759" type="line" smooth="yes"/>
      <point x="344" y="770"/>
      <point x="345" y="788"/>
      <point x="345" y="799" type="curve" smooth="yes"/>
      <point x="345" y="829"/>
      <point x="342" y="840"/>
      <point x="324" y="840" type="curve" smooth="yes"/>
      <point x="320" y="840"/>
      <point x="315" y="839"/>
      <point x="310" y="839" type="curve"/>
      <point x="230" y="825"/>
      <point x="150" y="807"/>
      <point x="70" y="799" type="curve" smooth="yes"/>
      <point x="43" y="796"/>
      <point x="47" y="794"/>
      <point x="45" y="767" type="curve"/>
      <point x="45" y="698"/>
      <point x="51" y="629"/>
      <point x="51" y="560" type="curve" smooth="yes"/>
      <point x="51" y="457" type="line" smooth="yes"/>
      <point x="51" y="435"/>
      <point x="41" y="360"/>
      <point x="72" y="360" type="curve" smooth="yes"/>
      <point x="85" y="360"/>
      <point x="96" y="366"/>
      <point x="101" y="377" type="curve"/>
      <point x="133" y="426"/>
      <point x="173" y="470"/>
      <point x="231" y="470" type="curve" smooth="yes"/>
      <point x="299" y="470"/>
      <point x="324" y="398"/>
      <point x="324" y="319" type="curve" smooth="yes"/>
      <point x="324" y="169"/>
      <point x="247" y="82"/>
      <point x="205" y="82" type="curve" smooth="yes"/>
      <point x="160" y="82"/>
      <point x="135" y="184"/>
      <point x="124" y="255" type="curve"/>
      <point x="121" y="269"/>
      <point x="119" y="274"/>
      <point x="110" y="274" type="curve" smooth="yes"/>
      <point x="101" y="274"/>
      <point x="56" y="266"/>
      <point x="40" y="263" type="curve"/>
      <point x="28" y="260"/>
      <point x="27" y="257"/>
      <point x="27" y="243" type="curve" smooth="yes"/>
      <point x="27" y="222"/>
      <point x="30" y="201"/>
      <point x="31" y="180" type="curve" smooth="yes"/>
      <point x="37" y="77"/>
      <point x="109" y="-19"/>
    </contour>
  </outline>
</glyph>
<glyph name="six" format="1">
  <advance width="464"/>
  <unicode hex="0036"/>
  <outline>
    <contour>
      <point x="207" y="-33" type="curve" smooth="yes"/>
      <point x="306" y="-33"/>
      <point x="448" y="125"/>
      <point x="448" y="316" type="curve" smooth="yes"/>
      <point x="448" y="401"/>
      <point x="412" y="521"/>
      <point x="324" y="521" type="curve" smooth="yes"/>
      <point x="201" y="521"/>
      <point x="151" y="406"/>
      <point x="105" y="299" type="curve"/>
      <point x="102" y="301" type="line"/>
      <point x="114" y="406"/>
      <point x="133" y="506"/>
      <point x="154" y="607" type="curve" smooth="yes"/>
      <point x="170" y="683"/>
      <point x="175" y="718"/>
      <point x="204" y="788" type="curve" smooth="yes"/>
      <point x="208" y="797"/>
      <point x="211" y="809"/>
      <point x="211" y="816" type="curve" smooth="yes"/>
      <point x="211" y="835"/>
      <point x="165" y="833"/>
      <point x="142" y="833" type="curve" smooth="yes"/>
      <point x="125" y="833"/>
      <point x="118" y="826"/>
      <point x="112" y="804" type="curve" smooth="yes"/>
      <point x="64" y="630"/>
      <point x="15" y="454"/>
      <point x="15" y="252" type="curve" smooth="yes"/>
      <point x="15" y="119"/>
      <point x="86" y="-33"/>
    </contour>
    <contour>
      <point x="215" y="53" type="curve" smooth="yes"/>
      <point x="177" y="53"/>
      <point x="153" y="120"/>
      <point x="153" y="156" type="curve" smooth="yes"/>
      <point x="153" y="213"/>
      <point x="162" y="248"/>
      <point x="191" y="300" type="curve" smooth="yes"/>
      <point x="218" y="349"/>
      <point x="258" y="420"/>
      <point x="316" y="420" type="curve" smooth="yes"/>
      <point x="327" y="420" type="line"/>
      <point x="346" y="398"/>
      <point x="353" y="372"/>
      <point x="353" y="344" type="curve" smooth="yes"/>
      <point x="353" y="284"/>
      <point x="321" y="214"/>
      <point x="308" y="160" type="curve"/>
      <point x="286" y="119"/>
      <point x="264" y="53"/>
    </contour>
  </outline>
</glyph>
<glyph name="seven" format="1">
  <advance width="445"/>
  <unicode hex="0037"/>
  <outline>
    <contour>
      <point x="109" y="-40" type="curve" smooth="yes"/>
      <point x="128" y="-40"/>
      <point x="176" y="-36"/>
      <point x="198" y="-34" type="curve"/>
      <point x="200" y="-27"/>
      <point x="202" y="-22"/>
      <point x="204" y="-16" type="curve"/>
      <point x="269" y="241"/>
      <point x="344" y="519"/>
      <point x="419" y="782" type="curve"/>
      <point x="420" y="785"/>
      <point x="420" y="788"/>
      <point x="420" y="790" type="curve" smooth="yes"/>
      <point x="420" y="799"/>
      <point x="415" y="804"/>
      <point x="405" y="804" type="curve" smooth="yes"/>
      <point x="251" y="800"/>
      <point x="158" y="790"/>
      <point x="34" y="786" type="curve" smooth="yes"/>
      <point x="10" y="786"/>
      <point x="12" y="751"/>
      <point x="12" y="730" type="curve" smooth="yes"/>
      <point x="12" y="717"/>
      <point x="14" y="703"/>
      <point x="16" y="688" type="curve"/>
      <point x="120" y="695"/>
      <point x="149" y="699"/>
      <point x="245" y="699" type="curve" smooth="yes"/>
      <point x="288" y="699" type="line"/>
      <point x="221" y="433"/>
      <point x="147" y="195"/>
      <point x="104" y="6" type="curve"/>
      <point x="102" y="-6"/>
      <point x="97" y="-17"/>
      <point x="97" y="-29" type="curve" smooth="yes"/>
      <point x="97" y="-37"/>
      <point x="101" y="-40"/>
    </contour>
  </outline>
</glyph>
<glyph name="eight" format="1">
  <advance width="469"/>
  <unicode hex="0038"/>
  <outline>
    <contour>
      <point x="228" y="-23" type="curve" smooth="yes"/>
      <point x="342" y="-23"/>
      <point x="451" y="88"/>
      <point x="451" y="251" type="curve" smooth="yes"/>
      <point x="451" y="402"/>
      <point x="389" y="462"/>
      <point x="306" y="506" type="curve"/>
      <point x="306" y="510"/>
      <point x="310" y="512"/>
      <point x="313" y="515" type="curve"/>
      <point x="375" y="570"/>
      <point x="391" y="580"/>
      <point x="391" y="666" type="curve" smooth="yes"/>
      <point x="391" y="757"/>
      <point x="333" y="848"/>
      <point x="260" y="848" type="curve" smooth="yes"/>
      <point x="197" y="848"/>
      <point x="91" y="786"/>
      <point x="91" y="639" type="curve" smooth="yes"/>
      <point x="91" y="575"/>
      <point x="121" y="549"/>
      <point x="167" y="511" type="curve"/>
      <point x="147" y="486"/>
      <point x="109" y="464"/>
      <point x="92" y="439" type="curve" smooth="yes"/>
      <point x="45" y="368"/>
      <point x="17" y="261"/>
      <point x="17" y="183" type="curve" smooth="yes"/>
      <point x="17" y="41"/>
      <point x="125" y="-23"/>
    </contour>
    <contour>
      <point x="214" y="59" type="curve" smooth="yes"/>
      <point x="163" y="59"/>
      <point x="125" y="115"/>
      <point x="124" y="202" type="curve"/>
      <point x="126" y="220"/>
      <point x="128" y="249"/>
      <point x="131" y="277" type="curve"/>
      <point x="146" y="325"/>
      <point x="169" y="450"/>
      <point x="258" y="450" type="curve" smooth="yes"/>
      <point x="302" y="450"/>
      <point x="347" y="352"/>
      <point x="347" y="277" type="curve" smooth="yes"/>
      <point x="347" y="216"/>
      <point x="318" y="59"/>
    </contour>
    <contour>
      <point x="234" y="564" type="curve" smooth="yes"/>
      <point x="200" y="564"/>
      <point x="183" y="597"/>
      <point x="183" y="648" type="curve" smooth="yes"/>
      <point x="183" y="687"/>
      <point x="204" y="764"/>
      <point x="248" y="764" type="curve" smooth="yes"/>
      <point x="262" y="764"/>
      <point x="302" y="743"/>
      <point x="302" y="665" type="curve" smooth="yes"/>
      <point x="302" y="661"/>
      <point x="303" y="657"/>
      <point x="303" y="653" type="curve" smooth="yes"/>
      <point x="303" y="611"/>
      <point x="271" y="564"/>
    </contour>
  </outline>
</glyph>
<glyph name="nine" format="1">
  <advance width="450"/>
  <unicode hex="0039"/>
  <outline>
    <contour>
      <point x="296" y="-28" type="curve" smooth="yes"/>
      <point x="309" y="-28"/>
      <point x="351" y="-26"/>
      <point x="368" y="-23" type="curve" smooth="yes"/>
      <point x="388" y="-20"/>
      <point x="383" y="16"/>
      <point x="383" y="33" type="curve"/>
      <point x="381" y="65"/>
      <point x="378" y="96"/>
      <point x="378" y="127" type="curve" smooth="yes"/>
      <point x="378" y="185"/>
      <point x="387" y="161"/>
      <point x="390" y="219" type="curve" smooth="yes"/>
      <point x="395" y="329"/>
      <point x="404" y="439"/>
      <point x="411" y="549" type="curve" smooth="yes"/>
      <point x="415" y="627"/>
      <point x="426" y="707"/>
      <point x="426" y="785" type="curve" smooth="yes"/>
      <point x="426" y="839"/>
      <point x="349" y="853"/>
      <point x="285" y="853" type="curve" smooth="yes"/>
      <point x="275" y="853"/>
      <point x="265" y="852"/>
      <point x="258" y="851" type="curve"/>
      <point x="138" y="825"/>
      <point x="8" y="769"/>
      <point x="8" y="605" type="curve" smooth="yes"/>
      <point x="8" y="533"/>
      <point x="43" y="474"/>
      <point x="127" y="474" type="curve" smooth="yes"/>
      <point x="189" y="474"/>
      <point x="246" y="510"/>
      <point x="285" y="551" type="curve" smooth="yes"/>
      <point x="294" y="560"/>
      <point x="302" y="584"/>
      <point x="311" y="593" type="curve"/>
      <point x="317" y="586"/>
      <point x="316" y="568"/>
      <point x="316" y="556" type="curve" smooth="yes"/>
      <point x="316" y="550"/>
      <point x="316" y="545"/>
      <point x="315" y="539" type="curve"/>
      <point x="301" y="336"/>
      <point x="276" y="183"/>
      <point x="276" y="27" type="curve" smooth="yes"/>
      <point x="276" y="-11"/>
      <point x="279" y="-28"/>
    </contour>
    <contour>
      <point x="146" y="566" type="curve" smooth="yes"/>
      <point x="118" y="566"/>
      <point x="94" y="570"/>
      <point x="94" y="598" type="curve" smooth="yes"/>
      <point x="94" y="649"/>
      <point x="126" y="691"/>
      <point x="166" y="720" type="curve" smooth="yes"/>
      <point x="204" y="748"/>
      <point x="247" y="777"/>
      <point x="295" y="782" type="curve"/>
      <point x="302" y="782" type="line" smooth="yes"/>
      <point x="320" y="782"/>
      <point x="326" y="777"/>
      <point x="326" y="764" type="curve" smooth="yes"/>
      <point x="326" y="738"/>
      <point x="227" y="566"/>
    </contour>
  </outline>
</glyph>
<glyph name="colon" format="1">
  <advance width="225"/>
  <unicode hex="003A"/>
  <outline>
    <contour>
      <point x="95" y="466" type="curve" smooth="yes"/>
      <point x="133" y="466"/>
      <point x="164" y="506"/>
      <point x="164" y="542" type="curve" smooth="yes"/>
      <point x="164" y="570"/>
      <point x="146" y="595"/>
      <point x="114" y="595" type="curve" smooth="yes"/>
      <point x="80" y="595"/>
      <point x="55" y="552"/>
      <point x="51" y="519" type="curve"/>
      <point x="51" y="488"/>
      <point x="66" y="466"/>
    </contour>
    <contour>
      <point x="102" y="-6" type="curve" smooth="yes"/>
      <point x="130" y="-6"/>
      <point x="158" y="26"/>
      <point x="159" y="56" type="curve" smooth="yes"/>
      <point x="159" y="80"/>
      <point x="136" y="115"/>
      <point x="107" y="115" type="curve" smooth="yes"/>
      <point x="75" y="115"/>
      <point x="54" y="76"/>
      <point x="54" y="49" type="curve" smooth="yes"/>
      <point x="54" y="17"/>
      <point x="76" y="-6"/>
    </contour>
  </outline>
</glyph>
<glyph name="semicolon" format="1">
  <advance width="175"/>
  <unicode hex="003B"/>
  <outline>
    <contour>
      <point x="87" y="-166" type="curve" smooth="yes"/>
      <point x="92" y="-166"/>
      <point x="100" y="-164"/>
      <point x="104" y="-160" type="curve" smooth="yes"/>
      <point x="150" y="-111"/>
      <point x="161" y="-67"/>
      <point x="161" y="6" type="curve" smooth="yes"/>
      <point x="161" y="28"/>
      <point x="158" y="127"/>
      <point x="135" y="127" type="curve" smooth="yes"/>
      <point x="98" y="127"/>
      <point x="52" y="107"/>
      <point x="52" y="102" type="curve" smooth="yes"/>
      <point x="52" y="98"/>
      <point x="53" y="93"/>
      <point x="56" y="85" type="curve" smooth="yes"/>
      <point x="65" y="60"/>
      <point x="69" y="36"/>
      <point x="69" y="12" type="curve" smooth="yes"/>
      <point x="69" y="-25"/>
      <point x="59" y="-58"/>
      <point x="39" y="-92" type="curve" smooth="yes"/>
      <point x="32" y="-104"/>
      <point x="23" y="-116"/>
      <point x="23" y="-130" type="curve" smooth="yes"/>
      <point x="23" y="-145"/>
      <point x="66" y="-166"/>
    </contour>
    <contour>
      <point x="80" y="405" type="curve" smooth="yes"/>
      <point x="107" y="405"/>
      <point x="129" y="428"/>
      <point x="129" y="461" type="curve"/>
      <point x="125" y="490"/>
      <point x="115" y="518"/>
      <point x="81" y="518" type="curve" smooth="yes"/>
      <point x="55" y="518"/>
      <point x="34" y="481"/>
      <point x="34" y="453" type="curve" smooth="yes"/>
      <point x="34" y="426"/>
      <point x="51" y="405"/>
    </contour>
  </outline>
</glyph>
<glyph name="equal" format="1">
  <advance width="377"/>
  <unicode hex="003D"/>
  <outline>
    <contour>
      <point x="50" y="243" type="curve" smooth="yes"/>
      <point x="59" y="243" type="line" smooth="yes"/>
      <point x="79" y="243"/>
      <point x="104" y="247"/>
      <point x="321" y="268" type="curve" smooth="yes"/>
      <point x="337" y="270"/>
      <point x="342" y="273"/>
      <point x="342" y="288" type="curve" smooth="yes"/>
      <point x="342" y="349"/>
      <point x="327" y="364"/>
      <point x="309" y="364" type="curve" smooth="yes"/>
      <point x="303" y="364"/>
      <point x="294" y="363"/>
      <point x="283" y="361" type="curve"/>
      <point x="219" y="352"/>
      <point x="154" y="343"/>
      <point x="90" y="335" type="curve"/>
      <point x="54" y="328"/>
      <point x="18" y="345"/>
      <point x="18" y="292" type="curve" smooth="yes"/>
      <point x="18" y="269"/>
      <point x="31" y="243"/>
    </contour>
    <contour>
      <point x="45" y="417" type="curve" smooth="yes"/>
      <point x="48" y="417"/>
      <point x="63" y="417"/>
      <point x="66" y="419" type="curve"/>
      <point x="150" y="427"/>
      <point x="229" y="420"/>
      <point x="312" y="428" type="curve" smooth="yes"/>
      <point x="332" y="430"/>
      <point x="332" y="437"/>
      <point x="332" y="465" type="curve" smooth="yes"/>
      <point x="332" y="504"/>
      <point x="325" y="521"/>
      <point x="294" y="521" type="curve" smooth="yes"/>
      <point x="258" y="521"/>
      <point x="232" y="515"/>
      <point x="210" y="515" type="curve" smooth="yes"/>
      <point x="202" y="515"/>
      <point x="195" y="516"/>
      <point x="187" y="516" type="curve"/>
      <point x="169" y="515"/>
      <point x="150" y="516"/>
      <point x="125" y="512" type="curve" smooth="yes"/>
      <point x="110" y="510"/>
      <point x="13" y="514"/>
      <point x="13" y="466" type="curve" smooth="yes"/>
      <point x="13" y="443"/>
      <point x="26" y="417"/>
    </contour>
  </outline>
</glyph>
<glyph name="question" format="1">
  <advance width="544"/>
  <unicode hex="003F"/>
  <outline>
    <contour>
      <point x="176" y="69" type="curve" smooth="yes"/>
      <point x="191" y="69"/>
      <point x="221" y="69"/>
      <point x="235" y="70" type="curve"/>
      <point x="249" y="72"/>
      <point x="254" y="78"/>
      <point x="255" y="92" type="curve"/>
      <point x="259" y="122"/>
      <point x="264" y="152"/>
      <point x="267" y="183" type="curve" smooth="yes"/>
      <point x="272" y="248"/>
      <point x="295" y="307"/>
      <point x="331" y="361" type="curve" smooth="yes"/>
      <point x="350" y="391"/>
      <point x="372" y="419"/>
      <point x="392" y="449" type="curve"/>
      <point x="426" y="496"/>
      <point x="448" y="548"/>
      <point x="447" y="609" type="curve"/>
      <point x="451" y="633"/>
      <point x="444" y="657"/>
      <point x="437" y="680" type="curve" smooth="yes"/>
      <point x="424" y="725"/>
      <point x="404" y="764"/>
      <point x="362" y="789" type="curve" smooth="yes"/>
      <point x="343" y="800"/>
      <point x="308" y="804"/>
      <point x="288" y="808" type="curve" smooth="yes"/>
      <point x="255" y="815"/>
      <point x="224" y="810"/>
      <point x="194" y="799" type="curve" smooth="yes"/>
      <point x="161" y="787"/>
      <point x="131" y="769"/>
      <point x="102" y="748" type="curve" smooth="yes"/>
      <point x="87" y="737"/>
      <point x="75" y="722"/>
      <point x="62" y="708" type="curve" smooth="yes"/>
      <point x="54" y="699"/>
      <point x="51" y="686"/>
      <point x="59" y="678" type="curve"/>
      <point x="73" y="662"/>
      <point x="103" y="633"/>
      <point x="119" y="619" type="curve"/>
      <point x="125" y="613"/>
      <point x="132" y="616"/>
      <point x="137" y="622" type="curve"/>
      <point x="140" y="626"/>
      <point x="141" y="630"/>
      <point x="144" y="634" type="curve"/>
      <point x="157" y="659"/>
      <point x="172" y="676"/>
      <point x="198" y="689" type="curve" smooth="yes"/>
      <point x="226" y="703"/>
      <point x="242" y="717"/>
      <point x="275" y="716" type="curve" smooth="yes"/>
      <point x="279" y="716"/>
      <point x="283" y="714"/>
      <point x="287" y="715" type="curve"/>
      <point x="307" y="717"/>
      <point x="319" y="705"/>
      <point x="328" y="690" type="curve" smooth="yes"/>
      <point x="350" y="656"/>
      <point x="356" y="629"/>
      <point x="353" y="590" type="curve"/>
      <point x="352" y="561"/>
      <point x="339" y="540"/>
      <point x="321" y="520" type="curve"/>
      <point x="319" y="517"/>
      <point x="317" y="515"/>
      <point x="314" y="512" type="curve" smooth="yes"/>
      <point x="252" y="450"/>
      <point x="215" y="373"/>
      <point x="195" y="289" type="curve" smooth="yes"/>
      <point x="180" y="230"/>
      <point x="172" y="169"/>
      <point x="162" y="109" type="curve"/>
      <point x="160" y="100"/>
      <point x="162" y="90"/>
      <point x="163" y="80" type="curve"/>
      <point x="164" y="73"/>
      <point x="169" y="69"/>
    </contour>
    <contour>
      <point x="200" y="-117" type="curve" smooth="yes"/>
      <point x="224" y="-118"/>
      <point x="245" y="-101"/>
      <point x="250" y="-74" type="curve" smooth="yes"/>
      <point x="255" y="-44"/>
      <point x="233" y="-18"/>
      <point x="198" y="-16" type="curve" smooth="yes"/>
      <point x="169" y="-15"/>
      <point x="148" y="-35"/>
      <point x="148" y="-65" type="curve" smooth="yes"/>
      <point x="148" y="-93"/>
      <point x="169" y="-115"/>
    </contour>
  </outline>
</glyph>
<glyph name="at" format="1">
  <advance width="876"/>
  <unicode hex="0040"/>
  <outline>
    <contour>
      <point x="272" y="-52" type="curve" smooth="yes"/>
      <point x="368" y="-49"/>
      <point x="503" y="-36"/>
      <point x="502" y="-17" type="curve" smooth="yes"/>
      <point x="501" y="9"/>
      <point x="503" y="57"/>
      <point x="480" y="57" type="curve" smooth="yes"/>
      <point x="446" y="57"/>
      <point x="365" y="40"/>
      <point x="316" y="41" type="curve" smooth="yes"/>
      <point x="125" y="43"/>
      <point x="113" y="154"/>
      <point x="113" y="293" type="curve" smooth="yes"/>
      <point x="113" y="516"/>
      <point x="276" y="592"/>
      <point x="419" y="638" type="curve" smooth="yes"/>
      <point x="481" y="658"/>
      <point x="649" y="636"/>
      <point x="686" y="589" type="curve" smooth="yes"/>
      <point x="710" y="558"/>
      <point x="714" y="524"/>
      <point x="721" y="490" type="curve"/>
      <point x="735" y="407"/>
      <point x="731" y="148"/>
      <point x="660" y="143" type="curve"/>
      <point x="615" y="149"/>
      <point x="625" y="186"/>
      <point x="626" y="209" type="curve" smooth="yes"/>
      <point x="631" y="286"/>
      <point x="637" y="363"/>
      <point x="641" y="440" type="curve"/>
      <point x="642" y="449"/>
      <point x="640" y="461"/>
      <point x="635" y="468" type="curve" smooth="yes"/>
      <point x="625" y="482"/>
      <point x="612" y="495"/>
      <point x="594" y="500" type="curve" smooth="yes"/>
      <point x="564" y="509"/>
      <point x="504" y="517"/>
      <point x="473" y="511" type="curve" smooth="yes"/>
      <point x="393" y="494"/>
      <point x="319" y="470"/>
      <point x="267" y="405" type="curve" smooth="yes"/>
      <point x="237" y="368"/>
      <point x="221" y="305"/>
      <point x="223" y="257" type="curve"/>
      <point x="226" y="218"/>
      <point x="240" y="170"/>
      <point x="273" y="151" type="curve" smooth="yes"/>
      <point x="316" y="127"/>
      <point x="377" y="130"/>
      <point x="421" y="153" type="curve" smooth="yes"/>
      <point x="450" y="168"/>
      <point x="478" y="189"/>
      <point x="500" y="211" type="curve"/>
      <point x="508" y="221"/>
      <point x="517" y="244"/>
      <point x="526" y="253" type="curve"/>
      <point x="527" y="252"/>
      <point x="529" y="252"/>
      <point x="530" y="251" type="curve"/>
      <point x="530" y="234"/>
      <point x="532" y="216"/>
      <point x="530" y="199" type="curve"/>
      <point x="543" y="107"/>
      <point x="567" y="85"/>
      <point x="620" y="62" type="curve"/>
      <point x="793" y="12"/>
      <point x="838" y="261"/>
      <point x="843" y="316" type="curve" smooth="yes"/>
      <point x="849" y="388"/>
      <point x="847" y="460"/>
      <point x="828" y="532" type="curve" smooth="yes"/>
      <point x="817" y="575"/>
      <point x="798" y="592"/>
      <point x="768" y="631" type="curve" smooth="yes"/>
      <point x="720" y="695"/>
      <point x="588" y="745"/>
      <point x="501" y="745" type="curve" smooth="yes"/>
      <point x="190" y="745"/>
      <point x="24" y="466"/>
      <point x="24" y="318" type="curve" smooth="yes"/>
      <point x="22" y="128"/>
      <point x="79" y="-57"/>
    </contour>
    <contour>
      <point x="361" y="226" type="curve"/>
      <point x="333" y="225"/>
      <point x="308" y="231"/>
      <point x="309" y="260" type="curve" smooth="yes"/>
      <point x="310" y="310"/>
      <point x="341" y="351"/>
      <point x="381" y="380" type="curve" smooth="yes"/>
      <point x="404" y="397"/>
      <point x="424" y="408"/>
      <point x="448" y="423" type="curve" smooth="yes"/>
      <point x="467" y="435"/>
      <point x="488" y="440"/>
      <point x="510" y="442" type="curve"/>
      <point x="514" y="442"/>
      <point x="517" y="443"/>
      <point x="521" y="442" type="curve"/>
      <point x="538" y="441"/>
      <point x="543" y="435"/>
      <point x="541" y="417" type="curve" smooth="yes"/>
      <point x="539" y="392"/>
      <point x="517" y="367"/>
      <point x="504" y="346" type="curve" smooth="yes"/>
      <point x="474" y="299"/>
      <point x="445" y="280"/>
      <point x="404" y="245" type="curve"/>
      <point x="391" y="233"/>
      <point x="379" y="226"/>
    </contour>
  </outline>
</glyph>
<glyph name="A" format="1">
  <advance width="451"/>
  <unicode hex="0041"/>
  <outline>
    <contour>
      <point x="62" y="-15" type="curve"/>
      <point x="77" y="-15" type="line" smooth="yes"/>
      <point x="84" y="-15"/>
      <point x="95" y="-14"/>
      <point x="102" y="-13" type="curve" smooth="yes"/>
      <point x="131" y="-9"/>
      <point x="134" y="-4"/>
      <point x="137" y="25" type="curve" smooth="yes"/>
      <point x="143" y="77"/>
      <point x="149" y="129"/>
      <point x="157" y="181" type="curve" smooth="yes"/>
      <point x="165" y="229"/>
      <point x="175" y="277"/>
      <point x="185" y="325" type="curve" smooth="yes"/>
      <point x="215" y="474" type="line"/>
      <point x="249" y="481" type="line"/>
      <point x="249" y="448" type="line"/>
      <point x="251" y="408"/>
      <point x="249" y="367"/>
      <point x="255" y="327" type="curve" smooth="yes"/>
      <point x="264" y="267"/>
      <point x="268" y="207"/>
      <point x="271" y="146" type="curve" smooth="yes"/>
      <point x="273" y="104"/>
      <point x="279" y="62"/>
      <point x="284" y="20" type="curve"/>
      <point x="285" y="14"/>
      <point x="290" y="4"/>
      <point x="295" y="3" type="curve" smooth="yes"/>
      <point x="323" y="-2"/>
      <point x="351" y="-8"/>
      <point x="379" y="1" type="curve" smooth="yes"/>
      <point x="391" y="5"/>
      <point x="396" y="12"/>
      <point x="395" y="24" type="curve"/>
      <point x="394" y="22" type="line"/>
      <point x="392" y="51"/>
      <point x="391" y="80"/>
      <point x="388" y="109" type="curve" smooth="yes"/>
      <point x="381" y="178"/>
      <point x="371" y="247"/>
      <point x="365" y="316" type="curve" smooth="yes"/>
      <point x="354" y="441"/>
      <point x="346" y="566"/>
      <point x="324" y="690" type="curve" smooth="yes"/>
      <point x="316" y="738"/>
      <point x="314" y="787"/>
      <point x="309" y="836" type="curve" smooth="yes"/>
      <point x="307" y="857"/>
      <point x="304" y="863"/>
      <point x="288" y="860" type="curve" smooth="yes"/>
      <point x="259" y="855"/>
      <point x="230" y="847"/>
      <point x="201" y="839" type="curve" smooth="yes"/>
      <point x="190" y="836"/>
      <point x="184" y="827"/>
      <point x="180" y="815" type="curve" smooth="yes"/>
      <point x="146" y="700"/>
      <point x="124" y="582"/>
      <point x="108" y="463" type="curve" smooth="yes"/>
      <point x="102" y="416"/>
      <point x="99" y="369"/>
      <point x="91" y="323" type="curve" smooth="yes"/>
      <point x="74" y="219"/>
      <point x="67" y="113"/>
      <point x="43" y="10" type="curve" smooth="yes"/>
      <point x="40" y="-5"/>
      <point x="47" y="-14"/>
    </contour>
    <contour>
      <point x="211" y="559" type="line"/>
      <point x="208" y="579"/>
      <point x="224" y="646"/>
      <point x="238" y="669" type="curve"/>
      <point x="256" y="572" type="line"/>
    </contour>
  </outline>
</glyph>
<glyph name="B" format="1">
  <advance width="504"/>
  <unicode hex="0042"/>
  <outline>
    <contour>
      <point x="74" y="-11" type="curve" smooth="yes"/>
      <point x="95" y="-11"/>
      <point x="128" y="-8"/>
      <point x="148" y="-5" type="curve" smooth="yes"/>
      <point x="183" y="1"/>
      <point x="218" y="9"/>
      <point x="253" y="16" type="curve"/>
      <point x="266" y="18"/>
      <point x="287" y="24"/>
      <point x="300" y="29" type="curve" smooth="yes"/>
      <point x="341" y="45"/>
      <point x="372" y="74"/>
      <point x="402" y="105" type="curve" smooth="yes"/>
      <point x="421" y="125"/>
      <point x="440" y="164"/>
      <point x="444" y="191" type="curve" smooth="yes"/>
      <point x="455" y="256"/>
      <point x="445" y="319"/>
      <point x="424" y="381" type="curve"/>
      <point x="423" y="382" type="line"/>
      <point x="417" y="399"/>
      <point x="403" y="425"/>
      <point x="392" y="440" type="curve" smooth="yes"/>
      <point x="364" y="478"/>
      <point x="326" y="501"/>
      <point x="277" y="504" type="curve"/>
      <point x="271" y="504"/>
      <point x="265" y="505"/>
      <point x="253" y="506" type="curve"/>
      <point x="277" y="524"/>
      <point x="298" y="538"/>
      <point x="316" y="554" type="curve" smooth="yes"/>
      <point x="332" y="568"/>
      <point x="355" y="593"/>
      <point x="368" y="610" type="curve" smooth="yes"/>
      <point x="382" y="629"/>
      <point x="394" y="664"/>
      <point x="394" y="688" type="curve" smooth="yes"/>
      <point x="394" y="703" type="line"/>
      <point x="386" y="788"/>
      <point x="321" y="847"/>
      <point x="235" y="866" type="curve" smooth="yes"/>
      <point x="195" y="875"/>
      <point x="155" y="869"/>
      <point x="116" y="862" type="curve" smooth="yes"/>
      <point x="95" y="858"/>
      <point x="75" y="848"/>
      <point x="55" y="839" type="curve"/>
      <point x="51" y="837"/>
      <point x="48" y="829"/>
      <point x="48" y="824" type="curve"/>
      <point x="46" y="801"/>
      <point x="44" y="778"/>
      <point x="44" y="755" type="curve" smooth="yes"/>
      <point x="44" y="646"/>
      <point x="44" y="537"/>
      <point x="44" y="428" type="curve" smooth="yes"/>
      <point x="44" y="20" type="line" smooth="yes"/>
      <point x="44" y="-4"/>
      <point x="50" y="-11"/>
    </contour>
    <contour>
      <point x="134" y="97" type="curve"/>
      <point x="134" y="364" type="line"/>
      <point x="166" y="377"/>
      <point x="201" y="384"/>
      <point x="237" y="378" type="curve" smooth="yes"/>
      <point x="262" y="374"/>
      <point x="278" y="356"/>
      <point x="290" y="336" type="curve" smooth="yes"/>
      <point x="320" y="288"/>
      <point x="328" y="237"/>
      <point x="302" y="185" type="curve"/>
      <point x="301" y="185" type="line"/>
      <point x="297" y="177"/>
      <point x="288" y="165"/>
      <point x="281" y="159" type="curve" smooth="yes"/>
      <point x="254" y="137"/>
      <point x="205" y="112"/>
      <point x="172" y="103" type="curve"/>
      <point x="162" y="101"/>
      <point x="145" y="98"/>
    </contour>
    <contour>
      <point x="120" y="539" type="curve"/>
      <point x="121" y="777" type="line"/>
      <point x="144" y="780"/>
      <point x="165" y="784"/>
      <point x="186" y="786" type="curve" smooth="yes"/>
      <point x="223" y="789"/>
      <point x="250" y="769"/>
      <point x="259" y="733" type="curve" smooth="yes"/>
      <point x="269" y="691"/>
      <point x="264" y="654"/>
      <point x="232" y="620" type="curve" smooth="yes"/>
      <point x="200" y="586"/>
      <point x="163" y="563"/>
    </contour>
  </outline>
</glyph>
<glyph name="C" format="1">
  <advance width="415"/>
  <unicode hex="0043"/>
  <outline>
    <contour>
      <point x="207" y="1" type="curve" smooth="yes"/>
      <point x="250" y="-2"/>
      <point x="281" y="18"/>
      <point x="304" y="52" type="curve" smooth="yes"/>
      <point x="311" y="62"/>
      <point x="320" y="80"/>
      <point x="324" y="92" type="curve" smooth="yes"/>
      <point x="335" y="129"/>
      <point x="347" y="166"/>
      <point x="353" y="204" type="curve" smooth="yes"/>
      <point x="359" y="242"/>
      <point x="359" y="281"/>
      <point x="360" y="319" type="curve" smooth="yes"/>
      <point x="361" y="340"/>
      <point x="356" y="342"/>
      <point x="335" y="336" type="curve"/>
      <point x="332" y="330" type="line"/>
      <point x="319" y="326"/>
      <point x="306" y="323"/>
      <point x="293" y="319" type="curve" smooth="yes"/>
      <point x="273" y="313"/>
      <point x="273" y="313"/>
      <point x="271" y="291" type="curve" smooth="yes"/>
      <point x="269" y="274"/>
      <point x="268" y="257"/>
      <point x="265" y="240" type="curve" smooth="yes"/>
      <point x="260" y="213"/>
      <point x="252" y="187"/>
      <point x="232" y="167" type="curve" smooth="yes"/>
      <point x="203" y="138"/>
      <point x="173" y="144"/>
      <point x="158" y="181" type="curve" smooth="yes"/>
      <point x="155" y="188"/>
      <point x="151" y="200"/>
      <point x="149" y="208" type="curve"/>
      <point x="144" y="232"/>
      <point x="138" y="256"/>
      <point x="137" y="281" type="curve" smooth="yes"/>
      <point x="134" y="349"/>
      <point x="134" y="417"/>
      <point x="133" y="485" type="curve" smooth="yes"/>
      <point x="132" y="541"/>
      <point x="143" y="595"/>
      <point x="159" y="648" type="curve" smooth="yes"/>
      <point x="163" y="662"/>
      <point x="173" y="683"/>
      <point x="181" y="695" type="curve" smooth="yes"/>
      <point x="194" y="714"/>
      <point x="207" y="717"/>
      <point x="227" y="705" type="curve" smooth="yes"/>
      <point x="234" y="701"/>
      <point x="243" y="691"/>
      <point x="247" y="683" type="curve"/>
      <point x="259" y="653"/>
      <point x="276" y="625"/>
      <point x="277" y="591" type="curve" smooth="yes"/>
      <point x="277" y="584"/>
      <point x="281" y="577"/>
      <point x="284" y="566" type="curve"/>
      <point x="300" y="566"/>
      <point x="315" y="564"/>
      <point x="329" y="566" type="curve" smooth="yes"/>
      <point x="353" y="569"/>
      <point x="358" y="577"/>
      <point x="352" y="601" type="curve" smooth="yes"/>
      <point x="343" y="637"/>
      <point x="320" y="692"/>
      <point x="300" y="723" type="curve" smooth="yes"/>
      <point x="276" y="761"/>
      <point x="241" y="777"/>
      <point x="199" y="784" type="curve" smooth="yes"/>
      <point x="171" y="789"/>
      <point x="147" y="780"/>
      <point x="126" y="761" type="curve" smooth="yes"/>
      <point x="100" y="737"/>
      <point x="83" y="708"/>
      <point x="71" y="676" type="curve" smooth="yes"/>
      <point x="56" y="635"/>
      <point x="44" y="566"/>
      <point x="44" y="522" type="curve" smooth="yes"/>
      <point x="44" y="515" type="line" smooth="yes"/>
      <point x="45" y="417"/>
      <point x="35" y="319"/>
      <point x="50" y="222" type="curve" smooth="yes"/>
      <point x="56" y="180"/>
      <point x="61" y="138"/>
      <point x="70" y="96" type="curve" smooth="yes"/>
      <point x="79" y="52"/>
      <point x="107" y="21"/>
      <point x="151" y="8" type="curve" smooth="yes"/>
      <point x="169" y="3"/>
      <point x="188" y="2"/>
    </contour>
  </outline>
</glyph>
<glyph name="D" format="1">
  <advance width="500"/>
  <unicode hex="0044"/>
  <outline>
    <contour>
      <point x="151" y="50" type="curve" smooth="yes"/>
      <point x="163" y="52"/>
      <point x="175" y="54"/>
      <point x="187" y="57" type="curve" smooth="yes"/>
      <point x="209" y="63"/>
      <point x="233" y="66"/>
      <point x="253" y="76" type="curve" smooth="yes"/>
      <point x="301" y="100"/>
      <point x="347" y="127"/>
      <point x="387" y="163" type="curve" smooth="yes"/>
      <point x="424" y="196"/>
      <point x="445" y="237"/>
      <point x="443" y="288" type="curve" smooth="yes"/>
      <point x="442" y="316"/>
      <point x="440" y="344"/>
      <point x="437" y="372" type="curve"/>
      <point x="437" y="371" type="line"/>
      <point x="426" y="485"/>
      <point x="382" y="584"/>
      <point x="309" y="671" type="curve" smooth="yes"/>
      <point x="296" y="686"/>
      <point x="272" y="707"/>
      <point x="255" y="718" type="curve" smooth="yes"/>
      <point x="230" y="735"/>
      <point x="202" y="741"/>
      <point x="175" y="750" type="curve" smooth="yes"/>
      <point x="158" y="756"/>
      <point x="130" y="761"/>
      <point x="112" y="761" type="curve" smooth="yes"/>
      <point x="101" y="761"/>
      <point x="83" y="759"/>
      <point x="72" y="757" type="curve"/>
      <point x="63" y="755"/>
      <point x="54" y="753"/>
      <point x="41" y="750" type="curve"/>
      <point x="41" y="735" type="line" smooth="yes"/>
      <point x="41" y="731"/>
      <point x="41" y="724"/>
      <point x="41" y="720" type="curve"/>
      <point x="59" y="558" type="line" smooth="yes"/>
      <point x="72" y="447"/>
      <point x="85" y="336"/>
      <point x="99" y="226" type="curve" smooth="yes"/>
      <point x="105" y="174"/>
      <point x="113" y="122"/>
      <point x="121" y="70" type="curve" smooth="yes"/>
      <point x="124" y="49"/>
      <point x="130" y="46"/>
    </contour>
    <contour>
      <point x="211" y="218" type="curve"/>
      <point x="189" y="357"/>
      <point x="186" y="493"/>
      <point x="151" y="626" type="curve"/>
      <point x="151" y="625" type="line"/>
      <point x="265" y="564"/>
      <point x="314" y="470"/>
      <point x="307" y="346" type="curve" smooth="yes"/>
      <point x="305" y="316"/>
      <point x="290" y="290"/>
      <point x="271" y="268" type="curve" smooth="yes"/>
      <point x="255" y="250"/>
      <point x="234" y="237"/>
    </contour>
  </outline>
</glyph>
<glyph name="E" format="1">
  <advance width="399"/>
  <unicode hex="0045"/>
  <outline>
    <contour>
      <point x="82" y="4" type="curve" smooth="yes"/>
      <point x="87" y="4"/>
      <point x="92" y="5"/>
      <point x="97" y="5" type="curve"/>
      <point x="295" y="14" type="line"/>
      <point x="306" y="14"/>
      <point x="317" y="14"/>
      <point x="328" y="15" type="curve" smooth="yes"/>
      <point x="338" y="16"/>
      <point x="346" y="22"/>
      <point x="346" y="33" type="curve" smooth="yes"/>
      <point x="346" y="135" type="line" smooth="yes"/>
      <point x="346" y="145"/>
      <point x="340" y="149"/>
      <point x="331" y="149" type="curve" smooth="yes"/>
      <point x="326" y="149" type="line" smooth="yes"/>
      <point x="322" y="149"/>
      <point x="315" y="148"/>
      <point x="311" y="147" type="curve" smooth="yes"/>
      <point x="269" y="135"/>
      <point x="226" y="135"/>
      <point x="183" y="133" type="curve"/>
      <point x="154" y="133" type="line"/>
      <point x="147" y="397" type="line"/>
      <point x="187" y="400" type="line" smooth="yes"/>
      <point x="198" y="401"/>
      <point x="209" y="401"/>
      <point x="220" y="403" type="curve"/>
      <point x="234" y="405"/>
      <point x="241" y="414"/>
      <point x="242" y="428" type="curve" smooth="yes"/>
      <point x="243" y="448"/>
      <point x="245" y="468"/>
      <point x="246" y="488" type="curve" smooth="yes"/>
      <point x="247" y="506"/>
      <point x="240" y="513"/>
      <point x="221" y="512" type="curve" smooth="yes"/>
      <point x="207" y="511"/>
      <point x="193" y="508"/>
      <point x="179" y="506" type="curve"/>
      <point x="142" y="503" type="line"/>
      <point x="133" y="608" type="line"/>
      <point x="135" y="609"/>
      <point x="138" y="610"/>
      <point x="140" y="610" type="curve"/>
      <point x="263" y="622" type="line" smooth="yes"/>
      <point x="283" y="624"/>
      <point x="302" y="628"/>
      <point x="321" y="631" type="curve" smooth="yes"/>
      <point x="332" y="633"/>
      <point x="339" y="639"/>
      <point x="339" y="650" type="curve"/>
      <point x="338" y="678"/>
      <point x="337" y="706"/>
      <point x="335" y="734" type="curve" smooth="yes"/>
      <point x="334" y="748"/>
      <point x="328" y="752"/>
      <point x="314" y="750" type="curve" smooth="yes"/>
      <point x="306" y="749"/>
      <point x="298" y="746"/>
      <point x="290" y="746" type="curve" smooth="yes"/>
      <point x="101" y="740" type="line" smooth="yes"/>
      <point x="91" y="740"/>
      <point x="75" y="738"/>
      <point x="65" y="735" type="curve" smooth="yes"/>
      <point x="51" y="731"/>
      <point x="44" y="721"/>
      <point x="44" y="706" type="curve" smooth="yes"/>
      <point x="44" y="680"/>
      <point x="42" y="654"/>
      <point x="43" y="628" type="curve" smooth="yes"/>
      <point x="47" y="524"/>
      <point x="52" y="421"/>
      <point x="56" y="317" type="curve" smooth="yes"/>
      <point x="59" y="232"/>
      <point x="61" y="147"/>
      <point x="63" y="62" type="curve" smooth="yes"/>
      <point x="63" y="47"/>
      <point x="65" y="32"/>
      <point x="66" y="17" type="curve"/>
      <point x="67" y="8"/>
      <point x="73" y="4"/>
    </contour>
  </outline>
</glyph>
<glyph name="F" format="1">
  <advance width="416"/>
  <unicode hex="0046"/>
  <outline>
    <contour>
      <point x="110" y="-21" type="curve" smooth="yes"/>
      <point x="124" y="-21" type="line"/>
      <point x="149" y="-20"/>
      <point x="157" y="-10"/>
      <point x="158" y="15" type="curve" smooth="yes"/>
      <point x="159" y="50"/>
      <point x="160" y="85"/>
      <point x="162" y="120" type="curve" smooth="yes"/>
      <point x="165" y="200"/>
      <point x="173" y="279"/>
      <point x="168" y="359" type="curve" smooth="yes"/>
      <point x="162" y="446" type="line"/>
      <point x="175" y="446" type="line"/>
      <point x="201" y="447"/>
      <point x="227" y="447"/>
      <point x="253" y="449" type="curve" smooth="yes"/>
      <point x="277" y="451"/>
      <point x="282" y="458"/>
      <point x="282" y="482" type="curve" smooth="yes"/>
      <point x="282" y="499"/>
      <point x="283" y="516"/>
      <point x="283" y="533" type="curve" smooth="yes"/>
      <point x="283" y="549"/>
      <point x="278" y="555"/>
      <point x="262" y="556" type="curve" smooth="yes"/>
      <point x="245" y="557"/>
      <point x="228" y="555"/>
      <point x="211" y="555" type="curve" smooth="yes"/>
      <point x="158" y="555" type="line"/>
      <point x="152" y="694" type="line"/>
      <point x="171" y="696"/>
      <point x="188" y="696"/>
      <point x="205" y="699" type="curve" smooth="yes"/>
      <point x="239" y="705"/>
      <point x="273" y="709"/>
      <point x="307" y="706" type="curve"/>
      <point x="314" y="706" type="line" smooth="yes"/>
      <point x="319" y="706"/>
      <point x="327" y="707"/>
      <point x="332" y="708" type="curve"/>
      <point x="352" y="711"/>
      <point x="359" y="718"/>
      <point x="360" y="738" type="curve" smooth="yes"/>
      <point x="361" y="758"/>
      <point x="361" y="777"/>
      <point x="361" y="797" type="curve" smooth="yes"/>
      <point x="361" y="815"/>
      <point x="355" y="820"/>
      <point x="337" y="819" type="curve"/>
      <point x="335" y="816" type="line"/>
      <point x="311" y="814"/>
      <point x="287" y="811"/>
      <point x="263" y="808" type="curve" smooth="yes"/>
      <point x="215" y="802"/>
      <point x="167" y="797"/>
      <point x="119" y="802" type="curve"/>
      <point x="113" y="803"/>
      <point x="104" y="803"/>
      <point x="98" y="803" type="curve" smooth="yes"/>
      <point x="83" y="803" type="line"/>
      <point x="55" y="801"/>
      <point x="47" y="792"/>
      <point x="46" y="765" type="curve"/>
      <point x="45" y="754"/>
      <point x="45" y="743"/>
      <point x="45" y="732" type="curve" smooth="yes"/>
      <point x="46" y="676"/>
      <point x="49" y="620"/>
      <point x="49" y="564" type="curve" smooth="yes"/>
      <point x="48" y="427"/>
      <point x="47" y="290"/>
      <point x="44" y="153" type="curve" smooth="yes"/>
      <point x="43" y="104"/>
      <point x="50" y="54"/>
      <point x="39" y="5" type="curve" smooth="yes"/>
      <point x="36" y="-9"/>
      <point x="44" y="-18"/>
      <point x="59" y="-19" type="curve" smooth="yes"/>
      <point x="73" y="-20"/>
      <point x="96" y="-21"/>
    </contour>
  </outline>
</glyph>
<glyph name="G" format="1">
  <advance width="550"/>
  <unicode hex="0047"/>
  <outline>
    <contour>
      <point x="281" y="-35" type="curve" smooth="yes"/>
      <point x="319" y="-39"/>
      <point x="354" y="-32"/>
      <point x="385" y="-6" type="curve" smooth="yes"/>
      <point x="405" y="11"/>
      <point x="431" y="45"/>
      <point x="442" y="69" type="curve" smooth="yes"/>
      <point x="469" y="125"/>
      <point x="489" y="183"/>
      <point x="489" y="246" type="curve" smooth="yes"/>
      <point x="489" y="289"/>
      <point x="486" y="332"/>
      <point x="485" y="375" type="curve" smooth="yes"/>
      <point x="484" y="398"/>
      <point x="485" y="421"/>
      <point x="484" y="444" type="curve"/>
      <point x="487" y="442" type="line"/>
      <point x="486" y="460"/>
      <point x="481" y="464"/>
      <point x="463" y="462" type="curve"/>
      <point x="460" y="462"/>
      <point x="457" y="461"/>
      <point x="454" y="461" type="curve"/>
      <point x="423" y="457"/>
      <point x="392" y="453"/>
      <point x="361" y="448" type="curve" smooth="yes"/>
      <point x="336" y="444"/>
      <point x="311" y="440"/>
      <point x="286" y="435" type="curve" smooth="yes"/>
      <point x="270" y="432"/>
      <point x="266" y="425"/>
      <point x="268" y="409" type="curve" smooth="yes"/>
      <point x="269" y="399"/>
      <point x="272" y="389"/>
      <point x="274" y="379" type="curve" smooth="yes"/>
      <point x="280" y="353"/>
      <point x="283" y="349"/>
      <point x="310" y="353" type="curve" smooth="yes"/>
      <point x="335" y="356"/>
      <point x="359" y="363"/>
      <point x="385" y="369" type="curve"/>
      <point x="387" y="363"/>
      <point x="389" y="354"/>
      <point x="389" y="348" type="curve" smooth="yes"/>
      <point x="389" y="330"/>
      <point x="388" y="312"/>
      <point x="386" y="294" type="curve" smooth="yes"/>
      <point x="382" y="253"/>
      <point x="379" y="212"/>
      <point x="372" y="171" type="curve" smooth="yes"/>
      <point x="369" y="155"/>
      <point x="359" y="131"/>
      <point x="349" y="117" type="curve" smooth="yes"/>
      <point x="320" y="79"/>
      <point x="279" y="68"/>
      <point x="244" y="109" type="curve" smooth="yes"/>
      <point x="230" y="125"/>
      <point x="216" y="143"/>
      <point x="208" y="162" type="curve" smooth="yes"/>
      <point x="196" y="191"/>
      <point x="181" y="239"/>
      <point x="175" y="269" type="curve" smooth="yes"/>
      <point x="168" y="307"/>
      <point x="160" y="370"/>
      <point x="157" y="409" type="curve" smooth="yes"/>
      <point x="150" y="499"/>
      <point x="147" y="589"/>
      <point x="161" y="679" type="curve" smooth="yes"/>
      <point x="166" y="712"/>
      <point x="175" y="743"/>
      <point x="193" y="771" type="curve"/>
      <point x="201" y="785"/>
      <point x="212" y="794"/>
      <point x="229" y="796" type="curve" smooth="yes"/>
      <point x="271" y="800"/>
      <point x="316" y="776"/>
      <point x="334" y="738" type="curve" smooth="yes"/>
      <point x="347" y="711"/>
      <point x="357" y="682"/>
      <point x="368" y="654" type="curve"/>
      <point x="372" y="642"/>
      <point x="375" y="629"/>
      <point x="379" y="617" type="curve"/>
      <point x="382" y="606"/>
      <point x="389" y="602"/>
      <point x="400" y="603" type="curve"/>
      <point x="414" y="605"/>
      <point x="428" y="606"/>
      <point x="442" y="608" type="curve" smooth="yes"/>
      <point x="465" y="611"/>
      <point x="472" y="622"/>
      <point x="466" y="644" type="curve"/>
      <point x="461" y="660"/>
      <point x="455" y="676"/>
      <point x="451" y="692" type="curve" smooth="yes"/>
      <point x="441" y="737"/>
      <point x="411" y="803"/>
      <point x="384" y="839" type="curve" smooth="yes"/>
      <point x="348" y="888"/>
      <point x="275" y="921"/>
      <point x="205" y="890" type="curve" smooth="yes"/>
      <point x="132" y="858"/>
      <point x="88" y="801"/>
      <point x="69" y="725" type="curve" smooth="yes"/>
      <point x="65" y="711"/>
      <point x="62" y="697"/>
      <point x="60" y="683" type="curve"/>
      <point x="53" y="644"/>
      <point x="42" y="605"/>
      <point x="39" y="566" type="curve" smooth="yes"/>
      <point x="32" y="467"/>
      <point x="36" y="368"/>
      <point x="58" y="271" type="curve" smooth="yes"/>
      <point x="71" y="214"/>
      <point x="103" y="126"/>
      <point x="130" y="74" type="curve" smooth="yes"/>
      <point x="161" y="14"/>
      <point x="210" y="-28"/>
    </contour>
  </outline>
</glyph>
<glyph name="H" format="1">
  <advance width="461"/>
  <unicode hex="0048"/>
  <outline>
    <contour>
      <point x="112" y="-19" type="curve" smooth="yes"/>
      <point x="134" y="-18"/>
      <point x="156" y="-16"/>
      <point x="178" y="-14" type="curve" smooth="yes"/>
      <point x="191" y="-13"/>
      <point x="196" y="-6"/>
      <point x="196" y="6" type="curve" smooth="yes"/>
      <point x="196" y="26"/>
      <point x="196" y="46"/>
      <point x="194" y="66" type="curve" smooth="yes"/>
      <point x="185" y="161"/>
      <point x="181" y="256"/>
      <point x="182" y="351" type="curve" smooth="yes"/>
      <point x="182" y="413" type="line"/>
      <point x="248" y="427" type="line"/>
      <point x="249" y="422"/>
      <point x="250" y="414"/>
      <point x="250" y="409" type="curve"/>
      <point x="253" y="335"/>
      <point x="256" y="261"/>
      <point x="258" y="187" type="curve" smooth="yes"/>
      <point x="260" y="132"/>
      <point x="261" y="77"/>
      <point x="263" y="22" type="curve" smooth="yes"/>
      <point x="264" y="0"/>
      <point x="267" y="-3"/>
      <point x="289" y="-2" type="curve" smooth="yes"/>
      <point x="320" y="-1"/>
      <point x="351" y="1"/>
      <point x="382" y="4" type="curve" smooth="yes"/>
      <point x="397" y="5"/>
      <point x="401" y="10"/>
      <point x="400" y="25" type="curve"/>
      <point x="399" y="34"/>
      <point x="397" y="49"/>
      <point x="395" y="58" type="curve"/>
      <point x="398" y="56" type="line"/>
      <point x="389" y="92"/>
      <point x="382" y="151"/>
      <point x="382" y="188" type="curve" smooth="yes"/>
      <point x="382" y="196" type="line" smooth="yes"/>
      <point x="382" y="223"/>
      <point x="381" y="250"/>
      <point x="380" y="277" type="curve" smooth="yes"/>
      <point x="378" y="343"/>
      <point x="373" y="409"/>
      <point x="374" y="475" type="curve" smooth="yes"/>
      <point x="375" y="581"/>
      <point x="368" y="687"/>
      <point x="359" y="793" type="curve" smooth="yes"/>
      <point x="357" y="816"/>
      <point x="350" y="821"/>
      <point x="327" y="818" type="curve" smooth="yes"/>
      <point x="261" y="809" type="line" smooth="yes"/>
      <point x="238" y="806"/>
      <point x="235" y="804"/>
      <point x="236" y="780" type="curve" smooth="yes"/>
      <point x="238" y="740"/>
      <point x="241" y="700"/>
      <point x="244" y="660" type="curve" smooth="yes"/>
      <point x="247" y="620"/>
      <point x="251" y="581"/>
      <point x="254" y="540" type="curve"/>
      <point x="183" y="529" type="line"/>
      <point x="182" y="533"/>
      <point x="181" y="540"/>
      <point x="181" y="544" type="curve"/>
      <point x="179" y="599"/>
      <point x="178" y="654"/>
      <point x="175" y="709" type="curve" smooth="yes"/>
      <point x="173" y="741"/>
      <point x="168" y="773"/>
      <point x="164" y="805" type="curve" smooth="yes"/>
      <point x="162" y="819"/>
      <point x="155" y="824"/>
      <point x="143" y="822" type="curve" smooth="yes"/>
      <point x="74" y="810" type="line" smooth="yes"/>
      <point x="57" y="807"/>
      <point x="45" y="799"/>
      <point x="43" y="780" type="curve" smooth="yes"/>
      <point x="42" y="768"/>
      <point x="40" y="756"/>
      <point x="40" y="744" type="curve"/>
      <point x="35" y="636"/>
      <point x="47" y="528"/>
      <point x="53" y="420" type="curve" smooth="yes"/>
      <point x="58" y="327"/>
      <point x="64" y="234"/>
      <point x="71" y="141" type="curve" smooth="yes"/>
      <point x="74" y="95"/>
      <point x="80" y="49"/>
      <point x="86" y="3" type="curve" smooth="yes"/>
      <point x="88" y="-17"/>
      <point x="92" y="-20"/>
    </contour>
  </outline>
</glyph>
<glyph name="I" format="1">
  <advance width="239"/>
  <unicode hex="0049"/>
  <outline>
    <contour>
      <point x="133" y="11" type="curve" smooth="yes"/>
      <point x="176" y="5"/>
      <point x="179" y="6"/>
      <point x="178" y="50" type="curve" smooth="yes"/>
      <point x="176" y="127"/>
      <point x="171" y="204"/>
      <point x="168" y="281" type="curve"/>
      <point x="171" y="284" type="line"/>
      <point x="167" y="393"/>
      <point x="164" y="502"/>
      <point x="160" y="611" type="curve" smooth="yes"/>
      <point x="154" y="764" type="line" smooth="yes"/>
      <point x="153" y="790"/>
      <point x="146" y="795"/>
      <point x="120" y="793" type="curve" smooth="yes"/>
      <point x="105" y="792"/>
      <point x="90" y="791"/>
      <point x="76" y="789" type="curve" smooth="yes"/>
      <point x="68" y="788"/>
      <point x="55" y="784"/>
      <point x="47" y="780" type="curve"/>
      <point x="37" y="774"/>
      <point x="35" y="764"/>
      <point x="44" y="757" type="curve" smooth="yes"/>
      <point x="53" y="750"/>
      <point x="52" y="741"/>
      <point x="52" y="732" type="curve" smooth="yes"/>
      <point x="52" y="392" type="line"/>
      <point x="48" y="392" type="line"/>
      <point x="48" y="284" type="line" smooth="yes"/>
      <point x="47" y="205"/>
      <point x="45" y="126"/>
      <point x="45" y="47" type="curve" smooth="yes"/>
      <point x="45" y="16"/>
      <point x="50" y="13"/>
      <point x="82" y="13" type="curve" smooth="yes"/>
      <point x="104" y="13" type="line" smooth="yes"/>
      <point x="112" y="13"/>
      <point x="125" y="12"/>
    </contour>
  </outline>
</glyph>
<glyph name="J" format="1">
  <advance width="410"/>
  <unicode hex="004A"/>
  <outline>
    <contour>
      <point x="224" y="1" type="curve"/>
      <point x="235" y="1"/>
      <point x="251" y="7"/>
      <point x="260" y="13" type="curve"/>
      <point x="304" y="45"/>
      <point x="330" y="88"/>
      <point x="340" y="143" type="curve" smooth="yes"/>
      <point x="353" y="216"/>
      <point x="356" y="289"/>
      <point x="354" y="363" type="curve" smooth="yes"/>
      <point x="351" y="480"/>
      <point x="347" y="597"/>
      <point x="344" y="714" type="curve"/>
      <point x="342" y="712" type="line"/>
      <point x="341" y="731"/>
      <point x="342" y="750"/>
      <point x="341" y="769" type="curve" smooth="yes"/>
      <point x="340" y="788"/>
      <point x="331" y="795"/>
      <point x="312" y="791" type="curve" smooth="yes"/>
      <point x="273" y="782" type="line" smooth="yes"/>
      <point x="261" y="779"/>
      <point x="248" y="777"/>
      <point x="236" y="773" type="curve" smooth="yes"/>
      <point x="221" y="768"/>
      <point x="215" y="758"/>
      <point x="222" y="749" type="curve" smooth="yes"/>
      <point x="234" y="734"/>
      <point x="233" y="717"/>
      <point x="233" y="700" type="curve" smooth="yes"/>
      <point x="235" y="553"/>
      <point x="236" y="406"/>
      <point x="237" y="259" type="curve" smooth="yes"/>
      <point x="237" y="232"/>
      <point x="235" y="204"/>
      <point x="224" y="178" type="curve"/>
      <point x="217" y="163"/>
      <point x="209" y="149"/>
      <point x="190" y="145" type="curve"/>
      <point x="179" y="158"/>
      <point x="169" y="183"/>
      <point x="168" y="201" type="curve" smooth="yes"/>
      <point x="159" y="327" type="line" smooth="yes"/>
      <point x="158" y="343"/>
      <point x="150" y="350"/>
      <point x="136" y="343" type="curve" smooth="yes"/>
      <point x="115" y="333"/>
      <point x="93" y="334"/>
      <point x="71" y="334" type="curve"/>
      <point x="45" y="333"/>
      <point x="40" y="329"/>
      <point x="41" y="304" type="curve" smooth="yes"/>
      <point x="42" y="262"/>
      <point x="43" y="220"/>
      <point x="48" y="178" type="curve" smooth="yes"/>
      <point x="51" y="157"/>
      <point x="59" y="124"/>
      <point x="67" y="104" type="curve" smooth="yes"/>
      <point x="95" y="31"/>
      <point x="150" y="-3"/>
    </contour>
  </outline>
</glyph>
<glyph name="K" format="1">
  <advance width="543"/>
  <unicode hex="004B"/>
  <outline>
    <contour>
      <point x="175" y="-79" type="curve" smooth="yes"/>
      <point x="201" y="-79"/>
      <point x="207" y="-73"/>
      <point x="206" y="-48" type="curve" smooth="yes"/>
      <point x="205" y="-27"/>
      <point x="202" y="-6"/>
      <point x="200" y="15" type="curve" smooth="yes"/>
      <point x="185" y="184" type="line"/>
      <point x="185" y="189"/>
      <point x="186" y="196"/>
      <point x="187" y="201" type="curve"/>
      <point x="193" y="189"/>
      <point x="196" y="183"/>
      <point x="199" y="177" type="curve" smooth="yes"/>
      <point x="301" y="-39" type="line" smooth="yes"/>
      <point x="306" y="-50"/>
      <point x="313" y="-58"/>
      <point x="327" y="-58" type="curve" smooth="yes"/>
      <point x="372" y="-57"/>
      <point x="417" y="-57"/>
      <point x="462" y="-55" type="curve" smooth="yes"/>
      <point x="481" y="-54"/>
      <point x="487" y="-41"/>
      <point x="479" y="-23" type="curve"/>
      <point x="472" y="-9"/>
      <point x="464" y="4"/>
      <point x="457" y="18" type="curve" smooth="yes"/>
      <point x="422" y="91"/>
      <point x="389" y="164"/>
      <point x="344" y="231" type="curve" smooth="yes"/>
      <point x="340" y="237"/>
      <point x="337" y="243"/>
      <point x="334" y="249" type="curve"/>
      <point x="312" y="289"/>
      <point x="289" y="328"/>
      <point x="256" y="360" type="curve" smooth="yes"/>
      <point x="246" y="370"/>
      <point x="238" y="381"/>
      <point x="229" y="392" type="curve"/>
      <point x="258" y="452"/>
      <point x="286" y="511"/>
      <point x="316" y="569" type="curve" smooth="yes"/>
      <point x="349" y="632"/>
      <point x="385" y="694"/>
      <point x="418" y="757" type="curve"/>
      <point x="420" y="757" type="line"/>
      <point x="442" y="800"/>
      <point x="462" y="844"/>
      <point x="482" y="888" type="curve" smooth="yes"/>
      <point x="492" y="910"/>
      <point x="484" y="923"/>
      <point x="460" y="922" type="curve"/>
      <point x="421" y="919"/>
      <point x="382" y="913"/>
      <point x="343" y="909" type="curve" smooth="yes"/>
      <point x="332" y="908"/>
      <point x="326" y="901"/>
      <point x="322" y="891" type="curve"/>
      <point x="317" y="876"/>
      <point x="311" y="861"/>
      <point x="304" y="847" type="curve" smooth="yes"/>
      <point x="257" y="750"/>
      <point x="210" y="653"/>
      <point x="173" y="551" type="curve"/>
      <point x="171" y="547"/>
      <point x="166" y="540"/>
      <point x="163" y="536" type="curve"/>
      <point x="163" y="573" type="line"/>
      <point x="166" y="894" type="line" smooth="yes"/>
      <point x="166" y="911"/>
      <point x="162" y="915"/>
      <point x="143" y="915" type="curve" smooth="yes"/>
      <point x="121" y="915"/>
      <point x="99" y="915"/>
      <point x="77" y="913" type="curve" smooth="yes"/>
      <point x="65" y="912"/>
      <point x="54" y="907"/>
      <point x="42" y="904" type="curve"/>
      <point x="41" y="871"/>
      <point x="39" y="841"/>
      <point x="39" y="810" type="curve" smooth="yes"/>
      <point x="39" y="737"/>
      <point x="40" y="665"/>
      <point x="41" y="592" type="curve" smooth="yes"/>
      <point x="43" y="396"/>
      <point x="44" y="200"/>
      <point x="45" y="4" type="curve" smooth="yes"/>
      <point x="45" y="-18"/>
      <point x="44" y="-40"/>
      <point x="43" y="-62" type="curve"/>
      <point x="43" y="-63" type="line" smooth="yes"/>
      <point x="43" y="-71"/>
      <point x="49" y="-77"/>
      <point x="57" y="-77" type="curve" smooth="yes"/>
      <point x="64" y="-77" type="line" smooth="yes"/>
      <point x="68" y="-77"/>
      <point x="75" y="-77"/>
      <point x="79" y="-77" type="curve" smooth="yes"/>
      <point x="136" y="-77" type="line" smooth="yes"/>
      <point x="149" y="-77"/>
      <point x="162" y="-79"/>
    </contour>
  </outline>
</glyph>
<glyph name="L" format="1">
  <advance width="405"/>
  <unicode hex="004C"/>
  <outline>
    <contour>
      <point x="319" y="-42" type="curve" smooth="yes"/>
      <point x="341" y="-43"/>
      <point x="346" y="-39"/>
      <point x="347" y="-17" type="curve"/>
      <point x="347" y="-6" type="line" smooth="yes"/>
      <point x="347" y="-1"/>
      <point x="347" y="8"/>
      <point x="346" y="13" type="curve"/>
      <point x="344" y="36"/>
      <point x="341" y="59"/>
      <point x="338" y="82" type="curve"/>
      <point x="337" y="85" type="line"/>
      <point x="336" y="94"/>
      <point x="331" y="101"/>
      <point x="320" y="99" type="curve" smooth="yes"/>
      <point x="292" y="93"/>
      <point x="264" y="87"/>
      <point x="237" y="79" type="curve" smooth="yes"/>
      <point x="213" y="72"/>
      <point x="189" y="73"/>
      <point x="162" y="75" type="curve"/>
      <point x="161" y="79"/>
      <point x="160" y="86"/>
      <point x="160" y="90" type="curve"/>
      <point x="164" y="172"/>
      <point x="149" y="252"/>
      <point x="142" y="333" type="curve" smooth="yes"/>
      <point x="135" y="417"/>
      <point x="136" y="501"/>
      <point x="136" y="585" type="curve" smooth="yes"/>
      <point x="136" y="626"/>
      <point x="136" y="667"/>
      <point x="135" y="708" type="curve" smooth="yes"/>
      <point x="133" y="767"/>
      <point x="129" y="826"/>
      <point x="127" y="885" type="curve" smooth="yes"/>
      <point x="126" y="917"/>
      <point x="120" y="923"/>
      <point x="88" y="920" type="curve"/>
      <point x="84" y="920"/>
      <point x="78" y="919"/>
      <point x="75" y="918" type="curve" smooth="yes"/>
      <point x="64" y="914"/>
      <point x="50" y="912"/>
      <point x="43" y="904" type="curve" smooth="yes"/>
      <point x="38" y="898"/>
      <point x="43" y="884"/>
      <point x="44" y="873" type="curve"/>
      <point x="44" y="870" type="line"/>
      <point x="47" y="816"/>
      <point x="51" y="762"/>
      <point x="52" y="708" type="curve" smooth="yes"/>
      <point x="55" y="531"/>
      <point x="57" y="354"/>
      <point x="60" y="177" type="curve" smooth="yes"/>
      <point x="61" y="112"/>
      <point x="64" y="47"/>
      <point x="67" y="-18" type="curve" smooth="yes"/>
      <point x="68" y="-39"/>
      <point x="72" y="-41"/>
      <point x="93" y="-40" type="curve" smooth="yes"/>
      <point x="125" y="-38"/>
      <point x="158" y="-36"/>
      <point x="190" y="-36" type="curve" smooth="yes"/>
      <point x="233" y="-37"/>
      <point x="276" y="-40"/>
    </contour>
  </outline>
</glyph>
<glyph name="M" format="1">
  <advance width="604"/>
  <unicode hex="004D"/>
  <outline>
    <contour>
      <point x="457" y="-44" type="curve"/>
      <point x="473" y="-38"/>
      <point x="489" y="-39"/>
      <point x="505" y="-40" type="curve"/>
      <point x="513" y="-40"/>
      <point x="527" y="-39"/>
      <point x="535" y="-38" type="curve" smooth="yes"/>
      <point x="546" y="-37"/>
      <point x="550" y="-30"/>
      <point x="549" y="-20" type="curve"/>
      <point x="549" y="-10"/>
      <point x="547" y="-1"/>
      <point x="547" y="8" type="curve"/>
      <point x="545" y="2" type="line"/>
      <point x="544" y="74"/>
      <point x="542" y="146"/>
      <point x="542" y="218" type="curve" smooth="yes"/>
      <point x="542" y="312"/>
      <point x="544" y="407"/>
      <point x="544" y="502" type="curve" smooth="yes"/>
      <point x="544" y="575"/>
      <point x="543" y="648"/>
      <point x="542" y="721" type="curve" smooth="yes"/>
      <point x="541" y="759"/>
      <point x="539" y="797"/>
      <point x="538" y="835" type="curve"/>
      <point x="537" y="849"/>
      <point x="535" y="851"/>
      <point x="521" y="850" type="curve"/>
      <point x="470" y="844" type="line" smooth="yes"/>
      <point x="452" y="842"/>
      <point x="452" y="842"/>
      <point x="447" y="824" type="curve" smooth="yes"/>
      <point x="425" y="747"/>
      <point x="403" y="670"/>
      <point x="380" y="593" type="curve" smooth="yes"/>
      <point x="361" y="527"/>
      <point x="341" y="462"/>
      <point x="321" y="397" type="curve"/>
      <point x="314" y="382" type="line"/>
      <point x="312" y="401"/>
      <point x="310" y="415"/>
      <point x="309" y="429" type="curve" smooth="yes"/>
      <point x="307" y="462"/>
      <point x="306" y="495"/>
      <point x="303" y="527" type="curve" smooth="yes"/>
      <point x="297" y="600"/>
      <point x="290" y="673"/>
      <point x="283" y="746" type="curve" smooth="yes"/>
      <point x="281" y="772"/>
      <point x="278" y="798"/>
      <point x="276" y="824" type="curve" smooth="yes"/>
      <point x="275" y="835"/>
      <point x="269" y="839"/>
      <point x="259" y="838" type="curve"/>
      <point x="240" y="837"/>
      <point x="221" y="835"/>
      <point x="202" y="834" type="curve"/>
      <point x="192" y="834"/>
      <point x="187" y="830"/>
      <point x="185" y="820" type="curve"/>
      <point x="182" y="801"/>
      <point x="177" y="782"/>
      <point x="174" y="763" type="curve" smooth="yes"/>
      <point x="166" y="708"/>
      <point x="159" y="653"/>
      <point x="150" y="599" type="curve" smooth="yes"/>
      <point x="139" y="535"/>
      <point x="125" y="471"/>
      <point x="114" y="407" type="curve" smooth="yes"/>
      <point x="94" y="295"/>
      <point x="76" y="182"/>
      <point x="49" y="71" type="curve" smooth="yes"/>
      <point x="46" y="59"/>
      <point x="44" y="47"/>
      <point x="42" y="35" type="curve"/>
      <point x="41" y="27"/>
      <point x="43" y="20"/>
      <point x="53" y="20" type="curve"/>
      <point x="113" y="23" type="line" smooth="yes"/>
      <point x="129" y="24"/>
      <point x="132" y="26"/>
      <point x="135" y="42" type="curve" smooth="yes"/>
      <point x="139" y="60"/>
      <point x="141" y="78"/>
      <point x="144" y="96" type="curve" smooth="yes"/>
      <point x="157" y="170"/>
      <point x="171" y="243"/>
      <point x="182" y="317" type="curve" smooth="yes"/>
      <point x="193" y="387"/>
      <point x="201" y="458"/>
      <point x="217" y="528" type="curve"/>
      <point x="220" y="537" type="line"/>
      <point x="224" y="537" type="line"/>
      <point x="228" y="512"/>
      <point x="233" y="487"/>
      <point x="236" y="462" type="curve" smooth="yes"/>
      <point x="241" y="414"/>
      <point x="245" y="365"/>
      <point x="249" y="316" type="curve" smooth="yes"/>
      <point x="250" y="299"/>
      <point x="252" y="297"/>
      <point x="269" y="296" type="curve"/>
      <point x="278" y="295"/>
      <point x="287" y="296"/>
      <point x="295" y="293" type="curve" smooth="yes"/>
      <point x="314" y="286"/>
      <point x="333" y="286"/>
      <point x="353" y="287" type="curve" smooth="yes"/>
      <point x="375" y="288"/>
      <point x="378" y="291"/>
      <point x="383" y="311" type="curve" smooth="yes"/>
      <point x="395" y="356"/>
      <point x="407" y="401"/>
      <point x="420" y="446" type="curve" smooth="yes"/>
      <point x="426" y="467"/>
      <point x="435" y="487"/>
      <point x="443" y="508" type="curve"/>
      <point x="445" y="504"/>
      <point x="447" y="498"/>
      <point x="447" y="494" type="curve" smooth="yes"/>
      <point x="447" y="491" type="line"/>
      <point x="446" y="471"/>
      <point x="444" y="451"/>
      <point x="443" y="431" type="curve" smooth="yes"/>
      <point x="437" y="77" type="line" smooth="yes"/>
      <point x="437" y="43"/>
      <point x="438" y="9"/>
      <point x="439" y="-25" type="curve" smooth="yes"/>
      <point x="439" y="-41"/>
      <point x="445" y="-48"/>
    </contour>
  </outline>
</glyph>
<glyph name="N" format="1">
  <advance width="583"/>
  <unicode hex="004E"/>
  <outline>
    <contour>
      <point x="443" y="-45" type="curve"/>
      <point x="463" y="-45"/>
      <point x="483" y="-42"/>
      <point x="503" y="-42" type="curve" smooth="yes"/>
      <point x="524" y="-42"/>
      <point x="527" y="-41"/>
      <point x="527" y="-20" type="curve" smooth="yes"/>
      <point x="528" y="13"/>
      <point x="529" y="46"/>
      <point x="528" y="79" type="curve" smooth="yes"/>
      <point x="516" y="613" type="line"/>
      <point x="513" y="612" type="line"/>
      <point x="511" y="679"/>
      <point x="508" y="746"/>
      <point x="505" y="813" type="curve" smooth="yes"/>
      <point x="504" y="833"/>
      <point x="501" y="835"/>
      <point x="481" y="832" type="curve"/>
      <point x="465" y="829"/>
      <point x="449" y="826"/>
      <point x="433" y="824" type="curve" smooth="yes"/>
      <point x="396" y="820"/>
      <point x="396" y="820"/>
      <point x="397" y="782" type="curve" smooth="yes"/>
      <point x="399" y="707"/>
      <point x="401" y="632"/>
      <point x="402" y="557" type="curve" smooth="yes"/>
      <point x="403" y="422"/>
      <point x="406" y="287"/>
      <point x="417" y="152" type="curve" smooth="yes"/>
      <point x="418" y="142"/>
      <point x="417" y="131"/>
      <point x="417" y="116" type="curve"/>
      <point x="410" y="126" type="line"/>
      <point x="394" y="165"/>
      <point x="379" y="204"/>
      <point x="363" y="243" type="curve" smooth="yes"/>
      <point x="350" y="275"/>
      <point x="336" y="306"/>
      <point x="323" y="338" type="curve" smooth="yes"/>
      <point x="307" y="378"/>
      <point x="292" y="418"/>
      <point x="277" y="458" type="curve" smooth="yes"/>
      <point x="262" y="496"/>
      <point x="248" y="534"/>
      <point x="233" y="571" type="curve" smooth="yes"/>
      <point x="203" y="643"/>
      <point x="172" y="715"/>
      <point x="149" y="790" type="curve" smooth="yes"/>
      <point x="144" y="806"/>
      <point x="138" y="808"/>
      <point x="120" y="806" type="curve" smooth="yes"/>
      <point x="109" y="805"/>
      <point x="98" y="806"/>
      <point x="87" y="806" type="curve" smooth="yes"/>
      <point x="74" y="806"/>
      <point x="61" y="805"/>
      <point x="45" y="804" type="curve"/>
      <point x="43" y="780"/>
      <point x="39" y="761"/>
      <point x="39" y="742" type="curve" smooth="yes"/>
      <point x="40" y="518"/>
      <point x="42" y="294"/>
      <point x="44" y="70" type="curve" smooth="yes"/>
      <point x="44" y="52"/>
      <point x="42" y="34"/>
      <point x="42" y="16" type="curve"/>
      <point x="41" y="-8"/>
      <point x="45" y="-13"/>
      <point x="69" y="-15" type="curve"/>
      <point x="86" y="-15" type="line" smooth="yes"/>
      <point x="95" y="-15"/>
      <point x="109" y="-14"/>
      <point x="118" y="-13" type="curve"/>
      <point x="128" y="-13"/>
      <point x="133" y="-6"/>
      <point x="135" y="3" type="curve" smooth="yes"/>
      <point x="136" y="8"/>
      <point x="137" y="16"/>
      <point x="137" y="21" type="curve"/>
      <point x="142" y="103"/>
      <point x="147" y="185"/>
      <point x="151" y="267" type="curve" smooth="yes"/>
      <point x="153" y="312"/>
      <point x="154" y="357"/>
      <point x="156" y="402" type="curve" smooth="yes"/>
      <point x="157" y="415"/>
      <point x="159" y="428"/>
      <point x="160" y="441" type="curve"/>
      <point x="166" y="442" type="line"/>
      <point x="171" y="431"/>
      <point x="177" y="421"/>
      <point x="182" y="410" type="curve" smooth="yes"/>
      <point x="224" y="319"/>
      <point x="258" y="225"/>
      <point x="292" y="131" type="curve" smooth="yes"/>
      <point x="310" y="81"/>
      <point x="329" y="31"/>
      <point x="348" y="-19" type="curve"/>
      <point x="352" y="-28"/>
      <point x="356" y="-39"/>
      <point x="368" y="-40" type="curve" smooth="yes"/>
      <point x="393" y="-42"/>
      <point x="418" y="-44"/>
    </contour>
    <contour>
      <point x="431" y="40" type="curve"/>
      <point x="434" y="44" type="line"/>
      <point x="433" y="43"/>
      <point x="432" y="41"/>
    </contour>
  </outline>
</glyph>
<glyph name="O" format="1">
  <advance width="424"/>
  <unicode hex="004F"/>
  <outline>
    <contour>
      <point x="143" y="-5" type="curve" smooth="yes"/>
      <point x="212" y="-34"/>
      <point x="253" y="-23"/>
      <point x="294" y="34" type="curve" smooth="yes"/>
      <point x="317" y="65"/>
      <point x="340" y="121"/>
      <point x="346" y="159" type="curve" smooth="yes"/>
      <point x="365" y="286"/>
      <point x="376" y="414"/>
      <point x="355" y="542" type="curve" smooth="yes"/>
      <point x="346" y="599"/>
      <point x="337" y="656"/>
      <point x="319" y="711" type="curve"/>
      <point x="318" y="708" type="line"/>
      <point x="310" y="733"/>
      <point x="300" y="756"/>
      <point x="283" y="776" type="curve"/>
      <point x="271" y="792"/>
      <point x="245" y="808"/>
      <point x="225" y="812" type="curve" smooth="yes"/>
      <point x="183" y="819"/>
      <point x="114" y="793"/>
      <point x="94" y="744" type="curve" smooth="yes"/>
      <point x="87" y="727"/>
      <point x="77" y="699"/>
      <point x="72" y="681" type="curve" smooth="yes"/>
      <point x="66" y="657"/>
      <point x="64" y="632"/>
      <point x="60" y="608" type="curve" smooth="yes"/>
      <point x="49" y="540"/>
      <point x="39" y="429"/>
      <point x="38" y="360" type="curve"/>
      <point x="41" y="310"/>
      <point x="42" y="259"/>
      <point x="47" y="209" type="curve" smooth="yes"/>
      <point x="51" y="175"/>
      <point x="61" y="121"/>
      <point x="69" y="88" type="curve" smooth="yes"/>
      <point x="79" y="47"/>
      <point x="102" y="12"/>
    </contour>
    <contour>
      <point x="177" y="118" type="curve"/>
      <point x="179" y="118" type="line"/>
      <point x="160" y="146"/>
      <point x="154" y="178"/>
      <point x="153" y="211" type="curve" smooth="yes"/>
      <point x="150" y="280"/>
      <point x="148" y="349"/>
      <point x="146" y="418" type="curve"/>
      <point x="151" y="418" type="line"/>
      <point x="151" y="472"/>
      <point x="149" y="526"/>
      <point x="152" y="580" type="curve" smooth="yes"/>
      <point x="153" y="607"/>
      <point x="162" y="634"/>
      <point x="170" y="660" type="curve" smooth="yes"/>
      <point x="174" y="673"/>
      <point x="183" y="687"/>
      <point x="198" y="687" type="curve" smooth="yes"/>
      <point x="213" y="687"/>
      <point x="219" y="671"/>
      <point x="222" y="659" type="curve" smooth="yes"/>
      <point x="232" y="620"/>
      <point x="243" y="581"/>
      <point x="248" y="541" type="curve" smooth="yes"/>
      <point x="262" y="435"/>
      <point x="257" y="329"/>
      <point x="241" y="223" type="curve" smooth="yes"/>
      <point x="238" y="204"/>
      <point x="237" y="185"/>
      <point x="232" y="167" type="curve" smooth="yes"/>
      <point x="228" y="153"/>
      <point x="219" y="131"/>
      <point x="211" y="118" type="curve" smooth="yes"/>
      <point x="200" y="99"/>
      <point x="189" y="100"/>
    </contour>
  </outline>
</glyph>
<glyph name="P" format="1">
  <advance width="388"/>
  <unicode hex="0050"/>
  <outline>
    <contour>
      <point x="66" y="-16" type="curve"/>
      <point x="96" y="-13" type="line" smooth="yes"/>
      <point x="116" y="-11"/>
      <point x="120" y="-7"/>
      <point x="122" y="14" type="curve" smooth="yes"/>
      <point x="123" y="25"/>
      <point x="123" y="36"/>
      <point x="123" y="47" type="curve"/>
      <point x="132" y="284" type="line" smooth="yes"/>
      <point x="134" y="343"/>
      <point x="137" y="402"/>
      <point x="139" y="461" type="curve" smooth="yes"/>
      <point x="140" y="484"/>
      <point x="139" y="507"/>
      <point x="139" y="532" type="curve"/>
      <point x="157" y="534"/>
      <point x="172" y="536"/>
      <point x="187" y="537" type="curve" smooth="yes"/>
      <point x="232" y="541"/>
      <point x="272" y="556"/>
      <point x="305" y="588" type="curve" smooth="yes"/>
      <point x="321" y="604"/>
      <point x="331" y="622"/>
      <point x="329" y="645" type="curve" smooth="yes"/>
      <point x="328" y="656"/>
      <point x="329" y="667"/>
      <point x="328" y="678" type="curve"/>
      <point x="329" y="677" type="line"/>
      <point x="326" y="703"/>
      <point x="309" y="739"/>
      <point x="291" y="757" type="curve" smooth="yes"/>
      <point x="264" y="783"/>
      <point x="232" y="797"/>
      <point x="196" y="804" type="curve" smooth="yes"/>
      <point x="160" y="811"/>
      <point x="123" y="815"/>
      <point x="86" y="810" type="curve" smooth="yes"/>
      <point x="54" y="806"/>
      <point x="48" y="801"/>
      <point x="47" y="768" type="curve" smooth="yes"/>
      <point x="47" y="746"/>
      <point x="49" y="724"/>
      <point x="49" y="702" type="curve" smooth="yes"/>
      <point x="43" y="138" type="line" smooth="yes"/>
      <point x="43" y="105"/>
      <point x="42" y="72"/>
      <point x="41" y="39" type="curve" smooth="yes"/>
      <point x="41" y="28"/>
      <point x="40" y="17"/>
      <point x="41" y="6" type="curve" smooth="yes"/>
      <point x="42" y="-11"/>
      <point x="49" y="-17"/>
    </contour>
    <contour>
      <point x="146" y="645" type="line"/>
      <point x="133" y="720" type="line"/>
      <point x="157" y="722"/>
      <point x="177" y="717"/>
      <point x="197" y="711" type="curve"/>
      <point x="196" y="712" type="line"/>
      <point x="200" y="711"/>
      <point x="206" y="707"/>
      <point x="209" y="704" type="curve" smooth="yes"/>
      <point x="225" y="689"/>
      <point x="223" y="669"/>
      <point x="204" y="658" type="curve" smooth="yes"/>
      <point x="191" y="651"/>
      <point x="168" y="645"/>
      <point x="153" y="645" type="curve" smooth="yes"/>
    </contour>
  </outline>
</glyph>
<glyph name="Q" format="1">
  <advance width="429"/>
  <unicode hex="0051"/>
  <outline>
    <contour>
      <point x="312" y="-27" type="line"/>
      <point x="326" y="-22"/>
      <point x="341" y="-7"/>
      <point x="346" y="7" type="curve" smooth="yes"/>
      <point x="352" y="24"/>
      <point x="359" y="41"/>
      <point x="367" y="57" type="curve"/>
      <point x="372" y="70"/>
      <point x="370" y="80"/>
      <point x="359" y="89" type="curve"/>
      <point x="361" y="92" type="line"/>
      <point x="309" y="135" type="line"/>
      <point x="309" y="140"/>
      <point x="310" y="149"/>
      <point x="311" y="154" type="curve" smooth="yes"/>
      <point x="319" y="188"/>
      <point x="325" y="244"/>
      <point x="325" y="279" type="curve" smooth="yes"/>
      <point x="325" y="301" type="line"/>
      <point x="322" y="383"/>
      <point x="320" y="465"/>
      <point x="315" y="547" type="curve" smooth="yes"/>
      <point x="311" y="607"/>
      <point x="290" y="701"/>
      <point x="268" y="757" type="curve" smooth="yes"/>
      <point x="258" y="785"/>
      <point x="228" y="819"/>
      <point x="202" y="833" type="curve" smooth="yes"/>
      <point x="159" y="858"/>
      <point x="116" y="851"/>
      <point x="85" y="813" type="curve" smooth="yes"/>
      <point x="62" y="786"/>
      <point x="42" y="735"/>
      <point x="40" y="700" type="curve" smooth="yes"/>
      <point x="38" y="650"/>
      <point x="39" y="600"/>
      <point x="38" y="550" type="curve" smooth="yes"/>
      <point x="36" y="403"/>
      <point x="49" y="257"/>
      <point x="71" y="112" type="curve" smooth="yes"/>
      <point x="76" y="79"/>
      <point x="95" y="30"/>
      <point x="114" y="3" type="curve" smooth="yes"/>
      <point x="146" y="-43"/>
      <point x="194" y="-48"/>
      <point x="235" y="-11" type="curve"/>
      <point x="241" y="-5"/>
      <point x="250" y="6"/>
      <point x="255" y="13" type="curve"/>
    </contour>
    <contour>
      <point x="189" y="76" type="line"/>
      <point x="178" y="59"/>
      <point x="166" y="60"/>
      <point x="157" y="79" type="curve" smooth="yes"/>
      <point x="154" y="85"/>
      <point x="151" y="95"/>
      <point x="150" y="101" type="curve" smooth="yes"/>
      <point x="145" y="137"/>
      <point x="139" y="173"/>
      <point x="137" y="209" type="curve" smooth="yes"/>
      <point x="129" y="321"/>
      <point x="119" y="433"/>
      <point x="125" y="545" type="curve" smooth="yes"/>
      <point x="127" y="575"/>
      <point x="134" y="624"/>
      <point x="140" y="654" type="curve"/>
      <point x="142" y="667"/>
      <point x="150" y="679"/>
      <point x="158" y="690" type="curve" smooth="yes"/>
      <point x="167" y="702"/>
      <point x="176" y="701"/>
      <point x="184" y="688" type="curve"/>
      <point x="188" y="682"/>
      <point x="192" y="671"/>
      <point x="194" y="664" type="curve" smooth="yes"/>
      <point x="232" y="536"/>
      <point x="249" y="406"/>
      <point x="236" y="273" type="curve" smooth="yes"/>
      <point x="234" y="254"/>
      <point x="229" y="235"/>
      <point x="225" y="214" type="curve"/>
      <point x="217" y="219"/>
      <point x="212" y="223"/>
      <point x="206" y="226" type="curve"/>
      <point x="206" y="224" type="line"/>
      <point x="193" y="231"/>
      <point x="187" y="229"/>
      <point x="182" y="216" type="curve" smooth="yes"/>
      <point x="176" y="199"/>
      <point x="171" y="182"/>
      <point x="165" y="165" type="curve" smooth="yes"/>
      <point x="164" y="162"/>
      <point x="163" y="158"/>
      <point x="163" y="155" type="curve" smooth="yes"/>
      <point x="163" y="149"/>
      <point x="167" y="141"/>
      <point x="171" y="137" type="curve" smooth="yes"/>
      <point x="182" y="126"/>
      <point x="192" y="115"/>
      <point x="203" y="103" type="curve"/>
    </contour>
  </outline>
</glyph>
<glyph name="R" format="1">
  <advance width="494"/>
  <unicode hex="0052"/>
  <outline>
    <contour>
      <point x="343" y="-17" type="curve" smooth="yes"/>
      <point x="369" y="-15"/>
      <point x="395" y="-12"/>
      <point x="420" y="-8" type="curve" smooth="yes"/>
      <point x="439" y="-5"/>
      <point x="443" y="2"/>
      <point x="436" y="18" type="curve" smooth="yes"/>
      <point x="416" y="63"/>
      <point x="396" y="108"/>
      <point x="374" y="152" type="curve" smooth="yes"/>
      <point x="371" y="158" type="line" smooth="yes"/>
      <point x="349" y="202"/>
      <point x="325" y="245"/>
      <point x="301" y="288" type="curve" smooth="yes"/>
      <point x="289" y="310"/>
      <point x="276" y="332"/>
      <point x="262" y="354" type="curve" smooth="yes"/>
      <point x="243" y="385"/>
      <point x="223" y="415"/>
      <point x="202" y="447" type="curve"/>
      <point x="223" y="458" type="line" smooth="yes"/>
      <point x="254" y="475"/>
      <point x="286" y="490"/>
      <point x="314" y="510" type="curve" smooth="yes"/>
      <point x="409" y="578"/>
      <point x="389" y="690"/>
      <point x="339" y="752" type="curve"/>
      <point x="331" y="761"/>
      <point x="316" y="773"/>
      <point x="305" y="779" type="curve" smooth="yes"/>
      <point x="247" y="813"/>
      <point x="184" y="811"/>
      <point x="120" y="806" type="curve"/>
      <point x="110" y="803" type="line"/>
      <point x="45" y="783" type="line"/>
      <point x="43" y="776"/>
      <point x="41" y="765"/>
      <point x="41" y="758" type="curve" smooth="yes"/>
      <point x="42" y="680"/>
      <point x="44" y="602"/>
      <point x="46" y="524" type="curve" smooth="yes"/>
      <point x="48" y="449"/>
      <point x="51" y="374"/>
      <point x="51" y="299" type="curve" smooth="yes"/>
      <point x="51" y="221"/>
      <point x="49" y="143"/>
      <point x="48" y="65" type="curve" smooth="yes"/>
      <point x="48" y="56"/>
      <point x="49" y="47"/>
      <point x="50" y="38" type="curve" smooth="yes"/>
      <point x="51" y="25"/>
      <point x="57" y="16"/>
      <point x="69" y="14" type="curve"/>
      <point x="83" y="11"/>
      <point x="106" y="8"/>
      <point x="120" y="7" type="curve" smooth="yes"/>
      <point x="135" y="6"/>
      <point x="140" y="11"/>
      <point x="141" y="26" type="curve" smooth="yes"/>
      <point x="142" y="41"/>
      <point x="141" y="56"/>
      <point x="141" y="71" type="curve"/>
      <point x="138" y="330" type="line"/>
      <point x="139" y="336"/>
      <point x="141" y="346"/>
      <point x="143" y="352" type="curve"/>
      <point x="148" y="344"/>
      <point x="150" y="341"/>
      <point x="151" y="338" type="curve"/>
      <point x="304" y="8" type="line" smooth="yes"/>
      <point x="315" y="-15"/>
      <point x="319" y="-19"/>
    </contour>
    <contour>
      <point x="142" y="510" type="curve"/>
      <point x="125" y="718" type="line"/>
      <point x="162" y="721"/>
      <point x="198" y="724"/>
      <point x="231" y="706" type="curve" smooth="yes"/>
      <point x="238" y="702"/>
      <point x="246" y="698"/>
      <point x="250" y="691" type="curve"/>
      <point x="261" y="675"/>
      <point x="270" y="646"/>
      <point x="270" y="626" type="curve" smooth="yes"/>
      <point x="270" y="618"/>
      <point x="268" y="605"/>
      <point x="266" y="597" type="curve" smooth="yes"/>
      <point x="264" y="589"/>
      <point x="257" y="579"/>
      <point x="251" y="574" type="curve"/>
      <point x="220" y="553"/>
      <point x="188" y="534"/>
      <point x="156" y="515" type="curve"/>
      <point x="152" y="513"/>
      <point x="146" y="511"/>
    </contour>
  </outline>
</glyph>
<glyph name="S" format="1">
  <advance width="599"/>
  <unicode hex="0053"/>
  <outline>
    <contour>
      <point x="296" y="-1" type="curve" smooth="yes"/>
      <point x="324" y="1"/>
      <point x="363" y="19"/>
      <point x="382" y="40" type="curve" smooth="yes"/>
      <point x="404" y="63"/>
      <point x="422" y="108"/>
      <point x="422" y="140" type="curve" smooth="yes"/>
      <point x="422" y="151" type="line"/>
      <point x="421" y="166" type="line" smooth="yes"/>
      <point x="416" y="252"/>
      <point x="385" y="329"/>
      <point x="344" y="403" type="curve" smooth="yes"/>
      <point x="317" y="452"/>
      <point x="292" y="502"/>
      <point x="269" y="552" type="curve" smooth="yes"/>
      <point x="253" y="587"/>
      <point x="260" y="622"/>
      <point x="275" y="657" type="curve" smooth="yes"/>
      <point x="290" y="690"/>
      <point x="341" y="703"/>
      <point x="368" y="687" type="curve"/>
      <point x="387" y="677"/>
      <point x="412" y="654"/>
      <point x="424" y="636" type="curve" smooth="yes"/>
      <point x="441" y="609"/>
      <point x="457" y="582"/>
      <point x="473" y="555" type="curve" smooth="yes"/>
      <point x="482" y="540"/>
      <point x="486" y="539"/>
      <point x="501" y="547" type="curve" smooth="yes"/>
      <point x="511" y="552"/>
      <point x="521" y="557"/>
      <point x="531" y="561" type="curve"/>
      <point x="542" y="566"/>
      <point x="544" y="574"/>
      <point x="540" y="584" type="curve"/>
      <point x="540" y="585" type="line"/>
      <point x="539" y="589"/>
      <point x="536" y="595"/>
      <point x="534" y="599" type="curve"/>
      <point x="512" y="636"/>
      <point x="491" y="674"/>
      <point x="467" y="709" type="curve" smooth="yes"/>
      <point x="446" y="740"/>
      <point x="412" y="757"/>
      <point x="381" y="777" type="curve"/>
      <point x="377" y="779"/>
      <point x="370" y="781"/>
      <point x="366" y="782" type="curve" smooth="yes"/>
      <point x="296" y="797"/>
      <point x="232" y="771"/>
      <point x="193" y="714" type="curve" smooth="yes"/>
      <point x="153" y="655"/>
      <point x="153" y="589"/>
      <point x="179" y="525" type="curve" smooth="yes"/>
      <point x="196" y="483"/>
      <point x="216" y="442"/>
      <point x="246" y="407" type="curve" smooth="yes"/>
      <point x="250" y="402"/>
      <point x="255" y="393"/>
      <point x="258" y="387" type="curve"/>
      <point x="297" y="316"/>
      <point x="312" y="239"/>
      <point x="318" y="160" type="curve" smooth="yes"/>
      <point x="319" y="145"/>
      <point x="314" y="129"/>
      <point x="308" y="115" type="curve" smooth="yes"/>
      <point x="300" y="96"/>
      <point x="288" y="91"/>
      <point x="268" y="95" type="curve" smooth="yes"/>
      <point x="239" y="101"/>
      <point x="212" y="113"/>
      <point x="198" y="142" type="curve" smooth="yes"/>
      <point x="187" y="165"/>
      <point x="178" y="189"/>
      <point x="170" y="213" type="curve" smooth="yes"/>
      <point x="155" y="257"/>
      <point x="142" y="301"/>
      <point x="126" y="344" type="curve" smooth="yes"/>
      <point x="117" y="369"/>
      <point x="113" y="370"/>
      <point x="88" y="366" type="curve" smooth="yes"/>
      <point x="68" y="363" type="line" smooth="yes"/>
      <point x="43" y="359"/>
      <point x="37" y="352"/>
      <point x="42" y="326" type="curve" smooth="yes"/>
      <point x="50" y="286"/>
      <point x="59" y="246"/>
      <point x="70" y="206" type="curve" smooth="yes"/>
      <point x="80" y="169"/>
      <point x="104" y="113"/>
      <point x="125" y="81" type="curve" smooth="yes"/>
      <point x="166" y="19"/>
      <point x="223" y="-7"/>
    </contour>
  </outline>
</glyph>
<glyph name="T" format="1">
  <advance width="466"/>
  <unicode hex="0054"/>
  <outline>
    <contour>
      <point x="193" y="31" type="curve" smooth="yes"/>
      <point x="205" y="33"/>
      <point x="217" y="36"/>
      <point x="229" y="37" type="curve" smooth="yes"/>
      <point x="242" y="38"/>
      <point x="247" y="45"/>
      <point x="248" y="57" type="curve" smooth="yes"/>
      <point x="253" y="114"/>
      <point x="261" y="171"/>
      <point x="263" y="228" type="curve" smooth="yes"/>
      <point x="268" y="353"/>
      <point x="270" y="478"/>
      <point x="273" y="603" type="curve" smooth="yes"/>
      <point x="273" y="634" type="line"/>
      <point x="320" y="634" type="line"/>
      <point x="341" y="633"/>
      <point x="361" y="631"/>
      <point x="381" y="631" type="curve" smooth="yes"/>
      <point x="400" y="631"/>
      <point x="404" y="635"/>
      <point x="406" y="653" type="curve" smooth="yes"/>
      <point x="408" y="678"/>
      <point x="410" y="703"/>
      <point x="411" y="728" type="curve" smooth="yes"/>
      <point x="412" y="744"/>
      <point x="408" y="749"/>
      <point x="392" y="750" type="curve"/>
      <point x="390" y="748" type="line"/>
      <point x="356" y="750"/>
      <point x="322" y="752"/>
      <point x="288" y="752" type="curve" smooth="yes"/>
      <point x="232" y="752"/>
      <point x="176" y="750"/>
      <point x="120" y="748" type="curve" smooth="yes"/>
      <point x="100" y="747"/>
      <point x="80" y="745"/>
      <point x="60" y="743" type="curve" smooth="yes"/>
      <point x="47" y="742"/>
      <point x="39" y="735"/>
      <point x="39" y="722" type="curve" smooth="yes"/>
      <point x="39" y="704" type="line" smooth="yes"/>
      <point x="39" y="696"/>
      <point x="40" y="682"/>
      <point x="41" y="674" type="curve"/>
      <point x="47" y="638"/>
      <point x="52" y="635"/>
      <point x="88" y="636" type="curve" smooth="yes"/>
      <point x="114" y="637"/>
      <point x="140" y="637"/>
      <point x="166" y="637" type="curve" smooth="yes"/>
      <point x="172" y="637"/>
      <point x="178" y="636"/>
      <point x="187" y="635" type="curve"/>
      <point x="185" y="565"/>
      <point x="183" y="497"/>
      <point x="180" y="429" type="curve" smooth="yes"/>
      <point x="176" y="336"/>
      <point x="171" y="243"/>
      <point x="166" y="150" type="curve" smooth="yes"/>
      <point x="160" y="60" type="line" smooth="yes"/>
      <point x="159" y="36"/>
      <point x="169" y="27"/>
    </contour>
  </outline>
</glyph>
<glyph name="U" format="1">
  <advance width="420"/>
  <unicode hex="0055"/>
  <outline>
    <contour>
      <point x="225" y="-8" type="curve"/>
      <point x="233" y="-8" type="line" smooth="yes"/>
      <point x="251" y="-8"/>
      <point x="274" y="4"/>
      <point x="285" y="18" type="curve" smooth="yes"/>
      <point x="307" y="45"/>
      <point x="319" y="76"/>
      <point x="326" y="109" type="curve" smooth="yes"/>
      <point x="342" y="182"/>
      <point x="355" y="301"/>
      <point x="355" y="375" type="curve" smooth="yes"/>
      <point x="355" y="382" type="line" smooth="yes"/>
      <point x="355" y="500"/>
      <point x="350" y="618"/>
      <point x="347" y="736" type="curve"/>
      <point x="347" y="745" type="line"/>
      <point x="355" y="747" type="line"/>
      <point x="354" y="758"/>
      <point x="348" y="764"/>
      <point x="337" y="764" type="curve" smooth="yes"/>
      <point x="274" y="764" type="line" smooth="yes"/>
      <point x="261" y="764"/>
      <point x="254" y="756"/>
      <point x="252" y="743" type="curve"/>
      <point x="251" y="738"/>
      <point x="250" y="730"/>
      <point x="250" y="725" type="curve" smooth="yes"/>
      <point x="250" y="633"/>
      <point x="248" y="541"/>
      <point x="251" y="449" type="curve" smooth="yes"/>
      <point x="254" y="367"/>
      <point x="251" y="286"/>
      <point x="246" y="205" type="curve" smooth="yes"/>
      <point x="245" y="185"/>
      <point x="243" y="165"/>
      <point x="240" y="146" type="curve" smooth="yes"/>
      <point x="238" y="133"/>
      <point x="235" y="120"/>
      <point x="217" y="113" type="curve"/>
      <point x="210" y="125"/>
      <point x="200" y="136"/>
      <point x="197" y="148" type="curve" smooth="yes"/>
      <point x="188" y="188"/>
      <point x="178" y="228"/>
      <point x="174" y="269" type="curve" smooth="yes"/>
      <point x="165" y="376"/>
      <point x="158" y="483"/>
      <point x="150" y="590" type="curve" smooth="yes"/>
      <point x="146" y="646"/>
      <point x="139" y="701"/>
      <point x="152" y="756" type="curve" smooth="yes"/>
      <point x="155" y="769"/>
      <point x="148" y="774"/>
      <point x="133" y="771" type="curve" smooth="yes"/>
      <point x="105" y="766"/>
      <point x="77" y="760"/>
      <point x="44" y="754" type="curve"/>
      <point x="41" y="743"/>
      <point x="34" y="728"/>
      <point x="34" y="713" type="curve" smooth="yes"/>
      <point x="35" y="632"/>
      <point x="27" y="551"/>
      <point x="39" y="470" type="curve" smooth="yes"/>
      <point x="50" y="395"/>
      <point x="48" y="319"/>
      <point x="64" y="245" type="curve" smooth="yes"/>
      <point x="76" y="188"/>
      <point x="85" y="130"/>
      <point x="109" y="76" type="curve" smooth="yes"/>
      <point x="131" y="26"/>
      <point x="170" y="-2"/>
    </contour>
  </outline>
</glyph>
<glyph name="V" format="1">
  <advance width="388"/>
  <unicode hex="0056"/>
  <outline>
    <contour>
      <point x="159" y="-5" type="curve" smooth="yes"/>
      <point x="185" y="3"/>
      <point x="211" y="9"/>
      <point x="239" y="8" type="curve"/>
      <point x="242" y="8" type="line" smooth="yes"/>
      <point x="250" y="8"/>
      <point x="257" y="14"/>
      <point x="258" y="22" type="curve"/>
      <point x="259" y="28"/>
      <point x="260" y="37"/>
      <point x="261" y="43" type="curve"/>
      <point x="279" y="202" type="line" smooth="yes"/>
      <point x="291" y="302"/>
      <point x="304" y="402"/>
      <point x="308" y="503" type="curve" smooth="yes"/>
      <point x="311" y="583"/>
      <point x="307" y="664"/>
      <point x="328" y="743" type="curve" smooth="yes"/>
      <point x="332" y="757"/>
      <point x="325" y="764"/>
      <point x="310" y="761" type="curve"/>
      <point x="311" y="764" type="line"/>
      <point x="299" y="762"/>
      <point x="287" y="759"/>
      <point x="275" y="757" type="curve" smooth="yes"/>
      <point x="232" y="750"/>
      <point x="231" y="749"/>
      <point x="230" y="705" type="curve" smooth="yes"/>
      <point x="230" y="692" type="line"/>
      <point x="226" y="636"/>
      <point x="223" y="580"/>
      <point x="218" y="524" type="curve" smooth="yes"/>
      <point x="214" y="472"/>
      <point x="208" y="420"/>
      <point x="203" y="368" type="curve" smooth="yes"/>
      <point x="201" y="351"/>
      <point x="200" y="334"/>
      <point x="198" y="317" type="curve"/>
      <point x="195" y="327"/>
      <point x="192" y="344"/>
      <point x="191" y="355" type="curve"/>
      <point x="186" y="391"/>
      <point x="182" y="428"/>
      <point x="176" y="464" type="curve" smooth="yes"/>
      <point x="161" y="554"/>
      <point x="144" y="644"/>
      <point x="128" y="734" type="curve" smooth="yes"/>
      <point x="125" y="751"/>
      <point x="118" y="758"/>
      <point x="102" y="753" type="curve" smooth="yes"/>
      <point x="81" y="746"/>
      <point x="61" y="737"/>
      <point x="40" y="729" type="curve"/>
      <point x="40" y="722"/>
      <point x="40" y="717"/>
      <point x="41" y="712" type="curve"/>
      <point x="46" y="670"/>
      <point x="50" y="628"/>
      <point x="56" y="586" type="curve" smooth="yes"/>
      <point x="68" y="498"/>
      <point x="81" y="410"/>
      <point x="93" y="322" type="curve" smooth="yes"/>
      <point x="102" y="262"/>
      <point x="111" y="202"/>
      <point x="119" y="142" type="curve" smooth="yes"/>
      <point x="125" y="100"/>
      <point x="128" y="57"/>
      <point x="133" y="14" type="curve" smooth="yes"/>
      <point x="135" y="-4"/>
      <point x="142" y="-10"/>
    </contour>
  </outline>
</glyph>
<glyph name="W" format="1">
  <advance width="554"/>
  <unicode hex="0057"/>
  <outline>
    <contour>
      <point x="363" y="0" type="curve"/>
      <point x="435" y="6" type="line" smooth="yes"/>
      <point x="453" y="7"/>
      <point x="458" y="11"/>
      <point x="459" y="28" type="curve" smooth="yes"/>
      <point x="462" y="110"/>
      <point x="468" y="192"/>
      <point x="467" y="274" type="curve" smooth="yes"/>
      <point x="465" y="439"/>
      <point x="480" y="603"/>
      <point x="489" y="767" type="curve" smooth="yes"/>
      <point x="490" y="787"/>
      <point x="484" y="792"/>
      <point x="465" y="787" type="curve"/>
      <point x="472" y="785" type="line"/>
      <point x="455" y="781"/>
      <point x="438" y="776"/>
      <point x="421" y="772" type="curve" smooth="yes"/>
      <point x="411" y="770"/>
      <point x="407" y="764"/>
      <point x="406" y="754" type="curve" smooth="yes"/>
      <point x="402" y="705"/>
      <point x="397" y="656"/>
      <point x="394" y="607" type="curve" smooth="yes"/>
      <point x="390" y="544"/>
      <point x="387" y="480"/>
      <point x="383" y="417" type="curve"/>
      <point x="379" y="399" type="line"/>
      <point x="368" y="455"/>
      <point x="359" y="511"/>
      <point x="350" y="567" type="curve" smooth="yes"/>
      <point x="346" y="591"/>
      <point x="338" y="597"/>
      <point x="313" y="596" type="curve" smooth="yes"/>
      <point x="232" y="593" type="line" smooth="yes"/>
      <point x="203" y="592"/>
      <point x="198" y="588"/>
      <point x="193" y="560" type="curve" smooth="yes"/>
      <point x="192" y="555"/>
      <point x="192" y="550"/>
      <point x="191" y="545" type="curve"/>
      <point x="176" y="419" type="line"/>
      <point x="175" y="416"/>
      <point x="173" y="411"/>
      <point x="171" y="408" type="curve"/>
      <point x="163" y="450"/>
      <point x="161" y="491"/>
      <point x="156" y="532" type="curve" smooth="yes"/>
      <point x="149" y="593"/>
      <point x="140" y="654"/>
      <point x="132" y="715" type="curve"/>
      <point x="132" y="724"/>
      <point x="125" y="731"/>
      <point x="116" y="731" type="curve" smooth="yes"/>
      <point x="113" y="731" type="line"/>
      <point x="95" y="730"/>
      <point x="77" y="729"/>
      <point x="59" y="727" type="curve" smooth="yes"/>
      <point x="38" y="724"/>
      <point x="34" y="719"/>
      <point x="36" y="698" type="curve" smooth="yes"/>
      <point x="45" y="608" type="line" smooth="yes"/>
      <point x="58" y="489"/>
      <point x="71" y="370"/>
      <point x="84" y="251" type="curve" smooth="yes"/>
      <point x="108" y="26" type="line" smooth="yes"/>
      <point x="110" y="5"/>
      <point x="114" y="2"/>
      <point x="136" y="3" type="curve" smooth="yes"/>
      <point x="152" y="4"/>
      <point x="168" y="6"/>
      <point x="184" y="7" type="curve" smooth="yes"/>
      <point x="214" y="9"/>
      <point x="215" y="9"/>
      <point x="218" y="39" type="curve" smooth="yes"/>
      <point x="242" y="270" type="line" smooth="yes"/>
      <point x="248" y="325"/>
      <point x="262" y="378"/>
      <point x="274" y="431" type="curve"/>
      <point x="280" y="431" type="line"/>
      <point x="281" y="428"/>
      <point x="282" y="423"/>
      <point x="283" y="420" type="curve"/>
      <point x="307" y="231" type="line" smooth="yes"/>
      <point x="316" y="161"/>
      <point x="325" y="91"/>
      <point x="335" y="21" type="curve" smooth="yes"/>
      <point x="338" y="1"/>
      <point x="342" y="-1"/>
    </contour>
  </outline>
</glyph>
<glyph name="X" format="1">
  <advance width="541"/>
  <unicode hex="0058"/>
  <outline>
    <contour>
      <point x="105" y="-33" type="line"/>
      <point x="116" y="-38"/>
      <point x="123" y="-35"/>
      <point x="128" y="-25" type="curve" smooth="yes"/>
      <point x="130" y="-21"/>
      <point x="132" y="-17"/>
      <point x="133" y="-13" type="curve"/>
      <point x="220" y="206" type="line" smooth="yes"/>
      <point x="226" y="222"/>
      <point x="233" y="237"/>
      <point x="242" y="258" type="curve"/>
      <point x="246" y="250"/>
      <point x="248" y="247"/>
      <point x="249" y="244" type="curve" smooth="yes"/>
      <point x="274" y="167"/>
      <point x="299" y="90"/>
      <point x="323" y="13" type="curve" smooth="yes"/>
      <point x="333" y="-18"/>
      <point x="341" y="-27"/>
      <point x="381" y="-16" type="curve"/>
      <point x="403" y="-9" type="line"/>
      <point x="414" y="-4"/>
      <point x="418" y="5"/>
      <point x="414" y="17" type="curve" smooth="yes"/>
      <point x="399" y="62" type="line"/>
      <point x="403" y="61" type="line"/>
      <point x="388" y="107"/>
      <point x="373" y="153"/>
      <point x="359" y="199" type="curve" smooth="yes"/>
      <point x="343" y="252"/>
      <point x="329" y="306"/>
      <point x="313" y="359" type="curve"/>
      <point x="311" y="364"/>
      <point x="309" y="373"/>
      <point x="309" y="379" type="curve" smooth="yes"/>
      <point x="309" y="387"/>
      <point x="312" y="399"/>
      <point x="315" y="406" type="curve"/>
      <point x="346" y="469"/>
      <point x="375" y="533"/>
      <point x="404" y="597" type="curve" smooth="yes"/>
      <point x="421" y="634"/>
      <point x="437" y="671"/>
      <point x="452" y="708" type="curve" smooth="yes"/>
      <point x="463" y="734"/>
      <point x="472" y="761"/>
      <point x="481" y="788" type="curve" smooth="yes"/>
      <point x="486" y="803"/>
      <point x="481" y="810"/>
      <point x="465" y="812" type="curve" smooth="yes"/>
      <point x="457" y="813"/>
      <point x="448" y="811"/>
      <point x="440" y="813" type="curve" smooth="yes"/>
      <point x="415" y="819"/>
      <point x="402" y="808"/>
      <point x="392" y="786" type="curve" smooth="yes"/>
      <point x="366" y="727"/>
      <point x="339" y="669"/>
      <point x="312" y="611" type="curve" smooth="yes"/>
      <point x="298" y="581"/>
      <point x="283" y="551"/>
      <point x="267" y="518" type="curve"/>
      <point x="260" y="533" type="line"/>
      <point x="230" y="624"/>
      <point x="200" y="715"/>
      <point x="170" y="806" type="curve"/>
      <point x="161" y="830" type="line" smooth="yes"/>
      <point x="157" y="841"/>
      <point x="149" y="844"/>
      <point x="139" y="838" type="curve"/>
      <point x="128" y="832"/>
      <point x="117" y="825"/>
      <point x="106" y="818" type="curve" smooth="yes"/>
      <point x="93" y="810"/>
      <point x="87" y="799"/>
      <point x="92" y="783" type="curve" smooth="yes"/>
      <point x="94" y="776"/>
      <point x="95" y="768"/>
      <point x="97" y="761" type="curve" smooth="yes"/>
      <point x="110" y="718"/>
      <point x="124" y="675"/>
      <point x="137" y="632" type="curve" smooth="yes"/>
      <point x="158" y="562"/>
      <point x="178" y="491"/>
      <point x="200" y="421" type="curve"/>
      <point x="202" y="416"/>
      <point x="203" y="408"/>
      <point x="203" y="403" type="curve" smooth="yes"/>
      <point x="203" y="396"/>
      <point x="201" y="385"/>
      <point x="198" y="379" type="curve"/>
      <point x="87" y="121" type="line" smooth="yes"/>
      <point x="80" y="105"/>
      <point x="71" y="90"/>
      <point x="64" y="74" type="curve" smooth="yes"/>
      <point x="55" y="55"/>
      <point x="46" y="36"/>
      <point x="39" y="16" type="curve" smooth="yes"/>
      <point x="34" y="1"/>
      <point x="39" y="-6"/>
      <point x="54" y="-12" type="curve" smooth="yes"/>
    </contour>
  </outline>
</glyph>
<glyph name="Y" format="1">
  <advance width="494"/>
  <unicode hex="0059"/>
  <outline>
    <contour>
      <point x="237" y="-42" type="curve" smooth="yes"/>
      <point x="255" y="-41"/>
      <point x="273" y="-39"/>
      <point x="291" y="-37" type="curve" smooth="yes"/>
      <point x="304" y="-36"/>
      <point x="310" y="-29"/>
      <point x="310" y="-15" type="curve" smooth="yes"/>
      <point x="310" y="20"/>
      <point x="311" y="55"/>
      <point x="310" y="90" type="curve" smooth="yes"/>
      <point x="308" y="167"/>
      <point x="305" y="244"/>
      <point x="302" y="321" type="curve"/>
      <point x="302" y="324" type="line" smooth="yes"/>
      <point x="302" y="336"/>
      <point x="306" y="354"/>
      <point x="311" y="364" type="curve" smooth="yes"/>
      <point x="319" y="381"/>
      <point x="330" y="409"/>
      <point x="336" y="427" type="curve" smooth="yes"/>
      <point x="367" y="520"/>
      <point x="389" y="615"/>
      <point x="408" y="711" type="curve" smooth="yes"/>
      <point x="432" y="831" type="line" smooth="yes"/>
      <point x="435" y="847"/>
      <point x="433" y="853"/>
      <point x="421" y="855" type="curve"/>
      <point x="423" y="852" type="line"/>
      <point x="403" y="855"/>
      <point x="382" y="856"/>
      <point x="362" y="857" type="curve"/>
      <point x="351" y="857"/>
      <point x="345" y="851"/>
      <point x="343" y="840" type="curve" smooth="yes"/>
      <point x="335" y="795"/>
      <point x="327" y="750"/>
      <point x="317" y="706" type="curve" smooth="yes"/>
      <point x="301" y="633"/>
      <point x="283" y="561"/>
      <point x="266" y="489" type="curve"/>
      <point x="259" y="489" type="line"/>
      <point x="257" y="493"/>
      <point x="255" y="497"/>
      <point x="254" y="501" type="curve"/>
      <point x="221" y="599"/>
      <point x="185" y="696"/>
      <point x="139" y="789" type="curve" smooth="yes"/>
      <point x="115" y="836"/>
      <point x="116" y="837"/>
      <point x="65" y="826" type="curve" smooth="yes"/>
      <point x="37" y="820"/>
      <point x="33" y="813"/>
      <point x="44" y="787" type="curve" smooth="yes"/>
      <point x="59" y="752"/>
      <point x="77" y="718"/>
      <point x="90" y="682" type="curve" smooth="yes"/>
      <point x="129" y="572"/>
      <point x="167" y="461"/>
      <point x="205" y="350" type="curve"/>
      <point x="207" y="343"/>
      <point x="209" y="332"/>
      <point x="209" y="325" type="curve"/>
      <point x="210" y="299"/>
      <point x="209" y="273"/>
      <point x="209" y="247" type="curve" smooth="yes"/>
      <point x="210" y="157"/>
      <point x="206" y="67"/>
      <point x="217" y="-23" type="curve" smooth="yes"/>
      <point x="219" y="-40"/>
      <point x="221" y="-43"/>
    </contour>
  </outline>
</glyph>
<glyph name="Z" format="1">
  <advance width="500"/>
  <unicode hex="005A"/>
  <outline>
    <contour>
      <point x="67" y="30" type="curve" smooth="yes"/>
      <point x="97" y="31"/>
      <point x="127" y="34"/>
      <point x="157" y="36" type="curve" smooth="yes"/>
      <point x="213" y="40"/>
      <point x="269" y="44"/>
      <point x="325" y="47" type="curve" smooth="yes"/>
      <point x="340" y="48"/>
      <point x="356" y="46"/>
      <point x="371" y="46" type="curve"/>
      <point x="387" y="47"/>
      <point x="390" y="51"/>
      <point x="391" y="67" type="curve" smooth="yes"/>
      <point x="392" y="87"/>
      <point x="393" y="107"/>
      <point x="393" y="127" type="curve" smooth="yes"/>
      <point x="393" y="154"/>
      <point x="387" y="158"/>
      <point x="361" y="156" type="curve" smooth="yes"/>
      <point x="295" y="151"/>
      <point x="229" y="148"/>
      <point x="158" y="144" type="curve"/>
      <point x="162" y="152"/>
      <point x="164" y="157"/>
      <point x="167" y="162" type="curve" smooth="yes"/>
      <point x="196" y="210"/>
      <point x="223" y="258"/>
      <point x="253" y="305" type="curve"/>
      <point x="246" y="307" type="line"/>
      <point x="272" y="349"/>
      <point x="300" y="390"/>
      <point x="329" y="430" type="curve" smooth="yes"/>
      <point x="363" y="478"/>
      <point x="399" y="525"/>
      <point x="434" y="573" type="curve"/>
      <point x="438" y="578"/>
      <point x="442" y="587"/>
      <point x="443" y="593" type="curve"/>
      <point x="442" y="627"/>
      <point x="440" y="661"/>
      <point x="438" y="695" type="curve" smooth="yes"/>
      <point x="437" y="716"/>
      <point x="435" y="720"/>
      <point x="415" y="720" type="curve" smooth="yes"/>
      <point x="356" y="719"/>
      <point x="297" y="717"/>
      <point x="238" y="715" type="curve" smooth="yes"/>
      <point x="218" y="714"/>
      <point x="198" y="714"/>
      <point x="178" y="714" type="curve" smooth="yes"/>
      <point x="149" y="714"/>
      <point x="120" y="713"/>
      <point x="91" y="713" type="curve" smooth="yes"/>
      <point x="77" y="713"/>
      <point x="71" y="706"/>
      <point x="70" y="693" type="curve" smooth="yes"/>
      <point x="69" y="671"/>
      <point x="68" y="649"/>
      <point x="68" y="627" type="curve" smooth="yes"/>
      <point x="68" y="611"/>
      <point x="72" y="607"/>
      <point x="88" y="606" type="curve"/>
      <point x="97" y="605"/>
      <point x="112" y="604"/>
      <point x="121" y="604" type="curve" smooth="yes"/>
      <point x="139" y="604" type="line"/>
      <point x="163" y="606"/>
      <point x="187" y="611"/>
      <point x="211" y="613" type="curve" smooth="yes"/>
      <point x="249" y="616"/>
      <point x="288" y="617"/>
      <point x="327" y="618" type="curve" smooth="yes"/>
      <point x="332" y="618"/>
      <point x="337" y="617"/>
      <point x="345" y="616" type="curve"/>
      <point x="328" y="589" type="line" smooth="yes"/>
      <point x="306" y="556"/>
      <point x="284" y="523"/>
      <point x="263" y="489" type="curve" smooth="yes"/>
      <point x="233" y="440"/>
      <point x="205" y="390"/>
      <point x="174" y="342" type="curve" smooth="yes"/>
      <point x="138" y="285"/>
      <point x="106" y="225"/>
      <point x="60" y="175" type="curve"/>
      <point x="55" y="169"/>
      <point x="50" y="158"/>
      <point x="49" y="150" type="curve" smooth="yes"/>
      <point x="46" y="118"/>
      <point x="44" y="86"/>
      <point x="43" y="54" type="curve" smooth="yes"/>
      <point x="43" y="33"/>
      <point x="47" y="29"/>
    </contour>
  </outline>
</glyph>
<glyph name="bracketleft" format="1">
  <advance width="331"/>
  <unicode hex="005B"/>
  <outline>
    <contour>
      <point x="41" y="-162" type="curve" smooth="yes"/>
      <point x="61" y="-162" type="line" smooth="yes"/>
      <point x="117" y="-162"/>
      <point x="167" y="-157"/>
      <point x="223" y="-157" type="curve"/>
      <point x="288" y="-152"/>
      <point x="283" y="-132"/>
      <point x="268" y="-87" type="curve"/>
      <point x="263" y="-66"/>
      <point x="258" y="-61"/>
      <point x="238" y="-61" type="curve" smooth="yes"/>
      <point x="122" y="-61" type="line" smooth="yes"/>
      <point x="117" y="-61"/>
      <point x="112" y="-61"/>
      <point x="102" y="-61" type="curve"/>
      <point x="102" y="-46"/>
      <point x="107" y="-36"/>
      <point x="107" y="-21" type="curve"/>
      <point x="112" y="100"/>
      <point x="117" y="226"/>
      <point x="127" y="352" type="curve"/>
      <point x="127" y="392"/>
      <point x="127" y="437"/>
      <point x="132" y="478" type="curve" smooth="yes"/>
      <point x="142" y="558"/>
      <point x="152" y="634"/>
      <point x="147" y="709" type="curve"/>
      <point x="147" y="724" type="line"/>
      <point x="152" y="729"/>
      <point x="162" y="729"/>
      <point x="167" y="729" type="curve" smooth="yes"/>
      <point x="202" y="729"/>
      <point x="233" y="729"/>
      <point x="268" y="734" type="curve"/>
      <point x="288" y="734"/>
      <point x="293" y="739"/>
      <point x="298" y="760" type="curve"/>
      <point x="298" y="770" type="line"/>
      <point x="303" y="805"/>
      <point x="293" y="815"/>
      <point x="263" y="815" type="curve" smooth="yes"/>
      <point x="213" y="815"/>
      <point x="162" y="815"/>
      <point x="117" y="810" type="curve"/>
      <point x="61" y="810"/>
      <point x="56" y="805"/>
      <point x="61" y="750" type="curve"/>
      <point x="66" y="563"/>
      <point x="46" y="372"/>
      <point x="36" y="185" type="curve"/>
      <point x="6" y="-122" type="line"/>
      <point x="6" y="-157"/>
      <point x="11" y="-162"/>
    </contour>
  </outline>
</glyph>
<glyph name="backslash" format="1">
  <advance width="422"/>
  <unicode hex="005C"/>
  <outline>
    <contour>
      <point x="335" y="-117" type="curve"/>
      <point x="345" y="-115"/>
      <point x="358" y="-115"/>
      <point x="368" y="-113" type="curve"/>
      <point x="393" y="-111"/>
      <point x="401" y="-95"/>
      <point x="392" y="-65" type="curve"/>
      <point x="374" y="-12"/>
      <point x="357" y="43"/>
      <point x="336" y="97" type="curve"/>
      <point x="291" y="229"/>
      <point x="245" y="359"/>
      <point x="200" y="490" type="curve" smooth="yes"/>
      <point x="172" y="567"/>
      <point x="143" y="643"/>
      <point x="113" y="719" type="curve" smooth="yes"/>
      <point x="106" y="738"/>
      <point x="96" y="754"/>
      <point x="87" y="774" type="curve" smooth="yes"/>
      <point x="79" y="792"/>
      <point x="66" y="799"/>
      <point x="51" y="797" type="curve"/>
      <point x="20" y="794"/>
      <point x="7" y="774"/>
      <point x="16" y="738" type="curve" smooth="yes"/>
      <point x="21" y="720"/>
      <point x="27" y="703"/>
      <point x="34" y="685" type="curve" smooth="yes"/>
      <point x="75" y="578"/>
      <point x="116" y="472"/>
      <point x="148" y="359" type="curve"/>
      <point x="159" y="327"/>
      <point x="170" y="292"/>
      <point x="184" y="261" type="curve"/>
      <point x="228" y="151"/>
      <point x="259" y="34"/>
      <point x="292" y="-80" type="curve" smooth="yes"/>
      <point x="302" y="-117"/>
      <point x="306" y="-119"/>
    </contour>
  </outline>
</glyph>
<glyph name="bracketright" format="1">
  <advance width="341"/>
  <unicode hex="005D"/>
  <outline>
    <contour>
      <point x="55" y="-172" type="curve"/>
      <point x="100" y="-167"/>
      <point x="141" y="-167"/>
      <point x="181" y="-167" type="curve" smooth="yes"/>
      <point x="211" y="-167"/>
      <point x="247" y="-162"/>
      <point x="282" y="-162" type="curve"/>
      <point x="297" y="-157"/>
      <point x="302" y="-157"/>
      <point x="302" y="-137" type="curve" smooth="yes"/>
      <point x="302" y="-117" type="line" smooth="yes"/>
      <point x="302" y="49"/>
      <point x="302" y="216"/>
      <point x="302" y="382" type="curve" smooth="yes"/>
      <point x="302" y="432" type="line"/>
      <point x="307" y="488"/>
      <point x="312" y="543"/>
      <point x="312" y="598" type="curve" smooth="yes"/>
      <point x="312" y="664"/>
      <point x="312" y="724"/>
      <point x="317" y="785" type="curve"/>
      <point x="317" y="800"/>
      <point x="312" y="805"/>
      <point x="297" y="805" type="curve" smooth="yes"/>
      <point x="277" y="805" type="line" smooth="yes"/>
      <point x="226" y="805"/>
      <point x="176" y="805"/>
      <point x="126" y="805" type="curve" smooth="yes"/>
      <point x="50" y="805" type="line" smooth="yes"/>
      <point x="35" y="805"/>
      <point x="15" y="790"/>
      <point x="15" y="770" type="curve" smooth="yes"/>
      <point x="15" y="755"/>
      <point x="15" y="739"/>
      <point x="20" y="719" type="curve"/>
      <point x="25" y="704"/>
      <point x="30" y="699"/>
      <point x="45" y="699" type="curve" smooth="yes"/>
      <point x="75" y="699"/>
      <point x="100" y="704"/>
      <point x="131" y="704" type="curve" smooth="yes"/>
      <point x="226" y="704" type="line"/>
      <point x="226" y="699"/>
      <point x="231" y="694"/>
      <point x="231" y="689" type="curve"/>
      <point x="226" y="619"/>
      <point x="226" y="553"/>
      <point x="221" y="488" type="curve"/>
      <point x="221" y="402"/>
      <point x="216" y="311"/>
      <point x="211" y="226" type="curve"/>
      <point x="211" y="-46" type="line" smooth="yes"/>
      <point x="211" y="-56"/>
      <point x="211" y="-61"/>
      <point x="211" y="-66" type="curve"/>
      <point x="206" y="-72"/>
      <point x="201" y="-72"/>
      <point x="201" y="-72" type="curve"/>
      <point x="146" y="-72"/>
      <point x="95" y="-77"/>
      <point x="45" y="-77" type="curve" smooth="yes"/>
      <point x="20" y="-77"/>
      <point x="20" y="-77"/>
      <point x="20" y="-102" type="curve" smooth="yes"/>
      <point x="20" y="-117"/>
      <point x="25" y="-132"/>
      <point x="25" y="-147" type="curve"/>
      <point x="30" y="-167"/>
      <point x="35" y="-172"/>
    </contour>
  </outline>
</glyph>
<glyph name="underscore" format="1">
  <advance width="634"/>
  <unicode hex="005F"/>
  <outline>
    <contour>
      <point x="47" y="-155" type="curve" smooth="yes"/>
      <point x="53" y="-154"/>
      <point x="59" y="-155"/>
      <point x="66" y="-155" type="curve"/>
      <point x="64" y="-154" type="line"/>
      <point x="148" y="-146"/>
      <point x="500" y="-138"/>
      <point x="583" y="-130" type="curve" smooth="yes"/>
      <point x="604" y="-128"/>
      <point x="614" y="-105"/>
      <point x="610" y="-77" type="curve" smooth="yes"/>
      <point x="601" y="-15"/>
      <point x="598" y="-14"/>
      <point x="552" y="-21" type="curve" smooth="yes"/>
      <point x="488" y="-30"/>
      <point x="154" y="-40"/>
      <point x="90" y="-48" type="curve"/>
      <point x="75" y="-51"/>
      <point x="58" y="-49"/>
      <point x="43" y="-52" type="curve"/>
      <point x="23" y="-53"/>
      <point x="11" y="-80"/>
      <point x="11" y="-107" type="curve" smooth="yes"/>
      <point x="11" y="-132"/>
      <point x="26" y="-159"/>
    </contour>
  </outline>
</glyph>
<glyph name="a" format="1">
  <advance width="448"/>
  <unicode hex="0061"/>
  <outline>
    <contour>
      <point x="323" y="-116" type="curve" smooth="yes"/>
      <point x="342" y="-116"/>
      <point x="361" y="-114"/>
      <point x="380" y="-112" type="curve" smooth="yes"/>
      <point x="409" y="-109"/>
      <point x="412" y="-105"/>
      <point x="407" y="-76" type="curve"/>
      <point x="407" y="-79" type="line"/>
      <point x="401" y="-42"/>
      <point x="394" y="-5"/>
      <point x="390" y="32" type="curve" smooth="yes"/>
      <point x="380" y="130"/>
      <point x="372" y="228"/>
      <point x="361" y="326" type="curve" smooth="yes"/>
      <point x="354" y="391"/>
      <point x="343" y="455"/>
      <point x="333" y="519" type="curve" smooth="yes"/>
      <point x="323" y="586"/>
      <point x="313" y="653"/>
      <point x="302" y="720" type="curve" smooth="yes"/>
      <point x="297" y="752"/>
      <point x="288" y="758"/>
      <point x="255" y="755" type="curve" smooth="yes"/>
      <point x="153" y="746" type="line" smooth="yes"/>
      <point x="119" y="743"/>
      <point x="113" y="738"/>
      <point x="108" y="705" type="curve" smooth="yes"/>
      <point x="102" y="663"/>
      <point x="97" y="621"/>
      <point x="93" y="579" type="curve" smooth="yes"/>
      <point x="88" y="517"/>
      <point x="85" y="454"/>
      <point x="80" y="392" type="curve" smooth="yes"/>
      <point x="56" y="95" type="line" smooth="yes"/>
      <point x="51" y="38"/>
      <point x="47" y="-19"/>
      <point x="42" y="-76" type="curve" smooth="yes"/>
      <point x="40" y="-101"/>
      <point x="44" y="-106"/>
      <point x="70" y="-105" type="curve"/>
      <point x="84" y="-105"/>
      <point x="99" y="-104"/>
      <point x="113" y="-105" type="curve" smooth="yes"/>
      <point x="131" y="-106"/>
      <point x="135" y="-104"/>
      <point x="138" y="-87" type="curve" smooth="yes"/>
      <point x="142" y="-63"/>
      <point x="146" y="-38"/>
      <point x="150" y="-13" type="curve" smooth="yes"/>
      <point x="210" y="373" type="line" smooth="yes"/>
      <point x="211" y="381"/>
      <point x="213" y="389"/>
      <point x="214" y="397" type="curve"/>
      <point x="245" y="403" type="line"/>
      <point x="247" y="391"/>
      <point x="249" y="382"/>
      <point x="250" y="373" type="curve" smooth="yes"/>
      <point x="265" y="178" type="line" smooth="yes"/>
      <point x="270" y="117"/>
      <point x="274" y="55"/>
      <point x="279" y="-6" type="curve" smooth="yes"/>
      <point x="281" y="-33"/>
      <point x="284" y="-60"/>
      <point x="288" y="-87" type="curve" smooth="yes"/>
      <point x="292" y="-114"/>
      <point x="295" y="-116"/>
    </contour>
    <contour>
      <point x="205" y="489" type="curve" smooth="yes"/>
      <point x="200" y="489"/>
      <point x="192" y="490"/>
      <point x="187" y="492" type="curve"/>
      <point x="186" y="493" type="line"/>
      <point x="207" y="597" type="line"/>
      <point x="219" y="580"/>
      <point x="219" y="563"/>
      <point x="224" y="547" type="curve" smooth="yes"/>
      <point x="229" y="531"/>
      <point x="233" y="516"/>
      <point x="237" y="500" type="curve"/>
      <point x="229" y="494"/>
      <point x="215" y="489"/>
    </contour>
  </outline>
</glyph>
<glyph name="b" format="1">
  <advance width="455"/>
  <unicode hex="0062"/>
  <outline>
    <contour>
      <point x="92" y="-122" type="curve" smooth="yes"/>
      <point x="102" y="-122"/>
      <point x="118" y="-121"/>
      <point x="128" y="-120" type="curve" smooth="yes"/>
      <point x="177" y="-115"/>
      <point x="221" y="-96"/>
      <point x="264" y="-75" type="curve" smooth="yes"/>
      <point x="289" y="-63"/>
      <point x="327" y="-40"/>
      <point x="349" y="-24" type="curve" smooth="yes"/>
      <point x="381" y="-2"/>
      <point x="400" y="30"/>
      <point x="411" y="67" type="curve" smooth="yes"/>
      <point x="420" y="98"/>
      <point x="418" y="130"/>
      <point x="417" y="162" type="curve"/>
      <point x="414" y="163" type="line"/>
      <point x="413" y="207"/>
      <point x="406" y="251"/>
      <point x="387" y="291" type="curve" smooth="yes"/>
      <point x="360" y="348"/>
      <point x="324" y="397"/>
      <point x="259" y="415" type="curve" smooth="yes"/>
      <point x="240" y="420"/>
      <point x="221" y="424"/>
      <point x="198" y="429" type="curve"/>
      <point x="225" y="449"/>
      <point x="250" y="465"/>
      <point x="273" y="484" type="curve" smooth="yes"/>
      <point x="290" y="498"/>
      <point x="315" y="523"/>
      <point x="329" y="540" type="curve" smooth="yes"/>
      <point x="340" y="554"/>
      <point x="349" y="579"/>
      <point x="349" y="597" type="curve" smooth="yes"/>
      <point x="349" y="602"/>
      <point x="348" y="610"/>
      <point x="347" y="615" type="curve" smooth="yes"/>
      <point x="338" y="669"/>
      <point x="312" y="712"/>
      <point x="259" y="735" type="curve" smooth="yes"/>
      <point x="250" y="739"/>
      <point x="241" y="743"/>
      <point x="232" y="746" type="curve" smooth="yes"/>
      <point x="174" y="767"/>
      <point x="118" y="760"/>
      <point x="63" y="735" type="curve" smooth="yes"/>
      <point x="47" y="728"/>
      <point x="40" y="717"/>
      <point x="43" y="699" type="curve" smooth="yes"/>
      <point x="46" y="684"/>
      <point x="48" y="659"/>
      <point x="48" y="643" type="curve" smooth="yes"/>
      <point x="49" y="544"/>
      <point x="50" y="445"/>
      <point x="50" y="346" type="curve" smooth="yes"/>
      <point x="49" y="226"/>
      <point x="47" y="106"/>
      <point x="46" y="-14" type="curve" smooth="yes"/>
      <point x="46" y="-34"/>
      <point x="48" y="-66"/>
      <point x="51" y="-86" type="curve"/>
      <point x="54" y="-114"/>
      <point x="64" y="-122"/>
    </contour>
    <contour>
      <point x="142" y="-31" type="curve"/>
      <point x="137" y="302" type="line"/>
      <point x="173" y="313"/>
      <point x="206" y="304"/>
      <point x="239" y="297" type="curve" smooth="yes"/>
      <point x="257" y="293"/>
      <point x="267" y="280"/>
      <point x="274" y="265" type="curve" smooth="yes"/>
      <point x="296" y="219"/>
      <point x="301" y="170"/>
      <point x="285" y="123" type="curve"/>
      <point x="285" y="122" type="line"/>
      <point x="262" y="55"/>
      <point x="217" y="4"/>
      <point x="153" y="-29" type="curve"/>
      <point x="150" y="-30"/>
      <point x="145" y="-31"/>
    </contour>
    <contour>
      <point x="127" y="481" type="curve"/>
      <point x="121" y="484" type="line"/>
      <point x="114" y="686" type="line"/>
      <point x="129" y="686"/>
      <point x="143" y="688"/>
      <point x="156" y="686" type="curve"/>
      <point x="155" y="685" type="line"/>
      <point x="198" y="677"/>
      <point x="214" y="656"/>
      <point x="215" y="612" type="curve" smooth="yes"/>
      <point x="215" y="578"/>
      <point x="205" y="548"/>
      <point x="179" y="525" type="curve" smooth="yes"/>
      <point x="162" y="510"/>
      <point x="144" y="496"/>
    </contour>
  </outline>
</glyph>
<glyph name="c" format="1">
  <advance width="411"/>
  <unicode hex="0063"/>
  <outline>
    <contour>
      <point x="109" y="16" type="curve"/>
      <point x="182" y="-35"/>
      <point x="270" y="-19"/>
      <point x="320" y="55" type="curve" smooth="yes"/>
      <point x="364" y="120"/>
      <point x="372" y="194"/>
      <point x="369" y="270" type="curve"/>
      <point x="371" y="268" type="line"/>
      <point x="370" y="283"/>
      <point x="362" y="289"/>
      <point x="346" y="287" type="curve" smooth="yes"/>
      <point x="332" y="285"/>
      <point x="318" y="280"/>
      <point x="303" y="279" type="curve" smooth="yes"/>
      <point x="288" y="278"/>
      <point x="283" y="271"/>
      <point x="282" y="258" type="curve"/>
      <point x="281" y="250"/>
      <point x="281" y="242"/>
      <point x="280" y="234" type="curve" smooth="yes"/>
      <point x="275" y="199"/>
      <point x="272" y="164"/>
      <point x="253" y="133" type="curve" smooth="yes"/>
      <point x="233" y="99"/>
      <point x="191" y="94"/>
      <point x="166" y="126" type="curve" smooth="yes"/>
      <point x="157" y="137"/>
      <point x="147" y="156"/>
      <point x="143" y="169" type="curve"/>
      <point x="138" y="190"/>
      <point x="133" y="224"/>
      <point x="132" y="245" type="curve"/>
      <point x="132" y="281" type="line" smooth="yes"/>
      <point x="132" y="323"/>
      <point x="137" y="391"/>
      <point x="143" y="433" type="curve" smooth="yes"/>
      <point x="149" y="475"/>
      <point x="160" y="515"/>
      <point x="182" y="552" type="curve" smooth="yes"/>
      <point x="198" y="579"/>
      <point x="224" y="578"/>
      <point x="239" y="550" type="curve"/>
      <point x="246" y="538"/>
      <point x="255" y="517"/>
      <point x="259" y="503" type="curve" smooth="yes"/>
      <point x="267" y="477"/>
      <point x="269" y="475"/>
      <point x="296" y="481" type="curve" smooth="yes"/>
      <point x="301" y="482"/>
      <point x="306" y="484"/>
      <point x="311" y="485" type="curve"/>
      <point x="325" y="487"/>
      <point x="331" y="495"/>
      <point x="329" y="508" type="curve" smooth="yes"/>
      <point x="324" y="540"/>
      <point x="319" y="573"/>
      <point x="301" y="601" type="curve" smooth="yes"/>
      <point x="265" y="659"/>
      <point x="180" y="668"/>
      <point x="128" y="620" type="curve" smooth="yes"/>
      <point x="111" y="605"/>
      <point x="91" y="576"/>
      <point x="83" y="555" type="curve" smooth="yes"/>
      <point x="75" y="532"/>
      <point x="64" y="494"/>
      <point x="59" y="470" type="curve" smooth="yes"/>
      <point x="44" y="402"/>
      <point x="42" y="333"/>
      <point x="38" y="263" type="curve"/>
      <point x="40" y="225"/>
      <point x="42" y="187"/>
      <point x="45" y="149" type="curve" smooth="yes"/>
      <point x="47" y="119"/>
      <point x="62" y="75"/>
      <point x="78" y="50" type="curve" smooth="yes"/>
      <point x="85" y="39"/>
      <point x="99" y="24"/>
    </contour>
  </outline>
</glyph>
<glyph name="d" format="1">
  <advance width="462"/>
  <unicode hex="0064"/>
  <outline>
    <contour>
      <point x="84" y="-42" type="curve"/>
      <point x="87" y="-42" type="line" smooth="yes"/>
      <point x="91" y="-42"/>
      <point x="97" y="-41"/>
      <point x="101" y="-40" type="curve"/>
      <point x="191" y="-23"/>
      <point x="272" y="15"/>
      <point x="345" y="69" type="curve" smooth="yes"/>
      <point x="396" y="107"/>
      <point x="419" y="162"/>
      <point x="422" y="225" type="curve" smooth="yes"/>
      <point x="425" y="275"/>
      <point x="410" y="323"/>
      <point x="398" y="371" type="curve" smooth="yes"/>
      <point x="382" y="434"/>
      <point x="334" y="525"/>
      <point x="290" y="573" type="curve"/>
      <point x="290" y="572" type="line"/>
      <point x="259" y="607"/>
      <point x="198" y="646"/>
      <point x="154" y="660" type="curve" smooth="yes"/>
      <point x="138" y="665"/>
      <point x="122" y="670"/>
      <point x="106" y="676" type="curve" smooth="yes"/>
      <point x="80" y="685"/>
      <point x="57" y="682"/>
      <point x="40" y="661" type="curve"/>
      <point x="42" y="652"/>
      <point x="45" y="637"/>
      <point x="46" y="628" type="curve"/>
      <point x="47" y="603"/>
      <point x="47" y="578"/>
      <point x="48" y="553" type="curve" smooth="yes"/>
      <point x="53" y="445"/>
      <point x="58" y="337"/>
      <point x="63" y="229" type="curve" smooth="yes"/>
      <point x="72" y="40" type="line" smooth="yes"/>
      <point x="73" y="19"/>
      <point x="78" y="-2"/>
      <point x="70" y="-23" type="curve" smooth="yes"/>
      <point x="66" y="-33"/>
      <point x="73" y="-41"/>
    </contour>
    <contour>
      <point x="169" y="91" type="curve"/>
      <point x="151" y="252"/>
      <point x="155" y="408"/>
      <point x="123" y="565" type="curve"/>
      <point x="160" y="542"/>
      <point x="197" y="527"/>
      <point x="224" y="498" type="curve"/>
      <point x="246" y="476"/>
      <point x="271" y="434"/>
      <point x="280" y="404" type="curve"/>
      <point x="290" y="365"/>
      <point x="298" y="300"/>
      <point x="298" y="259" type="curve" smooth="yes"/>
      <point x="299" y="194"/>
      <point x="267" y="150"/>
      <point x="215" y="118" type="curve"/>
      <point x="214" y="117" type="line"/>
      <point x="201" y="109"/>
      <point x="187" y="101"/>
    </contour>
  </outline>
</glyph>
<glyph name="e" format="1">
  <advance width="380"/>
  <unicode hex="0065"/>
  <outline>
    <contour>
      <point x="127" y="-68" type="curve" smooth="yes"/>
      <point x="184" y="-77"/>
      <point x="241" y="-69"/>
      <point x="298" y="-68" type="curve" smooth="yes"/>
      <point x="302" y="-68"/>
      <point x="309" y="-67"/>
      <point x="313" y="-66" type="curve" smooth="yes"/>
      <point x="325" y="-63"/>
      <point x="330" y="-55"/>
      <point x="329" y="-43" type="curve" smooth="yes"/>
      <point x="328" y="-23"/>
      <point x="328" y="-2"/>
      <point x="327" y="18" type="curve" smooth="yes"/>
      <point x="326" y="36"/>
      <point x="324" y="39"/>
      <point x="306" y="38" type="curve" smooth="yes"/>
      <point x="279" y="37"/>
      <point x="253" y="34"/>
      <point x="227" y="32" type="curve" smooth="yes"/>
      <point x="201" y="30"/>
      <point x="173" y="27"/>
      <point x="143" y="31" type="curve"/>
      <point x="143" y="309" type="line"/>
      <point x="218" y="312" type="line" smooth="yes"/>
      <point x="243" y="313"/>
      <point x="249" y="320"/>
      <point x="247" y="343" type="curve" smooth="yes"/>
      <point x="244" y="388" type="line" smooth="yes"/>
      <point x="243" y="405"/>
      <point x="238" y="410"/>
      <point x="222" y="411" type="curve" smooth="yes"/>
      <point x="207" y="412"/>
      <point x="192" y="411"/>
      <point x="177" y="411" type="curve" smooth="yes"/>
      <point x="132" y="411" type="line"/>
      <point x="118" y="574" type="line"/>
      <point x="174" y="578" type="line" smooth="yes"/>
      <point x="203" y="580"/>
      <point x="232" y="583"/>
      <point x="261" y="585" type="curve" smooth="yes"/>
      <point x="281" y="586"/>
      <point x="301" y="585"/>
      <point x="321" y="586" type="curve" smooth="yes"/>
      <point x="341" y="587"/>
      <point x="345" y="593"/>
      <point x="343" y="612" type="curve" smooth="yes"/>
      <point x="341" y="633"/>
      <point x="338" y="654"/>
      <point x="336" y="675" type="curve"/>
      <point x="332" y="681" type="line"/>
      <point x="330" y="703"/>
      <point x="326" y="707"/>
      <point x="303" y="707" type="curve" smooth="yes"/>
      <point x="239" y="708"/>
      <point x="175" y="709"/>
      <point x="111" y="709" type="curve" smooth="yes"/>
      <point x="89" y="709"/>
      <point x="67" y="704"/>
      <point x="40" y="701" type="curve"/>
      <point x="40" y="646" type="line" smooth="yes"/>
      <point x="41" y="597"/>
      <point x="43" y="548"/>
      <point x="44" y="499" type="curve" smooth="yes"/>
      <point x="48" y="364"/>
      <point x="51" y="229"/>
      <point x="55" y="94" type="curve" smooth="yes"/>
      <point x="56" y="51"/>
      <point x="58" y="8"/>
      <point x="55" y="-35" type="curve" smooth="yes"/>
      <point x="53" y="-59"/>
      <point x="60" y="-65"/>
      <point x="84" y="-67" type="curve" smooth="yes"/>
      <point x="98" y="-68"/>
      <point x="113" y="-66"/>
    </contour>
  </outline>
</glyph>
<glyph name="f" format="1">
  <advance width="379"/>
  <unicode hex="0066"/>
  <outline>
    <contour>
      <point x="75" y="-117" type="curve" smooth="yes"/>
      <point x="83" y="-116"/>
      <point x="97" y="-115"/>
      <point x="105" y="-115" type="curve" smooth="yes"/>
      <point x="120" y="-115" type="line"/>
      <point x="147" y="-116"/>
      <point x="150" y="-113"/>
      <point x="150" y="-87" type="curve" smooth="yes"/>
      <point x="153" y="78" type="line" smooth="yes"/>
      <point x="154" y="160"/>
      <point x="154" y="242"/>
      <point x="154" y="324" type="curve" smooth="yes"/>
      <point x="154" y="342"/>
      <point x="151" y="360"/>
      <point x="149" y="378" type="curve"/>
      <point x="160" y="381" type="line"/>
      <point x="180" y="383"/>
      <point x="200" y="384"/>
      <point x="220" y="386" type="curve" smooth="yes"/>
      <point x="242" y="388"/>
      <point x="248" y="395"/>
      <point x="248" y="417" type="curve" smooth="yes"/>
      <point x="248" y="459" type="line" smooth="yes"/>
      <point x="248" y="485"/>
      <point x="246" y="487"/>
      <point x="219" y="485" type="curve" smooth="yes"/>
      <point x="192" y="483"/>
      <point x="164" y="480"/>
      <point x="135" y="477" type="curve"/>
      <point x="129" y="632" type="line"/>
      <point x="133" y="634"/>
      <point x="135" y="635"/>
      <point x="136" y="635" type="curve"/>
      <point x="198" y="630"/>
      <point x="259" y="638"/>
      <point x="320" y="647" type="curve" smooth="yes"/>
      <point x="338" y="650"/>
      <point x="339" y="651"/>
      <point x="339" y="668" type="curve" smooth="yes"/>
      <point x="339" y="731" type="line" smooth="yes"/>
      <point x="339" y="747"/>
      <point x="336" y="751"/>
      <point x="320" y="752" type="curve"/>
      <point x="321" y="750" type="line"/>
      <point x="296" y="752"/>
      <point x="271" y="753"/>
      <point x="246" y="753" type="curve" smooth="yes"/>
      <point x="208" y="752"/>
      <point x="170" y="750"/>
      <point x="132" y="748" type="curve" smooth="yes"/>
      <point x="104" y="747"/>
      <point x="75" y="750"/>
      <point x="46" y="738" type="curve"/>
      <point x="42" y="713" type="line"/>
      <point x="41" y="682"/>
      <point x="39" y="651"/>
      <point x="41" y="620" type="curve" smooth="yes"/>
      <point x="47" y="515"/>
      <point x="52" y="410"/>
      <point x="51" y="304" type="curve" smooth="yes"/>
      <point x="50" y="206"/>
      <point x="51" y="108"/>
      <point x="51" y="10" type="curve" smooth="yes"/>
      <point x="51" y="-25"/>
      <point x="52" y="-60"/>
      <point x="51" y="-95" type="curve" smooth="yes"/>
      <point x="51" y="-118"/>
      <point x="53" y="-120"/>
    </contour>
  </outline>
</glyph>
<glyph name="g" format="1">
  <advance width="548"/>
  <unicode hex="0067"/>
  <outline>
    <contour>
      <point x="354" y="-183" type="curve" smooth="yes"/>
      <point x="382" y="-173"/>
      <point x="408" y="-155"/>
      <point x="434" y="-138" type="curve" smooth="yes"/>
      <point x="457" y="-123"/>
      <point x="471" y="-101"/>
      <point x="483" y="-77" type="curve" smooth="yes"/>
      <point x="504" y="-35"/>
      <point x="510" y="10"/>
      <point x="511" y="56" type="curve" smooth="yes"/>
      <point x="513" y="132"/>
      <point x="502" y="207"/>
      <point x="490" y="282" type="curve" smooth="yes"/>
      <point x="487" y="306"/>
      <point x="482" y="309"/>
      <point x="457" y="311" type="curve"/>
      <point x="454" y="314" type="line"/>
      <point x="412" y="317"/>
      <point x="373" y="304"/>
      <point x="334" y="291" type="curve" smooth="yes"/>
      <point x="312" y="283"/>
      <point x="290" y="277"/>
      <point x="266" y="277" type="curve" smooth="yes"/>
      <point x="243" y="277"/>
      <point x="238" y="270"/>
      <point x="240" y="247" type="curve" smooth="yes"/>
      <point x="242" y="226"/>
      <point x="245" y="205"/>
      <point x="247" y="184" type="curve" smooth="yes"/>
      <point x="249" y="164"/>
      <point x="252" y="159"/>
      <point x="272" y="159" type="curve"/>
      <point x="291" y="160"/>
      <point x="321" y="163"/>
      <point x="339" y="166" type="curve"/>
      <point x="355" y="168"/>
      <point x="370" y="172"/>
      <point x="387" y="175" type="curve"/>
      <point x="388" y="171"/>
      <point x="389" y="165"/>
      <point x="389" y="161" type="curve"/>
      <point x="380" y="41" type="line" smooth="yes"/>
      <point x="377" y="-1"/>
      <point x="355" y="-32"/>
      <point x="325" y="-60" type="curve" smooth="yes"/>
      <point x="306" y="-78"/>
      <point x="286" y="-77"/>
      <point x="265" y="-68" type="curve"/>
      <point x="257" y="-64"/>
      <point x="245" y="-55"/>
      <point x="239" y="-48" type="curve"/>
      <point x="219" y="-28"/>
      <point x="212" y="-2"/>
      <point x="206" y="24" type="curve" smooth="yes"/>
      <point x="185" y="111"/>
      <point x="161" y="197"/>
      <point x="152" y="287" type="curve" smooth="yes"/>
      <point x="144" y="369"/>
      <point x="138" y="450"/>
      <point x="147" y="532" type="curve" smooth="yes"/>
      <point x="151" y="566"/>
      <point x="154" y="600"/>
      <point x="169" y="631" type="curve" smooth="yes"/>
      <point x="192" y="678"/>
      <point x="219" y="685"/>
      <point x="258" y="665" type="curve" smooth="yes"/>
      <point x="283" y="652"/>
      <point x="316" y="621"/>
      <point x="331" y="596" type="curve" smooth="yes"/>
      <point x="359" y="551"/>
      <point x="378" y="502"/>
      <point x="384" y="448" type="curve"/>
      <point x="384" y="444"/>
      <point x="388" y="440"/>
      <point x="390" y="436" type="curve"/>
      <point x="456" y="455" type="line" smooth="yes"/>
      <point x="475" y="460"/>
      <point x="477" y="462"/>
      <point x="474" y="481" type="curve" smooth="yes"/>
      <point x="468" y="515"/>
      <point x="449" y="568"/>
      <point x="432" y="599" type="curve" smooth="yes"/>
      <point x="407" y="646"/>
      <point x="372" y="684"/>
      <point x="332" y="718" type="curve" smooth="yes"/>
      <point x="312" y="735"/>
      <point x="274" y="752"/>
      <point x="248" y="756" type="curve" smooth="yes"/>
      <point x="179" y="768"/>
      <point x="119" y="737"/>
      <point x="89" y="674" type="curve" smooth="yes"/>
      <point x="70" y="635"/>
      <point x="60" y="593"/>
      <point x="53" y="550" type="curve" smooth="yes"/>
      <point x="41" y="479"/>
      <point x="40" y="407"/>
      <point x="44" y="336" type="curve" smooth="yes"/>
      <point x="47" y="281"/>
      <point x="55" y="227"/>
      <point x="61" y="173" type="curve" smooth="yes"/>
      <point x="68" y="105"/>
      <point x="91" y="-4"/>
      <point x="112" y="-69" type="curve" smooth="yes"/>
      <point x="118" y="-86"/>
      <point x="133" y="-111"/>
      <point x="146" y="-124" type="curve"/>
      <point x="162" y="-142"/>
      <point x="193" y="-164"/>
      <point x="215" y="-173" type="curve" smooth="yes"/>
      <point x="260" y="-192"/>
      <point x="308" y="-199"/>
    </contour>
  </outline>
</glyph>
<glyph name="h" format="1">
  <advance width="375"/>
  <unicode hex="0068"/>
  <outline>
    <contour>
      <point x="70" y="-97" type="curve" smooth="yes"/>
      <point x="98" y="-95"/>
      <point x="126" y="-92"/>
      <point x="154" y="-88" type="curve"/>
      <point x="165" y="-87"/>
      <point x="170" y="-79"/>
      <point x="170" y="-68" type="curve" smooth="yes"/>
      <point x="170" y="-61"/>
      <point x="171" y="-54"/>
      <point x="171" y="-47" type="curve"/>
      <point x="159" y="319" type="line"/>
      <point x="159" y="339" type="line"/>
      <point x="201" y="345" type="line"/>
      <point x="203" y="315"/>
      <point x="205" y="287"/>
      <point x="206" y="259" type="curve" smooth="yes"/>
      <point x="210" y="149"/>
      <point x="213" y="39"/>
      <point x="217" y="-71" type="curve" smooth="yes"/>
      <point x="218" y="-92"/>
      <point x="222" y="-96"/>
      <point x="244" y="-96" type="curve" smooth="yes"/>
      <point x="259" y="-96"/>
      <point x="274" y="-93"/>
      <point x="289" y="-92" type="curve" smooth="yes"/>
      <point x="332" y="-89"/>
      <point x="334" y="-89"/>
      <point x="332" y="-39" type="curve" smooth="yes"/>
      <point x="329" y="65"/>
      <point x="326" y="170"/>
      <point x="322" y="275" type="curve"/>
      <point x="325" y="272" type="line"/>
      <point x="324" y="292"/>
      <point x="324" y="312"/>
      <point x="323" y="332" type="curve" smooth="yes"/>
      <point x="320" y="416"/>
      <point x="316" y="500"/>
      <point x="312" y="584" type="curve" smooth="yes"/>
      <point x="310" y="626"/>
      <point x="308" y="668"/>
      <point x="305" y="710" type="curve" smooth="yes"/>
      <point x="303" y="733"/>
      <point x="296" y="739"/>
      <point x="273" y="739" type="curve" smooth="yes"/>
      <point x="252" y="739"/>
      <point x="231" y="739"/>
      <point x="210" y="738" type="curve" smooth="yes"/>
      <point x="183" y="736"/>
      <point x="175" y="727"/>
      <point x="177" y="700" type="curve" smooth="yes"/>
      <point x="178" y="678"/>
      <point x="180" y="656"/>
      <point x="181" y="634" type="curve" smooth="yes"/>
      <point x="183" y="586"/>
      <point x="184" y="538"/>
      <point x="185" y="490" type="curve" smooth="yes"/>
      <point x="185" y="455" type="line"/>
      <point x="142" y="458" type="line"/>
      <point x="141" y="488"/>
      <point x="140" y="514"/>
      <point x="138" y="541" type="curve" smooth="yes"/>
      <point x="134" y="596"/>
      <point x="130" y="651"/>
      <point x="125" y="706" type="curve" smooth="yes"/>
      <point x="123" y="728"/>
      <point x="114" y="734"/>
      <point x="93" y="730" type="curve"/>
      <point x="52" y="724" type="line" smooth="yes"/>
      <point x="41" y="722"/>
      <point x="35" y="716"/>
      <point x="35" y="704" type="curve" smooth="yes"/>
      <point x="35" y="678"/>
      <point x="34" y="652"/>
      <point x="35" y="626" type="curve" smooth="yes"/>
      <point x="38" y="522"/>
      <point x="42" y="419"/>
      <point x="45" y="315" type="curve" smooth="yes"/>
      <point x="48" y="195"/>
      <point x="50" y="75"/>
      <point x="53" y="-45" type="curve" smooth="yes"/>
      <point x="53" y="-57"/>
      <point x="54" y="-69"/>
      <point x="55" y="-81" type="curve" smooth="yes"/>
      <point x="56" y="-90"/>
      <point x="60" y="-98"/>
    </contour>
  </outline>
</glyph>
<glyph name="i" format="1">
  <advance width="242"/>
  <unicode hex="0069"/>
  <outline>
    <contour>
      <point x="97" y="-77" type="curve" smooth="yes"/>
      <point x="126" y="-75"/>
      <point x="155" y="-73"/>
      <point x="184" y="-72" type="curve"/>
      <point x="197" y="-71"/>
      <point x="204" y="-65"/>
      <point x="205" y="-53" type="curve" smooth="yes"/>
      <point x="206" y="-38"/>
      <point x="206" y="-23"/>
      <point x="205" y="-8" type="curve" smooth="yes"/>
      <point x="202" y="81"/>
      <point x="199" y="170"/>
      <point x="195" y="270" type="curve"/>
      <point x="192" y="271" type="line"/>
      <point x="192" y="316"/>
      <point x="190" y="373"/>
      <point x="192" y="429" type="curve" smooth="yes"/>
      <point x="196" y="517"/>
      <point x="185" y="604"/>
      <point x="180" y="691" type="curve" smooth="yes"/>
      <point x="179" y="710"/>
      <point x="171" y="716"/>
      <point x="154" y="713" type="curve" smooth="yes"/>
      <point x="79" y="701" type="line" smooth="yes"/>
      <point x="72" y="700"/>
      <point x="61" y="698"/>
      <point x="54" y="696" type="curve"/>
      <point x="42" y="691"/>
      <point x="38" y="681"/>
      <point x="45" y="671" type="curve" smooth="yes"/>
      <point x="52" y="661"/>
      <point x="51" y="652"/>
      <point x="51" y="642" type="curve"/>
      <point x="50" y="628"/>
      <point x="50" y="614"/>
      <point x="51" y="600" type="curve" smooth="yes"/>
      <point x="54" y="537"/>
      <point x="59" y="474"/>
      <point x="61" y="411" type="curve" smooth="yes"/>
      <point x="65" y="257"/>
      <point x="67" y="103"/>
      <point x="70" y="-51" type="curve" smooth="yes"/>
      <point x="70" y="-74"/>
      <point x="75" y="-78"/>
    </contour>
  </outline>
</glyph>
